<svg width="215" height="48" viewBox="0 0 215 48" fill="none" xmlns="http://www.w3.org/2000/svg">
<path d="M168.74 0.244761C167.49 0.216729 166.24 0.19612 164.99 0.192298C160.451 0.200792 155.911 0.273633 151.379 0.721862C148.789 0.944448 146.197 1.16116 143.603 1.2909C140.815 1.43042 140.623 1.38349 137.783 1.46164C136.783 1.4884 135.784 1.52937 134.784 1.56313C129.226 1.80564 123.669 2.2948 118.106 2.18959C112.337 2.06599 106.567 1.91066 100.802 1.59463C94.8515 1.26743 88.9012 0.939742 82.9529 0.548365C76.0827 0.213202 69.2099 -0.00759411 62.3349 0.000199877C55.9856 0.0864222 49.6346 0.199615 43.2933 0.73706C38.0782 1.08581 32.8655 1.49007 27.6542 1.94966C26.2227 2.08239 24.791 2.21649 23.3567 2.10533C20.609 2.05606 19.6941 5.90487 20.66 8.39533C19.1037 8.33566 17.5475 8.26388 15.9915 8.1904C13.5175 8.07318 11.043 7.99078 8.56849 7.90401C5.95866 7.85707 5.01282 11.3251 5.75381 13.806C3.02957 14.9033 3.0341 20.1022 5.25045 21.577C5.11385 22.1319 5.06251 22.7224 5.08618 23.3099C4.85635 23.295 4.62666 23.2791 4.39679 23.2672C3.96667 23.2481 3.53658 23.2305 3.10668 23.2033C-0.859078 23.0561 -1.07888 31.1057 2.74029 31.5344C2.37183 33.5643 1.90951 35.586 2.00966 37.6537C2.04439 38.3712 2.94231 38.1216 3.42522 38.2565C3.98887 38.414 5.84318 38.4128 6.26685 38.4051C7.59393 38.3807 8.98198 38.2745 10.3276 38.1732C11.062 38.1817 11.7965 38.1944 12.5309 38.1989C10.4723 40.2364 11.0349 45.741 14.3089 45.7999L14.3089 45.8007C17.0485 45.7816 19.7881 45.8092 22.5271 45.8848C23.324 45.912 24.1208 45.9447 24.9177 45.9679C29.1376 46.0898 26.8842 45.9742 31.4106 46.1917C34.9533 46.3621 38.4937 46.6053 42.035 46.8235C46.8776 47.0247 51.7282 47.0874 56.5714 46.832C58.8139 46.7129 61.8123 46.4402 64.0517 46.2495C70.6534 45.6822 77.2569 45.1586 83.8551 44.5059C85.6529 44.3133 87.4528 44.1895 89.2531 44.0903C93.5471 44.4545 97.8419 44.7944 102.136 45.1601C104.023 45.2678 106.566 45.4223 108.436 45.4917C113.12 45.6654 117.807 45.5503 122.492 45.4981C129.095 45.3787 135.701 45.1786 142.305 45.2649C145.52 45.3976 148.736 45.5346 151.951 45.6984C152.35 45.7224 152.749 45.7464 153.148 45.7706C153.455 45.9046 153.787 46.0944 153.906 45.8186C155.456 45.9345 156.231 46.1881 156.084 43.7237C160.199 43.7322 164.314 43.7559 168.427 43.8899C169.698 43.9855 170.969 44.0815 172.24 44.1874C175.688 44.5169 179.129 44.9868 182.574 45.3888C184.841 45.6461 187.111 45.8397 189.383 45.9643C189.872 46.0103 190.057 46.0155 192.725 46.2018C193.395 46.2487 194.066 46.3075 194.737 46.3555C195.156 46.3856 195.869 47.0215 195.994 46.4356C195.994 46.4349 195.994 46.4346 195.994 46.434C197.174 46.8797 197.127 46.6981 196.621 43.5859C196.644 43.4865 196.659 43.4213 196.681 43.3253C197.913 43.4094 199.144 43.4969 200.376 43.5636C200.518 43.5721 202.208 43.653 202.433 43.6579C204.968 43.7109 206.179 43.626 205.652 36.5203C206.483 36.5634 206.916 36.6023 207.04 36.1462C207.323 36.0889 207.605 36.0346 207.887 35.9719C208.347 35.8693 208.8 35.6993 209.256 35.5632C209.879 34.9083 210.935 34.6852 211.126 33.5985C211.556 31.1449 211.404 29.6159 210.866 28.5471C212.426 27.8875 213.082 25.6861 212.827 23.7353C215.95 22.6678 215.728 15.6154 212.025 15.5451C211.037 15.5324 210.048 15.5133 209.06 15.4916C207.994 15.467 206.928 15.4421 205.862 15.423C205.861 15.3304 205.859 15.2442 205.859 15.149C206.496 15.0572 207.018 14.739 207.424 14.2769C208.207 14.7782 209.183 14.758 210.199 13.8387C209.892 11.1567 209.775 8.41191 209.276 5.79262C209.221 5.50265 208.865 5.75694 208.659 5.74887C207.679 5.70895 206.697 5.74829 205.717 5.70726C203.776 5.68242 201.835 5.65417 199.894 5.6221C200.088 3.38839 199.12 0.944217 196.943 0.906734L195.924 0.898243C194.518 0.889749 193.112 0.864669 191.706 0.855112C187.799 0.818372 183.893 0.753193 179.987 0.623286C176.239 0.502447 172.491 0.334276 168.742 0.24852L168.74 0.244761ZM67.469 8.06282C71.5916 8.1259 75.7131 8.2718 79.8337 8.46183C79.3542 8.51662 78.8544 8.5814 78.4128 8.62133C75.5133 8.88144 72.6076 8.89122 69.7051 8.78847C66.0597 8.71924 62.4142 8.6723 58.7689 8.59563C55.8559 8.53404 52.9431 8.47055 50.0301 8.41299C54.1427 8.20339 58.2571 8.08078 62.3723 8.02747C64.0713 8.0256 65.7703 8.03809 67.469 8.06357L67.469 8.06282ZM196.368 14.9747C197.898 15.0095 199.427 15.039 200.957 15.0722C201.423 15.0849 201.889 15.0947 202.356 15.1029C199.788 15.3819 197.22 15.6601 194.65 15.9088C192.653 15.8786 190.656 15.8442 188.658 15.8336C186.114 15.8166 183.57 15.8051 181.025 15.8011C182.734 15.7136 184.439 15.5164 186.142 15.2897C187.838 15.0345 189.541 14.9428 191.244 14.917C192.952 14.9106 194.66 14.9405 196.368 14.9739V14.9747ZM206.941 34.4559C206.994 34.4892 207.047 34.5213 207.098 34.5619C207.106 34.5682 207.116 34.6071 207.106 34.6022C207.048 34.5687 206.957 34.5606 206.943 34.4727C206.942 34.4663 206.939 34.4621 206.939 34.4557L206.941 34.4559ZM58.886 36.5185C59.0632 37.2158 59.304 37.9094 59.5552 38.5935C58.5328 38.6727 57.5122 38.7498 56.4478 38.8065C51.7265 39.0583 46.9995 39.0038 42.2787 38.8002C39.0481 38.6007 35.8179 38.3968 32.5868 38.2121C36.2343 38.1369 39.881 38.0146 43.5268 37.8054C47.9497 37.4724 52.3677 37.0188 56.7904 36.6776C57.4887 36.6197 58.1876 36.5714 58.886 36.5181V36.5185ZM3.69797 38.0918C3.69728 38.0981 3.69683 38.1002 3.69617 38.1045C3.62708 38.1002 3.42036 38.0981 3.48942 38.0939C3.5589 38.092 3.62845 38.0896 3.69797 38.0896V38.0918Z" fill="#FFF735"/>
</svg>
