<svg width="32" height="32" viewBox="0 0 32 32" fill="none" xmlns="http://www.w3.org/2000/svg">
<path fill-rule="evenodd" clip-rule="evenodd" d="M11.6907 7.01688C4.51688 7.33879 4.02637 7.89062 4.02637 15.371C4.0417 21.9163 4.59341 24.185 6.20292 24.185C6.29489 24.185 6.90809 24.3689 7.56722 24.5835C10.8629 25.6872 26.682 24.5069 27.3412 23.0966C27.8624 21.993 28.1382 12.9797 27.7397 10.4658C27.3258 7.92127 26.2988 7.12419 23.5857 7.1855C21.2557 7.24682 21.6083 8.22785 23.9689 8.22785C25.7317 8.22785 25.747 8.27384 25.7776 15.4783C25.8083 22.3762 25.8237 22.2076 24.766 22.4682C22.8346 22.9433 11.6907 23.0506 6.90812 23.1273C6.46359 22.2842 6.37156 22.5601 5.92703 15.8768C5.51316 9.46947 5.52851 9.43881 10.0198 8.84099C13.1622 8.42712 13.7293 8.38113 17.1476 8.28916C20.3207 8.19719 20.8265 8.13587 20.8265 7.90594C20.8112 7.20083 16.6265 6.78695 11.6907 7.01688ZM23.7237 9.60742C23.2025 10.0213 22.0068 11.2936 18.0826 15.4783C16.7797 16.8732 16.8258 16.8732 15.4922 15.9382C13.4535 14.5279 11.6907 13.4549 10.3111 12.2133C8.34905 10.4505 7.1074 9.76071 6.67819 10.1899C6.41761 10.4505 8.6402 12.2746 11.5986 15.2637L12.8863 16.5666C12.8403 16.6126 10.2038 18.6513 9.02345 20.2455C8.22636 21.3185 9.06949 21.5178 9.77461 21.0119C10.5104 20.4601 11.7366 19.0959 13.5454 17.2258L14.1892 17.4863C15.2162 17.9002 17.1936 17.6243 17.8834 16.9805C18.3739 16.5206 18.8185 16.3674 18.8185 16.6433C18.8185 16.8425 22.0222 20.0002 23.1565 20.9813C23.8003 21.5331 25.701 22.1463 24.0915 20.2762C22.9112 18.9272 20.5813 16.582 19.7382 15.9995C19.539 15.8615 19.401 15.7236 19.4317 15.6929C21.6543 14.252 23.9535 11.8148 24.7506 10.4045C25.7469 8.70304 23.9843 9.40815 23.7237 9.60742Z" fill="#123053"/>
</svg>
