<svg width="32" height="32" viewBox="0 0 32 32" fill="none" xmlns="http://www.w3.org/2000/svg">
<path fill-rule="evenodd" clip-rule="evenodd" d="M12.5609 5.34204C11.3586 5.34204 10.7209 5.8339 10.7209 6.25289C10.7209 6.90871 11.1946 6.9998 15.2206 7.18197C20.0663 7.40057 24.5478 7.80135 24.8029 8.05639C25.2036 8.45717 25.3858 9.80523 25.2583 11.3537C25.1854 12.2099 25.0761 15.1793 24.985 17.9665C24.8211 24.2696 25.4404 23.7595 17.8074 23.9417L16.259 23.9781C16.2772 23.3587 16.3318 19.5696 16.3501 18.094C17.3338 18.094 18.1535 18.1122 18.7364 18.0758C20.2849 17.9847 19.7202 17.3107 18.9005 16.8552C18.0989 16.3998 17.1698 16.4545 16.1679 16.4545V15.489C16.1679 12.6107 17.7346 10.8436 19.2102 12.0641C20.3761 13.0297 21.378 12.5378 20.4854 11.4265C18.0443 8.32965 13.8543 10.2424 13.6175 14.5417L13.5264 16.3634L12.1601 16.5455C10.0652 16.8188 10.6664 18.094 12.8707 18.094H13.5994C13.654 19.606 13.7997 23.4134 13.8361 24.1056C13.2714 24.1238 12.3422 24.0328 9.90114 24.3607C7.62401 24.6521 7.82446 25.1622 7.60586 18.6405C7.3326 10.6432 7.58768 8.53003 9.00861 6.92693C9.4276 6.45329 8.44381 5.10522 7.02288 6.59902C5.00078 8.69399 4.67291 10.6432 4.69113 17.93C4.70934 23.213 4.83693 25.0347 7.58771 26.0002C8.79004 26.4192 10.6481 26.5467 13.9272 26.6196C27.6447 26.9293 27.5353 27.0022 27.2438 17.2378C27.1528 13.9769 27.1164 11.0804 27.1711 10.8072C27.5901 8.83972 26.3877 6.48972 23.6734 6.03429C20.9226 5.506 17.1516 5.34204 12.5609 5.34204Z" fill="#123053"/>
</svg>
