<svg width="32" height="32" viewBox="0 0 32 32" fill="none" xmlns="http://www.w3.org/2000/svg">
<path d="M10.7213 6.25265C10.7213 5.83366 11.359 5.3418 12.5614 5.3418C17.1521 5.3418 20.923 5.50575 23.6738 6.03405C26.3881 6.48948 27.5905 8.83948 27.1715 10.8069C27.1168 11.0802 27.1532 13.9767 27.2443 17.2376C27.5357 27.0019 27.6451 26.929 13.9276 26.6194C10.6486 26.5465 8.79046 26.419 7.58813 26C4.83735 25.0345 4.70976 23.2128 4.69155 17.9298C4.67333 10.643 5.0012 8.69374 7.0233 6.59878C8.44423 5.10498 9.42802 6.45304 9.00903 6.92669C7.5881 8.52979 7.33302 10.643 7.60628 18.6403C7.82488 25.162 7.62442 24.6519 9.90156 24.3604C12.3426 24.0325 13.0414 24.1054 13.8366 24.1054C14.6317 24.1054 15.5188 23.9557 16.2594 23.9779C17 24 17.8078 23.9414 17.8078 23.9414C25.4408 23.7593 24.8215 24.2693 24.9854 17.9662C25.0765 15.179 25.1858 12.2096 25.2587 11.3534C25.3862 9.80498 25.2041 8.45692 24.8033 8.05615C24.5482 7.80111 20.0667 7.40033 15.221 7.18172C11.195 6.99955 10.7213 6.90847 10.7213 6.25265Z" fill="#123053"/>
<path d="M14.0198 11.34C13.9932 11.4733 13.8998 11.5467 13.7398 11.56C13.5798 11.5733 13.4465 11.58 13.3398 11.58C13.0065 11.5933 12.6598 11.6267 12.2998 11.68C11.9532 11.7333 11.5865 11.8133 11.1998 11.92C11.0398 11.9733 10.8665 11.9533 10.6798 11.86C10.4932 11.7667 10.3798 11.58 10.3398 11.3C10.3398 11.1933 10.3798 11.1067 10.4598 11.04C10.5398 10.9733 10.6332 10.9133 10.7398 10.86C10.9132 10.78 11.1198 10.7133 11.3598 10.66C11.5998 10.5933 11.8398 10.5467 12.0798 10.52C12.3332 10.4933 12.5732 10.4867 12.7998 10.5C13.0265 10.5 13.2132 10.52 13.3598 10.56C13.5732 10.6267 13.7398 10.7267 13.8598 10.86C13.9932 10.9933 14.0465 11.1533 14.0198 11.34ZM13.5598 18C13.6532 18.2133 13.6998 18.4467 13.6998 18.7C13.7132 18.94 13.6465 19.1067 13.4998 19.2C13.3132 19.32 13.1132 19.3133 12.8998 19.18C12.6865 19.0467 12.5265 18.8667 12.4198 18.64C12.2732 18.36 12.1598 18.02 12.0798 17.62C11.9998 17.2067 11.9398 16.8 11.8998 16.4C11.8598 16 11.8332 15.6267 11.8198 15.28C11.8198 14.9333 11.8198 14.6733 11.8198 14.5C11.8332 14.3133 11.8865 14.14 11.9798 13.98C12.0732 13.82 12.1932 13.7267 12.3398 13.7C12.5798 13.7133 12.7732 13.8267 12.9198 14.04C13.0665 14.24 13.1332 14.4933 13.1198 14.8C13.1198 15.04 13.1265 15.3067 13.1398 15.6C13.1532 15.8933 13.1798 16.1867 13.2198 16.48C13.2598 16.7733 13.3065 17.06 13.3598 17.34C13.4132 17.6067 13.4798 17.8267 13.5598 18ZM16.7836 12.9C16.8236 13.1 16.8636 13.3267 16.9036 13.58C16.9569 13.82 17.0103 14.0733 17.0636 14.34C17.1169 14.5933 17.1636 14.8533 17.2036 15.12C17.2436 15.3867 17.2769 15.64 17.3036 15.88C17.4636 15.5333 17.6369 15.1667 17.8236 14.78C18.0103 14.3933 18.2103 14.04 18.4236 13.72C18.6503 13.3867 18.8836 13.1133 19.1236 12.9C19.3769 12.6867 19.6503 12.58 19.9436 12.58C20.3836 12.58 20.7503 12.74 21.0436 13.06C21.3503 13.38 21.6036 13.78 21.8036 14.26C22.0169 14.7267 22.1836 15.22 22.3036 15.74C22.4236 16.26 22.5236 16.72 22.6036 17.12C22.6836 17.48 22.5236 17.7467 22.1236 17.92C21.9369 18.0133 21.7969 18.0267 21.7036 17.96C21.6103 17.8933 21.5569 17.8267 21.5436 17.76C21.4769 17.6 21.3903 17.32 21.2836 16.92C21.1903 16.52 21.0769 16.1133 20.9436 15.7C20.8236 15.2867 20.6836 14.9267 20.5236 14.62C20.3636 14.3133 20.1836 14.1733 19.9836 14.2C19.7436 14.2133 19.5303 14.3933 19.3436 14.74C19.1836 15.02 19.0169 15.3333 18.8436 15.68C18.6836 16.0133 18.5236 16.36 18.3636 16.72C18.2036 17.0667 18.0436 17.42 17.8836 17.78C17.7369 18.1267 17.5969 18.4467 17.4636 18.74C17.3703 18.8333 17.2503 18.9 17.1036 18.94C16.9703 18.9667 16.8303 18.9533 16.6836 18.9C16.5503 18.86 16.4436 18.7933 16.3636 18.7C16.2836 18.6067 16.2436 18.5133 16.2436 18.42C16.1236 17.38 15.9969 16.4333 15.8636 15.58C15.7436 14.7267 15.5836 13.8533 15.3836 12.96C15.2903 12.6533 15.2703 12.4133 15.3236 12.24C15.3903 12.0533 15.5903 11.98 15.9236 12.02C16.3903 12.1 16.6769 12.3933 16.7836 12.9Z" fill="#123053"/>
</svg>
