<svg width="200" height="100" viewBox="0 0 200 100" fill="none" xmlns="http://www.w3.org/2000/svg">
<path d="M45.0889 9.01953C45.4053 8.21094 45.5635 7.38477 45.5635 6.54102C45.5635 5.76758 45.3174 5.11719 44.8252 4.58984V3.48242C43.8057 2.49805 42.6982 1.79492 41.5029 1.37305C40.3076 0.916016 39.0068 0.6875 37.6006 0.6875C36.5811 0.6875 35.5791 0.775391 34.5947 0.951172C33.6104 1.12695 32.6084 1.21484 31.5889 1.21484C30.6748 1.56641 29.7432 1.86523 28.7939 2.11133C27.8447 2.35742 26.8955 2.62109 25.9463 2.90234C24.9971 3.14844 24.0479 3.42969 23.0986 3.74609C22.1846 4.0625 21.3057 4.48438 20.4619 5.01172H19.5127C19.1963 5.29297 18.8447 5.50391 18.458 5.64453C18.0713 5.78516 17.667 5.92578 17.2451 6.06641C16.8584 6.17188 16.4717 6.3125 16.085 6.48828C15.6982 6.62891 15.3291 6.82227 14.9775 7.06836C14.4854 7.06836 14.0283 7.17383 13.6064 7.38477C13.1846 7.5957 12.7451 7.8418 12.2881 8.12305C11.8662 8.36914 11.4268 8.61523 10.9697 8.86133C10.5127 9.10742 10.0205 9.26562 9.49316 9.33594C9.07129 9.82812 8.59668 10.25 8.06934 10.6016C7.57715 10.9531 7.06738 11.3047 6.54004 11.6562C6.0127 12.0078 5.50293 12.3945 5.01074 12.8164C4.51855 13.2031 4.11426 13.6777 3.79785 14.2402C3.83301 14.6973 3.81543 15.1543 3.74512 15.6113C3.70996 16.0684 3.60449 16.4902 3.42871 16.877C3.60449 16.9824 3.7627 17.1758 3.90332 17.457C4.04395 17.7031 4.18457 17.9668 4.3252 18.248C4.46582 18.5293 4.62402 18.793 4.7998 19.0391C4.92173 19.161 5.06128 19.2477 5.21845 19.2991C5.14789 19.3164 5.06562 19.3296 4.97163 19.3388C5.23453 19.5309 5.3958 19.7117 5.45542 19.8813C5.55699 20.0666 5.61903 20.2571 5.64154 20.453L5.7139 21.0825C5.77674 21.28 5.92186 21.495 6.14925 21.7273C6.08306 21.8498 6.03703 21.9732 6.01117 22.0974C5.98691 22.2356 5.98363 22.3816 6.00132 22.5355C6.01418 22.6474 6.06818 22.768 6.16332 22.8973C6.30039 23.0423 6.57462 23.1583 6.98598 23.2453C6.79718 23.3487 6.60597 23.4311 6.41235 23.4925C6.26066 23.5697 6.17269 23.6773 6.14844 23.8155C6.32263 23.9342 6.41375 24.0286 6.42179 24.0985C6.43948 24.2524 6.37489 24.3889 6.22803 24.508C6.1215 24.6288 6.07628 24.7591 6.09236 24.899C6.11005 25.0529 6.2697 25.2198 6.57133 25.3995L5.90584 25.3715C6.29134 25.5826 6.57762 25.8035 6.76468 26.0342C6.95174 26.2648 7.11863 26.4946 7.26535 26.7235C7.41369 26.9665 7.58138 27.2032 7.76844 27.4339C7.9555 27.6645 8.22242 27.8916 8.5692 28.115C8.88864 28.1006 9.09111 28.1161 9.1766 28.1615C9.30242 28.2086 9.48633 28.2372 9.72833 28.2474C9.809 28.2509 9.86869 28.2464 9.90742 28.2341C10.0009 28.3494 10.134 28.4595 10.3066 28.5642C10.4808 28.6829 10.5961 28.8131 10.6525 28.9547C11.4447 28.8628 12.1514 28.7256 12.7726 28.543C13.3954 28.3743 14.1029 28.2441 14.8951 28.1522C14.9306 28.1119 14.9451 28.0638 14.9387 28.0079L14.9218 27.861C14.9138 27.791 14.8646 27.7124 14.7743 27.6251C14.7243 27.5394 14.6751 27.4608 14.6268 27.3891C14.6994 27.3226 14.8156 27.2857 14.9753 27.2785C15.1753 27.2731 15.2488 27.2135 15.1956 27.0999C14.9439 27.0057 14.7504 26.8932 14.6149 26.7622C14.5214 26.6468 14.427 26.5245 14.3319 26.3952C14.2771 26.2676 14.2013 26.1322 14.1046 25.9889C14.0094 25.8596 13.8756 25.7425 13.703 25.6378C13.7708 25.5293 13.9225 25.4522 14.158 25.4064C14.4339 25.3624 14.563 25.2634 14.5454 25.1095C14.5389 25.0536 14.4938 25.0099 14.4099 24.9785C14.3276 24.9611 14.2252 24.9429 14.1026 24.9238C13.9816 24.9187 13.8598 24.9066 13.7372 24.8875C13.6549 24.8701 13.6113 24.8404 13.6065 24.7984L13.2536 23.823C13.1763 23.4995 13.0788 23.1752 12.9611 22.85C12.6872 21.864 12.4327 20.8718 12.1976 19.8734C11.964 18.889 11.6296 17.9004 11.1944 16.9076C11.4639 16.8076 11.6745 16.719 11.8261 16.6419C11.9794 16.5787 12.0472 16.4702 12.0295 16.3163C11.9942 16.0086 11.7733 15.6582 11.3669 15.2651C11.3126 15.2089 11.2531 15.1543 11.1884 15.1013C11.3813 14.9363 11.5721 14.7723 11.7607 14.6094C12.5342 13.9414 13.0264 13.502 13.2373 13.291C14.5732 13.0801 15.7686 12.6934 16.8232 12.1309C17.9131 11.5684 18.9854 10.8828 20.04 10.0742C21.7627 9.79297 23.415 9.33594 24.9971 8.70312C26.5791 8.07031 28.1611 7.38477 29.7432 6.64648C30.376 6.68164 30.9912 6.66406 31.5889 6.59375C32.1865 6.48828 32.7842 6.36523 33.3818 6.22461C34.0146 6.08398 34.6299 5.96094 35.2275 5.85547C35.8252 5.75 36.4404 5.69727 37.0732 5.69727C38.0225 5.69727 38.9717 5.89062 39.9209 6.27734C40.167 6.66406 40.29 7.15625 40.29 7.75391C40.3252 8.35156 40.3779 8.87891 40.4482 9.33594C40.3076 9.40625 40.1318 9.47656 39.9209 9.54688C39.7451 9.61719 39.6221 9.74023 39.5518 9.91602C39.4463 10.0918 39.3584 10.3027 39.2881 10.5488C39.2178 10.7949 39.1123 11.0234 38.9717 11.2344C38.585 11.8672 38.1982 12.4297 37.8115 12.9219C37.46 13.4141 37.2139 14.0469 37.0732 14.8203C36.7568 14.9258 36.5107 15.1191 36.335 15.4004C36.1943 15.6816 35.9307 15.875 35.5439 15.9805C35.5088 16.1562 35.4561 16.332 35.3857 16.5078C35.3506 16.6484 35.333 16.8066 35.333 16.9824V17.1406C35.3682 17.1758 35.3857 17.2109 35.3857 17.2461C34.5771 17.7383 33.8564 18.3184 33.2236 18.9863C32.5908 19.6191 31.9756 20.2871 31.3779 20.9902C30.7803 21.6934 30.165 22.3789 29.5322 23.0469C28.9346 23.7148 28.249 24.2949 27.4756 24.7871C27.1943 25.5957 26.79 26.2461 26.2627 26.7383C25.7354 27.2305 25.1201 27.6699 24.417 28.0566C24.2061 28.584 23.9248 29.0586 23.5732 29.4805C23.2568 29.8672 22.8877 30.2363 22.4658 30.5879L21.3057 31.6426C20.9189 31.9941 20.5674 32.3809 20.251 32.8027C19.5127 33.2598 18.8799 33.7344 18.3525 34.2266C17.8252 34.6836 17.2803 35.123 16.7178 35.5449C16.1904 35.9668 15.5928 36.3359 14.9248 36.6523C14.292 36.9688 13.4834 37.1973 12.499 37.3379H12.2354C12.0596 37.3379 11.9014 37.3203 11.7607 37.2852C11.6553 37.2148 11.5146 37.1621 11.3389 37.127C10.917 37.5137 10.5127 37.9355 10.126 38.3926C9.77441 38.8145 9.42285 39.2715 9.07129 39.7637C9.45801 41.1348 9.65137 42.4707 9.65137 43.7715C9.65137 44.7559 9.5459 45.6875 9.33496 46.5664C9.47559 46.8125 9.56348 47.1113 9.59863 47.4629C9.66895 47.7793 9.7041 48.0781 9.7041 48.3594C9.7041 48.6406 9.66895 48.957 9.59863 49.3086C9.52832 49.625 9.35254 49.8535 9.07129 49.9941C9.56348 50.5566 9.91504 51.1895 10.126 51.8926C10.3721 52.5605 10.7236 53.1758 11.1807 53.7383C11.3564 53.7734 11.5146 53.791 11.6553 53.791C11.8311 53.8262 12.0068 53.8438 12.1826 53.8438C13.0264 53.8438 13.7295 53.668 14.292 53.3164C14.8545 53 15.5225 52.7715 16.2959 52.6309C16.6123 51.8574 16.7705 51.0312 16.7705 50.1523C16.7705 49.2031 16.6123 48.2539 16.2959 47.3047C16.7529 46.1094 16.9814 44.9141 16.9814 43.7188C16.9814 43.4375 16.9639 43.1562 16.9287 42.875C16.9287 42.5938 16.9111 42.3125 16.876 42.0312C17.5791 40.9062 18.335 39.9043 19.1436 39.0254C19.9873 38.1465 21.042 37.5137 22.3076 37.127C22.3779 36.5996 22.6064 36.2305 22.9932 36.0195C23.3799 35.8086 23.7842 35.668 24.2061 35.5977C24.6982 34.8242 25.208 34.1035 25.7354 33.4355C26.2979 32.7676 27.001 32.2402 27.8447 31.8535C28.0205 31.2559 28.3193 30.7812 28.7412 30.4297C29.1631 30.0781 29.6201 29.7441 30.1123 29.4277C30.042 29.1465 30.0596 28.9707 30.165 28.9004C30.2705 28.8301 30.3232 28.707 30.3232 28.5312L30.2705 28.4258C30.8682 27.9688 31.4307 27.4766 31.958 26.9492C32.4854 26.3867 32.9951 25.8418 33.4873 25.3145C34.0146 24.752 34.542 24.2246 35.0693 23.7324C35.6318 23.2051 36.2471 22.748 36.915 22.3613C36.915 22.0801 36.9678 21.8867 37.0732 21.7812C37.2139 21.6758 37.2842 21.5 37.2842 21.2539V21.043C38.8311 19.707 40.1494 18.2129 41.2393 16.5605C42.3643 14.873 43.4365 13.168 44.4561 11.4453C44.5615 10.6367 44.7725 9.82812 45.0889 9.01953Z" fill="#123053"/>
<path d="M18.25 61.846C18.1707 62.0844 18.0781 62.2632 17.9724 62.3825C17.893 62.5613 17.8137 62.7103 17.7344 62.8295C17.655 63.0083 17.5889 63.1871 17.5361 63.3659C17.5096 63.5447 17.5228 63.8129 17.5757 64.1705C16.9147 64.2301 16.399 64.5877 16.0288 65.2434C15.6851 65.9586 15.3413 66.8825 14.9976 68.0149C14.5216 68.0149 14.1779 68.2831 13.9663 68.8195C13.7813 69.4156 13.5036 69.8924 13.1334 70.25H12.9748C12.393 70.25 11.9171 69.952 11.5469 69.356C11.1767 68.8195 10.8726 68.1043 10.6346 67.2103C10.4231 66.3162 10.2644 65.303 10.1587 64.1705C10.0793 63.0977 10.0264 62.0248 10 60.952C10.5024 60.1772 11.0312 59.4917 11.5865 58.8957C12.1418 58.3593 12.7236 58.0911 13.3317 58.0911C13.8077 58.0911 14.2704 58.2699 14.72 58.6275C14.8786 58.6275 14.9976 58.5083 15.0769 58.2699C15.1827 58.0911 15.2752 57.8825 15.3546 57.644C15.4603 57.4056 15.5661 57.197 15.6719 57.0182C15.7776 56.8394 15.9363 56.75 16.1478 56.75C16.518 57.5248 16.875 58.3593 17.2188 59.2533C17.5625 60.1474 17.9062 61.0116 18.25 61.846Z" fill="#123053"/>
<path fill-rule="evenodd" clip-rule="evenodd" d="M80.5049 43.1986C80.5456 43.2039 80.5863 43.2106 80.627 43.2188C80.8663 43.0665 81.0753 42.9041 81.254 42.7316C81.4227 42.6411 81.5958 42.5574 81.7734 42.4805C82.4766 42.1758 83.1914 41.9062 83.918 41.6719C84.293 41.2969 84.6797 40.957 85.0781 40.6523C85.5 40.3477 85.957 40.1016 86.4492 39.9141C86.9648 39.2109 87.4922 38.5312 88.0312 37.875C88.5703 37.1953 89.0039 36.4453 89.332 35.625C89.3086 35.2969 89.3203 35.0156 89.3672 34.7812C89.4141 34.5234 89.4844 34.2891 89.5781 34.0781L89.8594 33.375C89.9766 33.1406 90.0938 32.8828 90.2109 32.6016V32.5312C90.2109 31.6641 90.375 30.7969 90.7031 29.9297C90.75 29.7656 90.8203 29.6016 90.9141 29.4375C91.0078 29.2734 91.0781 29.1094 91.125 28.9453V28.418C91.125 28.1602 91.1133 27.9023 91.0898 27.6445V26.8008C91.0898 26.5898 91.1016 26.3555 91.125 26.0977C91.1484 25.8398 91.2305 25.6055 91.3711 25.3945C91.3589 25.2912 91.3421 25.1918 91.3204 25.0964L91.4043 25.043C91.6152 25.0664 91.8027 25.0547 91.9668 25.0078C92.1074 24.9609 92.2363 24.9023 92.3535 24.832C92.4707 24.7617 92.5879 24.6797 92.7051 24.5859C92.8223 24.4922 92.9746 24.3984 93.1621 24.3047C93.4668 24.3047 93.7715 24.2695 94.0762 24.1992C94.3809 24.1055 94.6738 24.0117 94.9551 23.918C95.2363 23.8242 95.5176 23.7422 95.7988 23.6719C96.0801 23.5781 96.373 23.5312 96.6777 23.5312H96.8184C96.8418 23.7891 96.8535 24.0469 96.8535 24.3047C96.877 24.5625 96.8887 24.8203 96.8887 25.0781C96.8887 26.3438 96.8184 27.5859 96.6777 28.8047C96.5371 30.0234 96.4668 31.2422 96.4668 32.4609C96.4668 33.0703 96.502 33.6562 96.5723 34.2188C96.3848 34.5469 96.2676 34.9102 96.2207 35.3086C96.1973 35.6836 96.1855 36.0586 96.1855 36.4336C96.1855 37.2539 96.2441 38.0625 96.3613 38.8594C96.502 39.6562 96.5723 40.4648 96.5723 41.2852V41.4258C96.8535 41.7539 97.0879 42.1055 97.2754 42.4805C97.4629 42.832 97.6504 43.207 97.8379 43.6055C98.0957 43.793 98.3652 43.957 98.6465 44.0977C98.9277 44.2148 99.1973 44.332 99.4551 44.4492C99.7832 44.4023 100.088 44.332 100.369 44.2383C100.674 44.1445 100.99 44.0977 101.318 44.0977C101.693 44.0977 101.998 44.1797 102.232 44.3438C102.256 44.25 102.268 44.1211 102.268 43.957C102.268 43.2773 102.068 42.6562 101.67 42.0938C101.271 41.5078 100.838 41.0039 100.369 40.582C100.252 40.1836 100.135 39.8086 100.018 39.457C99.9004 39.082 99.8418 38.6953 99.8418 38.2969C99.8418 37.7578 99.9707 37.2539 100.229 36.7852C100.416 36.7383 100.604 36.7148 100.791 36.7148H103.076C103.662 36.7148 104.225 36.6094 104.764 36.3984L105.115 36.5391C105.256 36.5859 105.385 36.6211 105.502 36.6445C105.83 36.5273 106.217 36.4688 106.662 36.4688C107.154 36.4688 107.635 36.5156 108.104 36.6094C108.572 36.7031 109.053 36.75 109.545 36.75C109.779 36.75 110.025 36.7148 110.283 36.6445C110.447 36.7383 110.635 36.8203 110.846 36.8906L111.514 37.1016C111.748 37.1719 111.959 37.2656 112.146 37.3828C112.334 37.4766 112.486 37.6172 112.604 37.8047C112.486 38.1562 112.264 38.4258 111.936 38.6133C111.631 38.7773 111.303 38.9297 110.951 39.0703C110.6 39.1875 110.26 39.3281 109.932 39.4922C109.604 39.6328 109.357 39.8555 109.193 40.1602C108.889 40.1367 108.643 40.1719 108.455 40.2656C108.268 40.3594 108.092 40.4648 107.928 40.582C107.787 40.6992 107.635 40.8164 107.471 40.9336C107.307 41.0508 107.084 41.1094 106.803 41.1094H106.592C106.521 41.0859 106.463 41.0742 106.416 41.0742C106.346 41.2617 106.24 41.4258 106.1 41.5664C105.982 41.6836 105.842 41.8008 105.678 41.918L105.221 42.2695C105.08 42.3867 104.975 42.5273 104.904 42.6914C104.951 43.2305 105.127 43.6055 105.432 43.8164C105.736 44.0039 106.135 44.0977 106.627 44.0977C106.979 44.0977 107.33 44.0742 107.682 44.0273C108.057 43.957 108.42 43.8984 108.771 43.8516C109.287 43.3125 109.873 42.9023 110.529 42.6211C111.209 42.3164 111.9 42.082 112.604 41.918C112.814 41.6367 113.072 41.4141 113.377 41.25C113.682 41.0625 113.986 40.8867 114.291 40.7227C114.619 40.5352 114.912 40.3359 115.17 40.125C115.428 39.8906 115.615 39.5742 115.732 39.1758C116.014 39.1523 116.236 39.082 116.4 38.9648C116.564 38.8477 116.705 38.707 116.822 38.543C116.963 38.3789 117.08 38.1914 117.174 37.9805C117.268 37.7695 117.373 37.5703 117.49 37.3828C117.49 37.1953 117.443 37.0195 117.35 36.8555C117.256 36.668 117.209 36.4805 117.209 36.293V36.1875C117.232 36.1406 117.244 36.0938 117.244 36.0469C116.963 35.7422 116.635 35.4844 116.26 35.2734C115.908 35.0625 115.533 34.875 115.135 34.7109C114.76 34.5469 114.373 34.3711 113.975 34.1836C113.6 33.9961 113.26 33.7617 112.955 33.4805C112.533 33.5273 112.123 33.5156 111.725 33.4453C111.326 33.3516 110.916 33.2578 110.494 33.1641C110.096 33.0469 109.686 32.9414 109.264 32.8477C108.865 32.7539 108.455 32.707 108.033 32.707C108.924 31.6992 109.908 30.8203 110.986 30.0703C112.064 29.3203 113.225 28.6875 114.467 28.1719C114.748 27.7734 115.076 27.4102 115.451 27.082C115.826 26.7305 116.26 26.4727 116.752 26.3086C116.822 26.0742 116.916 25.8867 117.033 25.7461C117.174 25.6055 117.373 25.5469 117.631 25.5703C117.889 25.125 118.182 24.7266 118.51 24.375C118.838 24.0234 119.166 23.6602 119.494 23.2852C119.471 23.0273 119.494 22.8047 119.564 22.6172C119.635 22.4297 119.705 22.2539 119.775 22.0898L120.021 21.5625C120.115 21.375 120.162 21.1758 120.162 20.9648C120.162 20.6602 120.104 20.3906 119.986 20.1562C119.893 19.8984 119.787 19.6289 119.67 19.3477C119.623 19.2305 119.588 19.0898 119.564 18.9258C119.564 18.7617 119.541 18.6562 119.494 18.6094C119.424 18.4688 119.225 18.293 118.896 18.082C118.568 17.8711 118.205 17.6719 117.807 17.4844C117.408 17.2969 117.021 17.1328 116.646 16.9922C116.295 16.8516 116.037 16.7812 115.873 16.7812C115.592 16.7812 115.346 16.8516 115.135 16.9922C114.947 16.9688 114.771 16.957 114.607 16.957C114.443 16.9336 114.279 16.9219 114.115 16.9219C113.693 16.9219 113.248 16.957 112.779 17.0273C112.334 17.0977 111.924 17.25 111.549 17.4844C111.525 17.3906 111.432 17.3438 111.268 17.3438C111.174 17.3438 111.045 17.3555 110.881 17.3789C110.717 17.3789 110.6 17.332 110.529 17.2383C110.365 17.2148 110.26 17.2734 110.213 17.4141C110.166 17.5312 110.061 17.5898 109.896 17.5898H109.475C109.334 17.5664 109.182 17.5547 109.018 17.5547C108.666 17.5547 108.443 17.625 108.35 17.7656C108.279 17.9062 108.139 17.9766 107.928 17.9766H107.787C107.764 17.9531 107.729 17.9414 107.682 17.9414C107.447 17.9414 107.248 18 107.084 18.1172C106.92 18.2109 106.779 18.2578 106.662 18.2578C106.146 18.2578 105.689 18.293 105.291 18.3633C104.893 18.4336 104.459 18.5977 103.99 18.8555C103.451 18.8086 102.889 18.8789 102.303 19.0664C101.74 19.2539 101.178 19.3477 100.615 19.3477H100.475C100.24 19.5352 99.9707 19.6641 99.666 19.7344C99.3613 19.7812 99.0449 19.8281 98.7168 19.875C98.3887 19.9219 98.0605 19.9805 97.7324 20.0508C97.4043 20.1211 97.0996 20.2734 96.8184 20.5078L96.4668 20.5781C96.3496 20.6016 96.2324 20.6133 96.1152 20.6133C95.9746 20.6133 95.834 20.5781 95.6934 20.5078C94.8965 20.8828 94.123 21.1758 93.373 21.3867C92.623 21.5742 91.791 21.6562 90.877 21.6328C90.5488 21.7969 90.1973 21.9375 89.8223 22.0547C89.6999 22.0907 89.5787 22.1289 89.4585 22.1693C89.4145 22.0763 89.3723 21.9795 89.332 21.8789C88.7227 21.6211 88.2188 21.2461 87.8203 20.7539L87.5391 20.8242H87.2578C86.8359 20.8242 86.4258 20.7539 86.0273 20.6133C85.6289 20.4492 85.2188 20.3672 84.7969 20.3672C84.6562 20.3672 84.5273 20.3789 84.4102 20.4023C84.293 20.4258 84.1641 20.4609 84.0234 20.5078C83.625 20.6016 83.25 20.6953 82.8984 20.7891C82.5703 20.8594 82.2188 21 81.8438 21.2109C81.1641 21.5391 80.5195 21.9141 79.9102 22.3359C79.3008 22.7578 78.6211 23.0742 77.8711 23.2852C77.7773 23.4727 77.6484 23.6367 77.4844 23.7773C77.3203 23.918 77.2031 24.0938 77.1328 24.3047C76.2422 24.7734 75.4453 25.3594 74.7422 26.0625C74.0625 26.7656 73.3008 27.3867 72.457 27.9258C72.4805 28.0664 72.4688 28.1953 72.4219 28.3125C72.375 28.4062 72.2578 28.4531 72.0703 28.4531C72 28.4531 71.9531 28.4414 71.9297 28.418C71.9766 28.6055 71.9648 28.7461 71.8945 28.8398C71.8477 28.9336 71.8242 29.0508 71.8242 29.1914C70.9336 30.1055 70.1367 31.0664 69.4336 32.0742C68.7539 33.0586 68.2031 34.1602 67.7812 35.3789C67.8047 35.7539 67.7578 36.1055 67.6406 36.4336C67.5234 36.7383 67.4414 37.0547 67.3945 37.3828C67.7227 38.4844 68.0391 39.4805 68.3438 40.3711C68.5121 40.8504 68.7378 41.3404 69.0208 41.8411C68.9754 41.8538 68.9301 41.8677 68.8848 41.8828C68.7676 41.9297 68.6504 41.9531 68.5332 41.9531C68.3691 41.9297 68.2402 41.8711 68.1465 41.7773C68.0762 41.6836 67.959 41.6367 67.7949 41.6367H67.6895C67.502 41.7773 67.291 41.8711 67.0566 41.918C66.8223 41.9648 66.5996 42.0234 66.3887 42.0938C65.498 42.1172 64.6074 42.1875 63.7168 42.3047C62.8262 42.3984 61.9238 42.5039 61.0098 42.6211C60.1191 42.7383 59.2285 42.8438 58.3379 42.9375C57.4473 43.0312 56.5566 43.0547 55.666 43.0078L55.1035 42.9727C55.1035 42.8789 55.0449 42.832 54.9277 42.832H54.6113C54.6582 42.6211 54.6113 42.457 54.4707 42.3398C54.3535 42.1992 54.2129 42.1055 54.0488 42.0586C54.0254 41.9883 54.0137 41.8945 54.0137 41.7773C54.0371 41.5664 54.084 41.3672 54.1543 41.1797C54.248 40.9922 54.3184 40.7812 54.3652 40.5469C55.9824 39.2812 57.5527 37.9688 59.0762 36.6094C60.5996 35.25 62.123 33.8789 63.6465 32.4961C63.8809 32.0273 64.127 31.5586 64.3848 31.0898C64.6426 30.5977 64.877 30.1055 65.0879 29.6133C65.3223 29.0977 65.5215 28.582 65.6855 28.0664C65.8496 27.5508 65.9434 27.0234 65.9668 26.4844V25.8867C65.3574 25.043 64.6777 24.3047 63.9277 23.6719C63.5527 23.7188 63.2363 23.6953 62.9785 23.6016C62.7441 23.4844 62.4746 23.3555 62.1699 23.2148C61.6309 23.2383 61.0918 23.2266 60.5527 23.1797C60.0371 23.1094 59.5098 23.0625 58.9707 23.0391C58.1973 22.9922 57.4355 23.0508 56.6855 23.2148C55.9355 23.3789 55.1738 23.4492 54.4004 23.4258C53.9316 23.4023 53.4629 23.4375 52.9941 23.5312C52.5488 23.6016 52.0918 23.6836 51.623 23.7773C51.1777 23.8711 50.7207 23.9648 50.252 24.0586C49.8066 24.1289 49.3496 24.1523 48.8809 24.1289C48.5527 24.3164 48.2129 24.4805 47.8613 24.6211C47.5098 24.7383 47.1582 24.7852 46.8066 24.7617H46.4902C46.4199 24.7383 46.3262 24.7031 46.209 24.6562C46.0215 24.9141 45.7637 25.0898 45.4355 25.1836C45.1074 25.2773 44.791 25.3242 44.4863 25.3242C44.1816 25.3008 43.8887 25.2539 43.6074 25.1836C43.3262 25.0898 43.0566 24.9844 42.7988 24.8672C42.4473 25.0078 42.1191 25.207 41.8145 25.4648L40.9707 26.2383C40.6895 26.4727 40.3848 26.6836 40.0566 26.8711C39.752 27.0586 39.3887 27.1406 38.9668 27.1172H38.6504C38.3926 27.3281 38.1113 27.5039 37.8066 27.6445L36.8926 28.0664C36.5879 28.207 36.3066 28.3828 36.0488 28.5938C35.7676 28.7812 35.5449 29.0273 35.3809 29.332V29.8945C35.3574 30.0586 35.3574 30.2227 35.3809 30.3867C35.3809 30.5508 35.416 30.7031 35.4863 30.8438C35.6973 30.8203 35.873 30.8672 36.0137 30.9844C36.1543 31.0781 36.2832 31.1953 36.4004 31.3359C36.541 31.4531 36.6816 31.582 36.8223 31.7227C36.9863 31.8398 37.1973 31.9219 37.4551 31.9688C37.5488 31.9453 37.6777 31.8867 37.8418 31.793C38.0059 31.6758 38.1699 31.5703 38.334 31.4766C38.5215 31.3594 38.6738 31.2539 38.791 31.1602C38.9316 31.0664 39.0254 31.0195 39.0723 31.0195C39.1191 31.0195 39.166 31.0312 39.2129 31.0547H39.3887C39.459 31.0547 39.5293 31.0312 39.5996 30.9844L39.8457 30.7383C39.9395 30.6445 40.0449 30.5625 40.1621 30.4922C40.3027 30.4219 40.4434 30.3867 40.584 30.3867L40.9004 30.4922C40.9473 30.6562 40.9824 30.832 41.0059 31.0195C41.0293 31.1836 41.041 31.3594 41.041 31.5469C41.0176 31.8984 40.9707 32.25 40.9004 32.6016C40.8301 32.9531 40.7832 33.3281 40.7598 33.7266C40.7129 33.9844 40.748 34.2539 40.8652 34.5352C40.748 34.6758 40.6543 34.8398 40.584 35.0273C40.5371 35.1914 40.502 35.3672 40.4785 35.5547C40.4551 35.9531 40.4902 36.3398 40.584 36.7148C40.7012 37.0898 40.748 37.4766 40.7246 37.875C40.7012 38.1328 40.6543 38.3906 40.584 38.6484C40.5371 38.9062 40.5137 39.1641 40.5137 39.4219C40.4668 39.8906 40.4902 40.3594 40.584 40.8281C40.7012 41.2734 40.748 41.7305 40.7246 42.1992C40.7246 42.5039 40.6777 42.7617 40.584 42.9727C40.9355 43.5352 41.1816 44.2148 41.3223 45.0117C41.4863 45.8086 41.6504 46.5352 41.8145 47.1914C42.0957 47.4023 42.3535 47.6602 42.5879 47.9648C42.8223 48.2461 43.0684 48.5273 43.3262 48.8086C43.584 49.0898 43.8652 49.3242 44.1699 49.5117C44.4746 49.7227 44.8262 49.8398 45.2246 49.8633C45.459 49.8633 45.7168 49.8281 45.998 49.7578C46.0449 49.2891 46.1738 48.8555 46.3848 48.457C46.5957 48.0586 46.7129 47.625 46.7363 47.1562C46.7832 47.0391 46.7832 46.9453 46.7363 46.875C46.666 46.8281 46.6191 46.7812 46.5957 46.7344C46.5723 46.6641 46.5371 46.5938 46.4902 46.5234C46.5137 46.4297 46.4668 46.3828 46.3496 46.3828H46.0684C46.0215 46.3828 45.9746 46.3711 45.9277 46.3477C45.8809 46.3242 45.8691 46.2891 45.8926 46.2422C45.5645 45.7266 45.2949 45.1875 45.084 44.625C44.8965 44.0391 44.7324 43.4414 44.5918 42.832C44.4512 42.2227 44.334 41.6133 44.2402 41.0039C44.1465 40.3711 44.041 39.7734 43.9238 39.2109C44.1113 38.5547 44.2285 37.8516 44.2754 37.1016C44.2988 36.4922 44.2988 35.8945 44.2754 35.3086C44.252 34.7227 44.252 34.125 44.2754 33.5156C44.2988 32.7891 44.4395 32.0508 44.6973 31.3008C44.7441 31.1836 44.7793 31.0781 44.8027 30.9844C44.8496 30.8906 44.8848 30.7852 44.9082 30.668C44.9316 30.6445 44.9434 30.6211 44.9434 30.5977C44.9434 30.5742 44.9551 30.5508 44.9785 30.5273C44.9785 30.3867 44.9434 30.2578 44.873 30.1406C44.8262 30 44.8027 29.8594 44.8027 29.7188C44.8027 29.6719 44.8262 29.6016 44.873 29.5078C45.5059 29.2031 46.1504 28.8984 46.8066 28.5938C47.4629 28.2656 48.166 28.1133 48.916 28.1367C49.0098 28.1367 49.0918 28.1484 49.1621 28.1719C49.2559 28.1953 49.3496 28.207 49.4434 28.207C49.9355 27.9258 50.4395 27.7383 50.9551 27.6445C51.4941 27.5273 52.0332 27.457 52.5723 27.4336L54.1895 27.293C54.752 27.2461 55.291 27.1406 55.8066 26.9766C56.3223 27.0234 56.8262 27.0352 57.3184 27.0117C57.834 26.9883 58.3262 26.9883 58.7949 27.0117C59.334 27.0586 59.8496 27.1406 60.3418 27.2578C60.8574 27.3516 61.3145 27.5625 61.7129 27.8906C61.5254 28.8281 61.127 29.6719 60.5176 30.4219C59.9082 31.1719 59.1934 31.793 58.373 32.2852C58.3262 32.4727 58.2441 32.6367 58.127 32.7773C58.0098 32.8945 57.8809 33.0117 57.7402 33.1289C57.5996 33.2227 57.459 33.3281 57.3184 33.4453C57.2012 33.5391 57.1074 33.668 57.0371 33.832C56.5918 34.0664 56.1699 34.3359 55.7715 34.6406C55.3965 34.9453 55.0098 35.2617 54.6113 35.5898C54.2363 35.8945 53.8496 36.1992 53.4512 36.5039C53.0762 36.8086 52.666 37.0664 52.2207 37.2773C51.8457 37.7695 51.4473 38.2383 51.0254 38.6836C50.6035 39.1289 50.1582 39.5508 49.6895 39.9492C49.5957 40.4883 49.502 41.0156 49.4082 41.5312C49.3145 42.0469 49.2324 42.5742 49.1621 43.1133C49.4199 43.2539 49.584 43.4648 49.6543 43.7461C49.7246 44.0273 49.8418 44.2852 50.0059 44.5195C50.2402 44.8711 50.5801 45.1758 51.0254 45.4336C51.4707 45.668 51.9512 45.8789 52.4668 46.0664C52.9824 46.2305 53.498 46.3594 54.0137 46.4531C54.5293 46.5469 54.9863 46.6055 55.3848 46.6289C55.9941 46.6523 56.5918 46.6289 57.1777 46.5586C57.7871 46.4883 58.3613 46.3242 58.9004 46.0664C58.9941 46.2305 59.1699 46.3242 59.4277 46.3477C59.709 46.3477 59.9434 46.3945 60.1309 46.4883C60.3652 46.3008 60.6113 46.1719 60.8691 46.1016C61.127 46.0312 61.3848 45.9844 61.6426 45.9609C61.9238 45.9141 62.1934 45.8672 62.4512 45.8203C62.7324 45.75 62.9902 45.6445 63.2246 45.5039C63.4355 45.5273 63.6465 45.5039 63.8574 45.4336C64.0684 45.3633 64.291 45.3281 64.5254 45.3281C64.6191 45.3281 64.7012 45.3633 64.7715 45.4336L64.9824 45.5742C65.6855 45.293 66.4355 45.082 67.2324 44.9414C68.0527 44.7773 68.8848 44.6484 69.7285 44.5547C70.4527 44.4541 71.1769 44.3708 71.9011 44.3047L71.9169 44.3261L71.9297 44.3438C72.3516 44.4141 72.7617 44.4844 73.1602 44.5547C73.582 44.6016 74.0039 44.625 74.4258 44.625C74.7539 44.625 75.082 44.6016 75.4102 44.5547C75.7383 44.4844 76.0547 44.3672 76.3594 44.2031C76.4531 44.2969 76.6055 44.3438 76.8164 44.3438H77.2383C77.6602 44.1562 78.0938 44.0156 78.5391 43.9219C78.9844 43.8281 79.4297 43.7578 79.875 43.7109C80.076 43.5267 80.286 43.3559 80.5049 43.1986ZM87.8203 26.9062C87.8438 27 87.8555 27.1055 87.8555 27.2227C87.8555 27.5273 87.7617 27.8086 87.5742 28.0664C87.5977 28.1836 87.6094 28.3125 87.6094 28.4531C87.6328 28.5938 87.6445 28.7227 87.6445 28.8398C87.6445 29.3789 87.5742 29.8945 87.4336 30.3867C87.3164 30.8789 87.1641 31.3594 86.9766 31.8281C86.7891 32.2969 86.6016 32.7773 86.4141 33.2695C86.2266 33.7383 86.0742 34.2305 85.957 34.7461C85.6992 35.0039 85.4531 35.2852 85.2188 35.5898C84.9844 35.8945 84.7734 36.1992 84.5859 36.5039C84.4922 36.6211 84.3984 36.75 84.3047 36.8906C84.2344 37.0312 84.1406 37.1602 84.0234 37.2773C83.9062 37.418 83.7539 37.5586 83.5664 37.6992C83.3789 37.8164 83.2148 37.9336 83.0742 38.0508C82.1367 38.7305 81.1406 39.3164 80.0859 39.8086C79.0547 40.2773 77.9766 40.6172 76.8516 40.8281C76.3594 40.6875 75.8438 40.6289 75.3047 40.6523C74.7891 40.6758 74.2969 40.5938 73.8281 40.4062C73.3594 40.2422 73.0195 39.9727 72.8086 39.5977C72.6211 39.2227 72.375 38.8711 72.0703 38.543C72.0469 38.4258 72.0352 38.3086 72.0352 38.1914V37.8398C72.0352 36.9961 72.1406 36.293 72.3516 35.7305C72.5859 35.1445 72.8555 34.6055 73.1602 34.1133C73.4883 33.6211 73.8281 33.1406 74.1797 32.6719C74.5547 32.1797 74.8945 31.6055 75.1992 30.9492C75.5273 30.6914 75.832 30.4102 76.1133 30.1055C76.418 29.8008 76.7227 29.5078 77.0273 29.2266C77.332 28.9219 77.6367 28.6406 77.9414 28.3828C78.2695 28.1016 78.6211 27.8672 78.9961 27.6797C79.1836 27.4453 79.4062 27.2695 79.6641 27.1523C79.9219 27.0117 80.1211 26.8125 80.2617 26.5547H80.8945C81.082 26.3203 81.3047 26.1211 81.5625 25.957C81.8438 25.793 82.125 25.6523 82.4062 25.5352C82.7109 25.418 83.0039 25.3008 83.2852 25.1836C83.5664 25.043 83.8125 24.8672 84.0234 24.6562C84.2344 24.75 84.375 24.9023 84.4453 25.1133C84.5391 25.3008 84.6211 25.4883 84.6914 25.6758C84.7852 25.7695 84.8906 25.8398 85.0078 25.8867C85.1484 25.9102 85.2773 25.957 85.3945 26.0273C85.5352 26.0742 85.6523 26.1328 85.7461 26.2031C85.8633 26.2734 85.9336 26.3906 85.957 26.5547C86.1211 26.4844 86.2852 26.4492 86.4492 26.4492C86.707 26.4492 86.9414 26.5078 87.1523 26.625C87.3633 26.7422 87.5859 26.8359 87.8203 26.9062ZM116.26 21.3516C116.26 21.3047 116.248 21.2578 116.225 21.2109V21.0352C116.107 20.8945 115.943 20.7891 115.732 20.7188C115.545 20.6484 115.334 20.5898 115.1 20.543C114.889 20.4961 114.666 20.4609 114.432 20.4375C114.221 20.3906 114.033 20.332 113.869 20.2617C113.377 20.4258 112.838 20.5078 112.252 20.5078C111.713 20.5078 111.232 20.4258 110.811 20.2617C110.6 20.4727 110.33 20.6367 110.002 20.7539C109.674 20.8711 109.322 20.9648 108.947 21.0352C108.596 21.082 108.232 21.1172 107.857 21.1406H106.908C106.814 21.1406 106.65 21.2109 106.416 21.3516C106.182 21.4922 105.971 21.5625 105.783 21.5625C105.643 21.5625 105.514 21.5039 105.396 21.3867C105.186 21.5508 104.893 21.6914 104.518 21.8086C104.143 21.9258 103.756 22.0312 103.357 22.125C102.959 22.1953 102.549 22.2773 102.127 22.3711C101.729 22.4648 101.389 22.5586 101.107 22.6523C100.826 23.2617 100.674 23.9297 100.65 24.6562C100.627 25.3594 100.615 26.0508 100.615 26.7305C100.615 27.1289 100.592 27.5156 100.545 27.8906C100.498 28.2656 100.475 28.6523 100.475 29.0508C100.475 29.2383 100.486 29.4375 100.51 29.6484C100.533 29.8359 100.604 30.0234 100.721 30.2109C100.533 30.3516 100.404 30.5391 100.334 30.7734C100.287 30.9844 100.264 31.1953 100.264 31.4062C100.264 31.6641 100.287 31.8984 100.334 32.1094C100.381 32.3203 100.428 32.5195 100.475 32.707C101.225 32.6367 101.904 32.4961 102.514 32.2852C103.146 32.0742 103.732 31.8164 104.271 31.5117C104.834 31.207 105.373 30.8555 105.889 30.457C106.404 30.0586 106.943 29.6367 107.506 29.1914C107.74 29.1445 107.928 29.0742 108.068 28.9805C108.232 28.8867 108.432 28.8398 108.666 28.8398C108.76 28.5117 108.936 28.2891 109.193 28.1719C109.451 28.0312 109.65 27.832 109.791 27.5742C110.072 27.5039 110.307 27.4102 110.494 27.293C110.705 27.1523 110.904 27.0234 111.092 26.9062C111.279 26.7656 111.479 26.6367 111.689 26.5195C111.924 26.4023 112.182 26.332 112.463 26.3086C112.861 25.8398 113.271 25.3711 113.693 24.9023C114.139 24.4336 114.654 24.0586 115.24 23.7773C115.334 23.543 115.439 23.3438 115.557 23.1797C115.674 22.9922 115.779 22.8164 115.873 22.6523C115.99 22.4648 116.084 22.2773 116.154 22.0898C116.225 21.8789 116.26 21.6328 116.26 21.3516Z" fill="#123053"/>
<path fill-rule="evenodd" clip-rule="evenodd" d="M91.7188 73.9922C91.9531 73.7812 92.1055 73.5117 92.1758 73.1836C91.9883 72.9961 91.8359 72.7969 91.7188 72.5859C91.6016 72.3516 91.4492 72.1289 91.2617 71.918C91.168 71.9883 91.0156 72.0234 90.8047 72.0234C90.5234 72.0234 90.2539 71.9648 89.9961 71.8477C89.7617 71.707 89.5039 71.6367 89.2227 71.6367C88.9648 71.6367 88.7188 71.7305 88.4844 71.918C88.1328 71.6836 87.793 71.4375 87.4648 71.1797C87.1602 70.8984 86.9141 70.5586 86.7266 70.1602C87.2422 69.9727 87.7695 69.8789 88.3086 69.8789C88.4961 69.8789 88.6367 69.8906 88.7305 69.9141C88.6367 69.7734 88.5898 69.6445 88.5898 69.5273C88.5898 69.3164 88.6836 69.1289 88.8711 68.9648C89.0586 68.8008 89.1523 68.5781 89.1523 68.2969C89.1523 68.1562 89.1055 67.9922 89.0117 67.8047C88.8711 67.7578 88.7305 67.7344 88.5898 67.7344H88.2383C88.0273 67.7344 87.7695 67.7461 87.4648 67.7695C87.1836 67.7695 86.8906 67.7578 86.5859 67.7344C86.2812 67.6875 86 67.6172 85.7422 67.5234C85.5078 67.4297 85.332 67.2656 85.2148 67.0312C84.8867 66.375 84.6406 65.6484 84.4766 64.8516C84.3359 64.0312 84.1719 63.2695 83.9844 62.5664C83.9141 62.2852 83.832 62.0039 83.7383 61.7227C83.668 61.4414 83.5742 61.1719 83.457 60.9141L83.2109 60.3516C83.0703 60.0469 83.0234 59.6953 83.0703 59.2969C83.1172 58.875 83.1172 58.5 83.0703 58.1719C83 57.75 82.8711 57.3398 82.6836 56.9414C82.4961 56.543 82.3672 56.1211 82.2969 55.6758C82.1797 54.9258 82.0039 54.1992 81.7695 53.4961C81.5586 52.7695 81.3594 52.0312 81.1719 51.2812C81.0547 50.8359 80.9727 50.3906 80.9258 49.9453C80.9023 49.4766 80.7383 49.0781 80.4336 48.75C79.8242 48.7031 79.332 48.6445 78.957 48.5742C78.582 48.4805 78.1484 48.2344 77.6562 47.8359C77.375 47.9531 77.1641 48.1523 77.0234 48.4336C76.8828 48.6914 76.6719 48.8789 76.3906 48.9961C76.3906 49.0195 76.3789 49.043 76.3555 49.0664C76.3555 49.1836 76.4023 49.2656 76.4961 49.3125C76.5898 49.3359 76.6367 49.4062 76.6367 49.5234V49.6289C76.3086 50.0039 76.0508 50.4375 75.8633 50.9297C75.6992 51.3984 75.5469 51.8789 75.4062 52.3711C75.2656 52.8398 75.1016 53.2969 74.9141 53.7422C74.75 54.1875 74.4922 54.5742 74.1406 54.9023C74.0938 55.1367 74.0469 55.4062 74 55.7109C73.9766 55.9922 73.8008 56.1445 73.4727 56.168C73.3789 56.8008 73.2266 57.375 73.0156 57.8906C72.8281 58.4062 72.6055 58.9102 72.3477 59.4023L71.5742 60.8086C71.3164 61.2773 71.082 61.793 70.8711 62.3555C70.707 62.3086 70.6016 62.3438 70.5547 62.4609C70.5312 62.5547 70.4609 62.6016 70.3438 62.6016C70.3438 62.8594 70.2969 63.082 70.2031 63.2695C70.1328 63.457 69.9688 63.5742 69.7109 63.6211C69.5 64.5586 69.043 65.4023 68.3398 66.1523V66.8906C67.8477 67.3359 67.4023 67.8398 67.0039 68.4023L65.8086 70.0898C65.4336 70.6289 65.0117 71.1445 64.543 71.6367C64.0742 72.1289 63.5234 72.5273 62.8906 72.832C62.8672 73.043 62.9258 73.1953 63.0664 73.2891C63.207 73.3594 63.2773 73.5 63.2773 73.7109C63.0195 73.8047 62.8203 73.957 62.6797 74.168C62.5391 74.3555 62.4336 74.5781 62.3633 74.8359C62.293 75.0703 62.2461 75.3281 62.2227 75.6094C62.1758 75.8672 62.1523 76.1133 62.1523 76.3477C62.4102 77.0742 62.8789 77.4375 63.5586 77.4375C63.8867 77.4375 64.2383 77.3555 64.6133 77.1914C64.9883 77.0273 65.3047 76.8398 65.5625 76.6289C65.5156 76.3242 65.5508 76.1016 65.668 75.9609C65.9258 75.8438 66.1367 75.6797 66.3008 75.4688C66.4883 75.2578 66.6641 75.0352 66.8281 74.8008C66.9922 74.5664 67.1562 74.3438 67.3203 74.1328C67.4844 73.9219 67.6953 73.7461 67.9531 73.6055C67.9531 73.2773 68.0469 73.0312 68.2344 72.8672C68.4219 72.7031 68.5391 72.4805 68.5859 72.1992C68.7266 72.2227 68.832 72.2109 68.9023 72.1641C68.9961 72.0938 69.0664 72.0234 69.1133 71.9531L69.2539 71.6719C69.3008 71.5547 69.3711 71.4727 69.4648 71.4258C69.6055 71.4258 69.7344 71.3906 69.8516 71.3203C70.3203 71.4375 70.7773 71.4961 71.2227 71.4961C71.5508 71.4961 71.8672 71.4844 72.1719 71.4609C72.5 71.4375 72.8281 71.4258 73.1562 71.4258H73.4727C73.6367 71.4258 73.707 71.3672 73.6836 71.25C73.6836 71.1328 73.7539 71.0742 73.8945 71.0742C74.082 71.168 74.2461 71.2148 74.3867 71.2148C74.6211 71.2148 74.832 71.1562 75.0195 71.0391C75.207 70.8984 75.418 70.7812 75.6523 70.6875C75.8164 70.7344 75.9688 70.7578 76.1094 70.7578H76.6016C77.1875 70.7578 77.7734 70.6992 78.3594 70.582C78.9453 70.4648 79.5078 70.3242 80.0469 70.1602C80.1875 70.2305 80.3164 70.3242 80.4336 70.4414C80.5508 70.5352 80.668 70.6172 80.7852 70.6875C80.9492 70.3359 81.2422 70.1602 81.6641 70.1602H81.9453C82.2266 70.4414 82.4727 70.7695 82.6836 71.1445C82.8945 71.5195 83.0938 71.8945 83.2812 72.2695C83.4688 72.6445 83.6562 73.0078 83.8438 73.3594C84.0547 73.6875 84.3008 73.9688 84.582 74.2031C84.793 74.3906 84.9453 74.4609 85.0391 74.4141C85.1562 74.3672 85.2969 74.3789 85.4609 74.4492C85.5781 74.4961 85.6602 74.5547 85.707 74.625C85.7773 74.6953 85.8359 74.7656 85.8828 74.8359L86.0938 74.9766C86.1875 75.0234 86.3281 75.0469 86.5156 75.0469C86.6562 75.0469 86.7969 75.0352 86.9375 75.0117C87.1016 74.9883 87.2656 74.9766 87.4297 74.9766C87.5469 74.9766 87.6641 74.9883 87.7812 75.0117C87.8984 75.0352 88.0156 75.0703 88.1328 75.1172C88.25 75.0703 88.3086 74.9883 88.3086 74.8711C88.3086 74.7539 88.3672 74.6953 88.4844 74.6953C88.6016 74.6953 88.707 74.707 88.8008 74.7305H89.1523C89.4102 74.7305 89.6914 74.7188 89.9961 74.6953C90.3242 74.6484 90.6406 74.5664 90.9453 74.4492C91.25 74.332 91.5078 74.1797 91.7188 73.9922ZM80.9258 66.7148C81.043 66.8789 81.125 67.1602 81.1719 67.5586C81.0781 67.6523 81.0195 67.7578 80.9961 67.875C80.9727 67.9688 80.9023 68.0625 80.7852 68.1562C80.5508 68.1797 80.375 68.1445 80.2578 68.0508C80.1406 67.9336 79.9766 67.8516 79.7656 67.8047C79.5078 67.875 79.2383 67.9336 78.957 67.9805C78.6992 68.0273 78.4297 68.0508 78.1484 68.0508C77.6094 68.0508 77.1055 67.9688 76.6367 67.8047C76.4023 67.9688 76.0977 68.0742 75.7227 68.1211C75.3711 68.1445 75.043 68.2031 74.7383 68.2969C74.5508 68.1094 74.3398 67.9922 74.1055 67.9453C73.8711 67.8984 73.625 67.875 73.3672 67.875H72.5586C72.3008 67.8516 72.0664 67.7812 71.8555 67.6641C71.8555 67.3359 71.9023 67.0078 71.9961 66.6797C72.1133 66.3516 72.3242 66.082 72.6289 65.8711C72.8398 65.1445 73.1211 64.4531 73.4727 63.7969C73.8242 63.1172 74.1875 62.4492 74.5625 61.793C74.9609 61.1367 75.3359 60.4805 75.6875 59.8242C76.0391 59.1445 76.3086 58.4297 76.4961 57.6797C76.7305 57.5391 76.8945 57.3516 76.9883 57.1172C77.1055 56.8594 77.2812 56.6719 77.5156 56.5547C77.5156 56.3906 77.4922 56.2383 77.4453 56.0977C77.4219 55.957 77.4102 55.8047 77.4102 55.6406C77.4102 55.4531 77.4453 55.2891 77.5156 55.1484C77.7969 55.3359 77.9961 55.582 78.1133 55.8867C78.2539 56.168 78.3594 56.4844 78.4297 56.8359C78.5234 57.1641 78.6172 57.5039 78.7109 57.8555C78.8047 58.1836 78.957 58.4648 79.168 58.6992V58.8047C79.168 58.9219 79.1211 59.0508 79.0273 59.1914C79.332 59.9414 79.5781 60.7148 79.7656 61.5117C79.9766 62.3086 80.1641 63.1055 80.3281 63.9023C80.3984 64.2539 80.4453 64.6172 80.4688 64.9922C80.5156 65.3672 80.5859 65.7188 80.6797 66.0469C80.75 66.3047 80.832 66.5273 80.9258 66.7148Z" fill="#123053"/>
<path d="M62.8418 63.8086C62.6074 63.832 62.3965 63.8906 62.209 63.9844C62.0449 64.0781 61.8691 64.1484 61.6816 64.1953C61.7051 64.2188 61.7168 64.2539 61.7168 64.3008C61.7168 64.4414 61.6816 64.5469 61.6113 64.6172C61.541 64.6641 61.5293 64.7812 61.5762 64.9688C61.2246 65.1562 60.8613 65.2969 60.4863 65.3906C60.1113 65.4844 59.7246 65.5664 59.3262 65.6367C58.9512 65.707 58.5762 65.7891 58.2012 65.8828C57.8262 65.9766 57.4746 66.1289 57.1465 66.3398V65.9531C56.8652 66.1172 56.5957 66.1992 56.3379 66.1992C56.1035 66.1992 55.8809 66.1641 55.6699 66.0938C55.459 66 55.2246 65.9531 54.9668 65.9531C54.8496 65.9531 54.6973 66 54.5098 66.0938C54.2754 66.0703 54.0879 66.0117 53.9473 65.918C53.8301 65.8008 53.6777 65.6836 53.4902 65.5664C53.373 65.8008 53.1973 65.9531 52.9629 66.0234C52.752 66.0703 52.5527 66.0938 52.3652 66.0938C52.1074 66.0938 51.8613 66.082 51.627 66.0586C51.416 66.0352 51.2051 66 50.9941 65.9531C50.6191 66.0703 50.2676 66.1406 49.9395 66.1641H48.8848C48.5566 66.1641 48.2402 66.1875 47.9355 66.2344C47.6543 66.2578 47.3613 66.3398 47.0566 66.4805C46.9629 66.2461 46.7637 66.1289 46.459 66.1289C46.3184 66.1289 46.166 66.1406 46.002 66.1641H45.5801C45.3457 66.1641 45.1699 66.0938 45.0527 65.9531C44.959 66 44.9121 66.082 44.9121 66.1992C44.9355 66.3164 44.9355 66.4102 44.9121 66.4805C44.5605 66.3398 44.1855 66.2695 43.7871 66.2695C43.459 66.2695 43.1426 66.3047 42.8379 66.375C42.5332 66.4453 42.2285 66.4805 41.9238 66.4805C41.7598 66.4805 41.5957 66.457 41.4316 66.4102C41.2676 66.3633 41.127 66.3398 41.0098 66.3398C40.8691 66.3398 40.7637 66.375 40.6934 66.4453C40.623 66.4922 40.5527 66.5508 40.4824 66.6211C40.4355 66.668 40.3652 66.7266 40.2715 66.7969C40.2012 66.8438 40.0957 66.8672 39.9551 66.8672C39.6973 66.8672 39.5215 66.7969 39.4277 66.6562C39.334 66.4922 39.1934 66.3867 39.0059 66.3398C39.0059 66.1055 38.9707 65.8945 38.9004 65.707C38.8301 65.5195 38.748 65.332 38.6543 65.1445C38.5605 64.9336 38.4785 64.7344 38.4082 64.5469C38.3379 64.3594 38.3027 64.1484 38.3027 63.9141V63.7031C38.3262 63.6094 38.3379 63.5273 38.3379 63.457C38.666 62.9883 39.1348 62.6602 39.7441 62.4727C40.377 62.2617 40.9512 62.1562 41.4668 62.1562C41.7246 62.1562 41.9121 62.2031 42.0293 62.2969C42.1699 62.3906 42.334 62.5195 42.5215 62.6836C44.1621 62.4961 45.8027 62.3672 47.4434 62.2969C49.1074 62.2266 50.7598 62.1445 52.4004 62.0508C52.9395 62.0039 53.4785 61.9688 54.0176 61.9453L55.6348 61.8047C55.7051 61.8047 55.752 61.7812 55.7754 61.7344C55.7988 61.6641 55.8105 61.5938 55.8105 61.5234C55.834 61.4531 55.8574 61.3945 55.8809 61.3477C55.9277 61.3008 55.998 61.2773 56.0918 61.2773C56.3496 61.2773 56.5254 61.3594 56.6191 61.5234C56.7129 61.6641 56.8535 61.7578 57.041 61.8047C57.2051 61.7109 57.3926 61.6406 57.6035 61.5938C57.8379 61.5469 58.0605 61.5117 58.2715 61.4883C58.4824 61.4414 58.6816 61.3945 58.8691 61.3477C59.0801 61.2773 59.2559 61.1719 59.3965 61.0312C59.584 61.0078 59.6895 61.0547 59.7129 61.1719C59.7363 61.2656 59.8066 61.3359 59.9238 61.3828C60.041 61.3594 60.1699 61.3359 60.3105 61.3125C60.4512 61.2656 60.5801 61.2422 60.6973 61.2422H60.9434C61.0371 61.2422 61.1191 61.2539 61.1895 61.2773C61.4004 61.7461 61.6699 62.168 61.998 62.543C62.3496 62.918 62.6309 63.3398 62.8418 63.8086Z" fill="#123053"/>
<path d="M115.689 47.6953C115.823 47.6775 115.952 47.6597 116.075 47.6418C116.067 47.5677 116.062 47.4957 116.062 47.4258V46.8984C116.062 46.6406 116.074 46.3711 116.098 46.0898C116.121 45.8086 116.18 45.5273 116.273 45.2461C116.508 45.1055 116.754 45.0352 117.012 45.0352C117.316 45.0352 117.609 45.082 117.891 45.1758C118.195 45.2461 118.488 45.3047 118.77 45.3516C118.98 45.5625 119.133 45.7969 119.227 46.0547C119.344 46.3125 119.414 46.582 119.438 46.8633C119.461 47.1211 119.461 47.3906 119.438 47.6719V48.4453C119.438 48.5156 119.439 48.5856 119.441 48.6554C119.534 48.6482 119.619 48.6445 119.697 48.6445H119.803C119.732 48.8738 119.628 49.0898 119.492 49.2925C119.521 49.5163 119.561 49.7378 119.613 49.957C119.73 50.4492 119.789 50.9297 119.789 51.3984C119.789 51.5156 119.742 51.6094 119.648 51.6797C119.578 51.7266 119.543 51.8789 119.543 52.1367C119.543 52.3945 119.566 52.6641 119.613 52.9453C119.66 53.2266 119.684 53.5078 119.684 53.7891C119.684 54.1172 119.637 54.457 119.543 54.8086C119.449 55.1602 119.367 55.5 119.297 55.8281C120.703 55.7109 122.145 55.5352 123.621 55.3008C125.098 55.0664 126.504 54.6914 127.84 54.1758C127.863 54.1289 127.875 54.0586 127.875 53.9648C127.875 53.8242 127.863 53.6836 127.84 53.543C127.816 53.4023 127.805 53.25 127.805 53.0859C127.805 52.8047 127.898 52.582 128.086 52.418C127.969 51.7617 127.887 51.1055 127.84 50.4492C127.793 49.793 127.77 49.1367 127.77 48.4805V46.4766C127.77 45.8203 127.758 45.1641 127.734 44.5078C127.922 44.3906 128.121 44.332 128.332 44.332C128.59 44.332 128.824 44.4023 129.035 44.543C129.27 44.6602 129.539 44.7188 129.844 44.7188C130.055 44.7188 130.23 44.6836 130.371 44.6133C130.629 44.8477 130.805 45.1523 130.898 45.5273C130.992 45.9023 131.074 46.2891 131.145 46.6875L131.355 47.8828C131.449 48.2578 131.625 48.5625 131.883 48.7969L131.918 48.9023C131.918 48.9961 131.871 49.0664 131.777 49.1133C131.684 49.1602 131.637 49.2539 131.637 49.3945V49.5352C131.73 49.9102 131.801 50.2969 131.848 50.6953C131.895 51.0938 131.93 51.5039 131.953 51.9258C132 52.3242 132.059 52.7227 132.129 53.1211C132.199 53.4961 132.328 53.8477 132.516 54.1758C132.633 54.1523 132.785 54.1406 132.973 54.1406C133.441 54.1406 133.805 54.3047 134.062 54.6328C134.344 54.9375 134.59 55.2539 134.801 55.582C134.707 55.8164 134.613 56.0391 134.52 56.25C134.426 56.4609 134.355 56.6953 134.309 56.9531C134.145 57.0703 133.957 57.1641 133.746 57.2344C133.559 57.2812 133.359 57.3398 133.148 57.4102C132.938 57.457 132.738 57.5273 132.551 57.6211C132.387 57.6914 132.258 57.8086 132.164 57.9727C132.094 58.3242 132.059 58.6523 132.059 58.957C132.059 59.3555 132.129 59.6953 132.27 59.9766C132.199 60.1875 132.152 60.4102 132.129 60.6445C132.105 60.8789 132.094 61.1016 132.094 61.3125C132.094 62.0859 132.188 62.8594 132.375 63.6328C132.562 64.3828 132.668 65.1445 132.691 65.918C132.691 66.0352 132.68 66.1641 132.656 66.3047C132.633 66.4453 132.621 66.5742 132.621 66.6914C132.621 67.1836 132.809 67.5117 133.184 67.6758C133.113 67.793 133.078 67.8984 133.078 67.9922C133.078 68.1797 133.102 68.3438 133.148 68.4844C133.195 68.625 133.207 68.7773 133.184 68.9414C133.301 69.1758 133.418 69.3867 133.535 69.5742C133.652 69.7383 133.734 69.9492 133.781 70.207C133.617 70.5352 133.418 70.8398 133.184 71.1211C132.949 71.3789 132.785 71.707 132.691 72.1055C132.598 72.082 132.492 72.0703 132.375 72.0703C132.211 72.0703 132.082 72.1055 131.988 72.1758C131.895 72.2461 131.812 72.3281 131.742 72.4219C131.695 72.5391 131.637 72.6445 131.566 72.7383C131.496 72.8555 131.402 72.9375 131.285 72.9844H131.18C131.062 73.0078 130.957 72.9961 130.863 72.9492C130.793 72.9258 130.723 72.9141 130.652 72.9141C130.605 72.9141 130.512 72.9375 130.371 72.9844C130.184 72.75 130.055 72.4688 129.984 72.1406C129.914 71.8359 129.879 71.5312 129.879 71.2266C129.879 70.8984 129.926 70.6055 130.02 70.3477C129.762 70.1367 129.598 69.8203 129.527 69.3984C129.48 68.9766 129.422 68.625 129.352 68.3438C129.164 67.4766 128.941 66.6328 128.684 65.8125C128.449 64.9922 128.309 64.1484 128.262 63.2812C128.238 62.9531 128.227 62.6367 128.227 62.332V60.5039C128.227 60.1992 128.238 59.9062 128.262 59.625C128.262 59.4141 128.273 59.2148 128.297 59.0273C128.344 58.8164 128.367 58.6055 128.367 58.3945C128.367 58.1133 128.273 57.8438 128.086 57.5859C126.422 57.6562 124.84 57.9609 123.34 58.5C121.863 59.0156 120.387 59.6367 118.91 60.3633C118.816 60.9023 118.758 61.4297 118.734 61.9453C118.711 62.4609 118.699 62.9883 118.699 63.5273V65.0742C118.699 65.6602 118.723 66.1523 118.77 66.5508C118.887 67.2305 119.227 67.7578 119.789 68.1328C120.375 68.4844 120.961 68.7539 121.547 68.9414C121.523 69.293 121.453 69.5977 121.336 69.8555C121.219 70.0898 121.066 70.3125 120.879 70.5234C120.715 70.7109 120.527 70.8984 120.316 71.0859C120.105 71.2734 119.895 71.4844 119.684 71.7188C119.496 71.6016 119.309 71.5195 119.121 71.4727C118.934 71.4258 118.734 71.4023 118.523 71.4023L117.891 71.332C117.68 71.3086 117.469 71.2617 117.258 71.1914L116.484 70.1367C116.227 69.7852 115.945 69.4336 115.641 69.082V68.7656C115.641 68.1328 115.523 67.5234 115.289 66.9375C115.055 66.3516 114.879 65.7539 114.762 65.1445C114.832 64.9336 114.879 64.7227 114.902 64.5117C114.926 64.3008 114.938 64.0781 114.938 63.8438C114.938 63.375 114.914 62.918 114.867 62.4727C114.844 62.0273 114.855 61.582 114.902 61.1367H114.727C114.516 61.1367 114.293 61.1953 114.059 61.3125C113.824 61.4062 113.59 61.5234 113.355 61.6641L112.723 62.0156C112.535 62.1094 112.371 62.1562 112.23 62.1562C112.16 62.1562 112.09 62.1445 112.02 62.1211C111.949 62.0977 111.867 62.0859 111.773 62.0859C111.656 62.0859 111.516 62.1328 111.352 62.2266C111.188 62.3203 111.012 62.4258 110.824 62.543L110.191 62.8242C109.98 62.918 109.77 62.9648 109.559 62.9648C109.23 62.9648 108.902 62.8242 108.574 62.543C108.527 62.3555 108.516 62.1797 108.539 62.0156V61.4883C108.539 61.3008 108.504 61.1016 108.434 60.8906C108.598 60.5859 108.82 60.3516 109.102 60.1875C109.359 60 109.641 59.8359 109.945 59.6953C110.227 59.5312 110.52 59.3789 110.824 59.2383C111.129 59.0742 111.387 58.8633 111.598 58.6055H111.809C112.137 58.6055 112.43 58.5352 112.688 58.3945C112.969 58.2539 113.285 58.1953 113.637 58.2188C113.754 58.1719 113.836 57.9961 113.883 57.6914L114.023 57.7266C114.539 57.7266 114.996 57.5508 115.395 57.1992C115.652 55.7461 115.863 54.2812 116.027 52.8047C116.043 52.666 116.057 52.5274 116.071 52.3888C116.041 52.3211 116.007 52.2566 115.971 52.1953C115.9 52.0547 115.795 51.9609 115.654 51.9141C115.092 52.0312 114.529 52.125 113.967 52.1953C113.404 52.2422 112.842 52.3125 112.279 52.4062C112.021 52.4531 111.764 52.5234 111.506 52.6172C111.248 52.6875 110.979 52.7578 110.697 52.8281C110.557 52.875 110.404 52.8984 110.24 52.8984C110.076 52.875 109.912 52.875 109.748 52.8984C109.186 52.9219 108.576 52.9688 107.92 53.0391C107.264 53.0859 106.678 53.2617 106.162 53.5664C105.928 53.5195 105.682 53.4844 105.424 53.4609C105.166 53.4375 104.908 53.4258 104.65 53.4258C104.088 53.4258 103.467 53.4844 102.787 53.6016C102.131 53.6953 101.545 53.8945 101.029 54.1992C100.912 54.1523 100.783 54.1172 100.643 54.0938C100.525 54.0703 100.385 54.0586 100.221 54.0586C100.174 54.0586 100.139 54.0703 100.115 54.0938H100.01C99.9863 54.3047 100.01 54.5156 100.08 54.7266C100.174 54.9141 100.326 55.0664 100.537 55.1836C100.443 55.4414 100.396 55.7227 100.396 56.0273C100.396 56.4258 100.42 56.8242 100.467 57.2227C100.537 57.6211 100.572 58.0195 100.572 58.418C100.572 58.8633 100.514 59.2148 100.396 59.4727C100.631 60.1758 100.748 60.9258 100.748 61.7227C100.748 62.0039 100.725 62.2852 100.678 62.5664C100.654 62.8242 100.643 63.1055 100.643 63.4102C100.643 63.668 100.736 63.8789 100.924 64.043C101.111 64.1836 101.205 64.3828 101.205 64.6406C101.205 64.7344 101.182 64.8281 101.135 64.9219C101.463 64.8516 101.779 64.7578 102.084 64.6406C102.389 64.5 102.705 64.4297 103.033 64.4297C103.221 64.4297 103.396 64.4648 103.561 64.5352C103.748 64.6055 103.912 64.6992 104.053 64.8164C104.029 64.9336 104.006 65.0625 103.982 65.2031V66.3633C104.006 66.5742 104.029 66.8086 104.053 67.0664C103.865 67.3945 103.643 67.6875 103.385 67.9453C103.15 68.2031 102.986 68.5312 102.893 68.9297C102.541 68.9297 102.225 69.0117 101.943 69.1758C101.686 69.3164 101.439 69.4805 101.205 69.668L100.502 70.1602C100.268 70.3008 100.01 70.3711 99.7285 70.3711C99.377 70.3711 99.1309 70.3242 98.9902 70.2305C98.8496 70.1133 98.7441 69.9961 98.6738 69.8789C98.6035 69.7617 98.5332 69.6562 98.4629 69.5625C98.416 69.4688 98.2988 69.4336 98.1113 69.457C98.0645 69.1523 97.9707 68.8711 97.8301 68.6133C97.6895 68.332 97.5371 68.0625 97.373 67.8047C97.2324 67.5469 97.0801 67.2891 96.916 67.0312C96.7754 66.75 96.6699 66.4688 96.5996 66.1875C96.459 65.5781 96.4004 64.9453 96.4238 64.2891C96.4473 63.6328 96.3418 63 96.1074 62.3906C96.1543 62.0625 96.1895 61.7344 96.2129 61.4062C96.2363 61.0547 96.248 60.7148 96.248 60.3867C96.248 59.7305 96.2246 59.0859 96.1777 58.4531C96.1543 57.7969 96.1309 57.1289 96.1074 56.4492C95.9434 56.2383 95.8379 56.0039 95.791 55.7461C95.7676 55.4648 95.7441 55.1953 95.7207 54.9375C95.6504 54.8672 95.5684 54.7969 95.4746 54.7266C95.4043 54.6562 95.3574 54.5625 95.334 54.4453C95.1465 54.3984 95.0059 54.375 94.9121 54.375C94.584 54.375 94.3027 54.457 94.0684 54.6211C93.8574 54.7617 93.6582 54.832 93.4707 54.832C93.2832 54.832 93.1074 54.8086 92.9434 54.7617C92.7793 54.7148 92.6152 54.6914 92.4512 54.6914C92.3105 54.6914 92.2285 54.7266 92.2051 54.7969C92.2051 54.8438 92.1582 54.8906 92.0645 54.9375C91.9941 54.9844 91.8301 55.0312 91.5723 55.0781C91.3145 55.125 91.0215 55.1719 90.6934 55.2188L89.7793 55.2891C89.498 55.3125 89.3105 55.3242 89.2168 55.3242C88.8418 55.3242 88.5605 55.2539 88.373 55.1133C88.1621 54.9492 87.916 54.7734 87.6348 54.5859C87.6816 54.4453 87.7051 54.3516 87.7051 54.3047C87.7051 54.0703 87.6348 53.8828 87.4941 53.7422C87.3535 53.5781 87.2832 53.4375 87.2832 53.3203C87.2832 53.0625 87.3887 52.8633 87.5996 52.7227C87.7871 52.582 87.8926 52.3594 87.916 52.0547C88.4551 51.8203 89.0059 51.6445 89.5684 51.5273C90.1309 51.4102 90.7051 51.3164 91.291 51.2461C91.877 51.1758 92.4512 51.0938 93.0137 51C93.5996 50.9062 94.1738 50.7539 94.7363 50.543C94.9004 50.5664 95.0527 50.5898 95.1934 50.6133H95.6855C96.3887 50.6133 97.0801 50.543 97.7598 50.4023C98.4629 50.2383 99.1777 50.1562 99.9043 50.1562C100.092 50.1562 100.279 50.168 100.467 50.1914C100.654 50.2148 100.842 50.25 101.029 50.2969C101.967 50.1562 102.893 50.0039 103.807 49.8398C104.744 49.6758 105.705 49.5352 106.689 49.418C107.158 49.3711 107.615 49.3359 108.061 49.3125C108.529 49.2656 108.998 49.207 109.467 49.1367C109.631 49.1133 109.748 49.0781 109.818 49.0312C109.912 48.9609 109.959 48.832 109.959 48.6445C110.17 48.7383 110.404 48.7852 110.662 48.7852C111.061 48.7852 111.447 48.7148 111.822 48.5742C112.197 48.4336 112.584 48.3633 112.982 48.3633C113.076 48.3633 113.158 48.375 113.229 48.3984H113.439C113.604 48.3984 113.686 48.3281 113.686 48.1875C113.709 48.0234 113.826 47.918 114.037 47.8711C114.201 47.8242 114.436 47.7891 114.74 47.7656C115.045 47.7422 115.361 47.7188 115.689 47.6953Z" fill="#123053"/>
<path fill-rule="evenodd" clip-rule="evenodd" d="M160.875 50.8477C160.898 50.5898 160.98 50.3555 161.121 50.1445C161.074 49.7461 160.957 49.4062 160.77 49.125C160.605 48.8203 160.418 48.5508 160.207 48.3164L159.574 47.543C159.387 47.2852 159.223 46.9805 159.082 46.6289C158.473 46.3711 157.969 45.9961 157.57 45.5039L157.289 45.5742H157.008C156.586 45.5742 156.176 45.5039 155.777 45.3633C155.379 45.1992 154.969 45.1172 154.547 45.1172C154.406 45.1172 154.277 45.1289 154.16 45.1523C154.043 45.1758 153.914 45.2109 153.773 45.2578C153.375 45.3516 153 45.4453 152.648 45.5391C152.32 45.6094 151.969 45.75 151.594 45.9609C150.914 46.2891 150.27 46.6641 149.66 47.0859C149.051 47.5078 148.371 47.8242 147.621 48.0352C147.527 48.2227 147.398 48.3867 147.234 48.5273C147.07 48.668 146.953 48.8438 146.883 49.0547C145.992 49.5234 145.195 50.1094 144.492 50.8125C143.812 51.5156 143.051 52.1367 142.207 52.6758C142.23 52.8164 142.219 52.9453 142.172 53.0625C142.125 53.1562 142.008 53.2031 141.82 53.2031C141.75 53.2031 141.703 53.1914 141.68 53.168C141.727 53.3555 141.715 53.4961 141.645 53.5898C141.598 53.6836 141.574 53.8008 141.574 53.9414C140.684 54.8555 139.887 55.8164 139.184 56.8242C138.504 57.8086 137.953 58.9102 137.531 60.1289C137.555 60.5039 137.508 60.8555 137.391 61.1836C137.273 61.4883 137.191 61.8047 137.145 62.1328C137.473 63.2344 137.789 64.2305 138.094 65.1211C138.398 65.9883 138.891 66.8906 139.57 67.8281C139.898 67.9922 140.273 68.168 140.695 68.3555C141.117 68.5195 141.445 68.7656 141.68 69.0938C142.102 69.1641 142.512 69.2344 142.91 69.3047C143.332 69.3516 143.754 69.375 144.176 69.375C144.504 69.375 144.832 69.3516 145.16 69.3047C145.488 69.2344 145.805 69.1172 146.109 68.9531C146.203 69.0469 146.355 69.0938 146.566 69.0938H146.988C147.41 68.9062 147.844 68.7656 148.289 68.6719C148.734 68.5781 149.18 68.5078 149.625 68.4609C150.188 67.9453 150.82 67.5352 151.523 67.2305C152.227 66.9258 152.941 66.6562 153.668 66.4219C154.043 66.0469 154.43 65.707 154.828 65.4023C155.25 65.0977 155.707 64.8516 156.199 64.6641C156.715 63.9609 157.242 63.2812 157.781 62.625C158.32 61.9453 158.754 61.1953 159.082 60.375C159.059 60.0469 159.07 59.7656 159.117 59.5312C159.164 59.2734 159.234 59.0391 159.328 58.8281L159.609 58.125C159.727 57.8906 159.844 57.6328 159.961 57.3516V57.2812C159.961 56.4141 160.125 55.5469 160.453 54.6797C160.5 54.5156 160.57 54.3516 160.664 54.1875C160.758 54.0234 160.828 53.8594 160.875 53.6953V53.168C160.875 52.9102 160.863 52.6523 160.84 52.3945V51.5508C160.84 51.3398 160.852 51.1055 160.875 50.8477ZM157.57 51.6562C157.594 51.75 157.605 51.8555 157.605 51.9727C157.605 52.2773 157.512 52.5586 157.324 52.8164C157.348 52.9336 157.359 53.0625 157.359 53.2031C157.383 53.3438 157.395 53.4727 157.395 53.5898C157.395 54.1289 157.324 54.6445 157.184 55.1367C157.066 55.6289 156.914 56.1094 156.727 56.5781C156.539 57.0469 156.352 57.5273 156.164 58.0195C155.977 58.4883 155.824 58.9805 155.707 59.4961C155.449 59.7539 155.203 60.0352 154.969 60.3398C154.734 60.6445 154.523 60.9492 154.336 61.2539C154.242 61.3711 154.148 61.5 154.055 61.6406C153.984 61.7812 153.891 61.9102 153.773 62.0273C153.656 62.168 153.504 62.3086 153.316 62.4492C153.129 62.5664 152.965 62.6836 152.824 62.8008C151.887 63.4805 150.891 64.0664 149.836 64.5586C148.805 65.0273 147.727 65.3672 146.602 65.5781C146.109 65.4375 145.594 65.3789 145.055 65.4023C144.539 65.4258 144.047 65.3438 143.578 65.1562C143.109 64.9922 142.77 64.7227 142.559 64.3477C142.371 63.9727 142.125 63.6211 141.82 63.293C141.797 63.1758 141.785 63.0586 141.785 62.9414V62.5898C141.785 61.7461 141.891 61.043 142.102 60.4805C142.336 59.8945 142.605 59.3555 142.91 58.8633C143.238 58.3711 143.578 57.8906 143.93 57.4219C144.305 56.9297 144.645 56.3555 144.949 55.6992C145.277 55.4414 145.582 55.1602 145.863 54.8555C146.168 54.5508 146.473 54.2578 146.777 53.9766C147.082 53.6719 147.387 53.3906 147.691 53.1328C148.02 52.8516 148.371 52.6172 148.746 52.4297C148.934 52.1953 149.156 52.0195 149.414 51.9023C149.672 51.7617 149.871 51.5625 150.012 51.3047H150.645C150.832 51.0703 151.055 50.8711 151.312 50.707C151.594 50.543 151.875 50.4023 152.156 50.2852C152.461 50.168 152.754 50.0508 153.035 49.9336C153.316 49.793 153.562 49.6172 153.773 49.4062C153.984 49.5 154.125 49.6523 154.195 49.8633C154.289 50.0508 154.371 50.2383 154.441 50.4258C154.535 50.5195 154.641 50.5898 154.758 50.6367C154.898 50.6602 155.027 50.707 155.145 50.7773C155.285 50.8242 155.402 50.8828 155.496 50.9531C155.613 51.0234 155.684 51.1406 155.707 51.3047C155.871 51.2344 156.035 51.1992 156.199 51.1992C156.457 51.1992 156.691 51.2578 156.902 51.375C157.113 51.4922 157.336 51.5859 157.57 51.6562Z" fill="#123053"/>
<path d="M186.766 46.6523C186.719 46.9336 186.648 47.1797 186.555 47.3906C186.484 47.5781 186.473 47.8359 186.52 48.1641C186.285 48.1875 186.098 48.2695 185.957 48.4102C185.84 48.5273 185.734 48.668 185.641 48.832C185.57 48.9961 185.488 49.1719 185.395 49.3594C185.324 49.5234 185.23 49.6758 185.113 49.8164C185.301 50.6602 185.406 51.5156 185.43 52.3828C185.453 53.25 185.512 54.1055 185.605 54.9492C185.723 56.0273 185.898 57.0938 186.133 58.1484C186.391 59.1797 186.52 60.2344 186.52 61.3125C186.52 61.6406 186.508 61.9453 186.484 62.2266V63.7031C186.508 63.8906 186.52 64.0781 186.52 64.2656C186.52 64.9453 186.426 65.625 186.238 66.3047C186.074 66.9844 185.945 67.6641 185.852 68.3438C185.57 68.6016 185.324 68.8828 185.113 69.1875C184.926 69.4922 184.727 69.7734 184.516 70.0312C184.305 70.2891 184.059 70.5117 183.777 70.6992C183.496 70.9102 183.145 71.0508 182.723 71.1211C182.652 71.3555 182.512 71.5312 182.301 71.6484C182.113 71.7656 181.949 71.9297 181.809 72.1406H181.738C181.152 72.1406 180.648 72.0586 180.227 71.8945C179.805 71.7305 179.406 71.543 179.031 71.332C178.68 71.1211 178.316 70.8984 177.941 70.6641C177.566 70.4297 177.133 70.2422 176.641 70.1016C175.984 69.5625 175.387 68.9766 174.848 68.3438C174.309 67.6875 173.699 67.1016 173.02 66.5859C172.855 66.1172 172.633 65.7305 172.352 65.4258C172.094 65.1211 171.836 64.7695 171.578 64.3711C171.461 64.207 171.367 64.0547 171.297 63.9141C171.25 63.7734 171.18 63.6094 171.086 63.4219C171.016 63.2344 170.898 63.1055 170.734 63.0352C170.594 62.9648 170.465 62.8828 170.348 62.7891C170.16 62.0625 169.891 61.3945 169.539 60.7852C169.188 60.1758 168.777 59.5898 168.309 59.0273C168.168 59.2852 168.051 59.5664 167.957 59.8711C167.887 60.1523 167.816 60.4453 167.746 60.75C167.676 61.0312 167.582 61.3242 167.465 61.6289C167.371 61.9102 167.242 62.168 167.078 62.4023V62.5078C167.078 62.625 167.125 62.6953 167.219 62.7188C167.312 62.7422 167.359 62.8125 167.359 62.9297C167.359 62.9531 167.348 62.9766 167.324 63V63.0703C167.207 63.1641 167.113 63.2812 167.043 63.4219C166.996 63.5625 166.879 63.6445 166.691 63.668C166.715 63.7852 166.727 63.9023 166.727 64.0195V64.3359C166.727 65.0156 166.645 65.6953 166.48 66.375C166.34 67.0547 166.27 67.7461 166.27 68.4492V68.9062C166.27 69.0703 166.281 69.2227 166.305 69.3633C166.352 69.5039 166.422 69.6445 166.516 69.7852C166.609 69.9258 166.656 70.0547 166.656 70.1719C166.656 70.3359 166.586 70.4883 166.445 70.6289C166.609 70.7461 166.797 70.875 167.008 71.0156C167.219 71.1562 167.406 71.3086 167.57 71.4727C167.758 71.6602 167.91 71.8477 168.027 72.0352C168.145 72.2461 168.203 72.4688 168.203 72.7031C168.203 73.1016 168.074 73.3828 167.816 73.5469C167.559 73.7109 167.242 73.8398 166.867 73.9336C166.516 74.0273 166.141 74.1094 165.742 74.1797C165.367 74.2734 165.051 74.4258 164.793 74.6367H164.688C164.406 74.6367 164.195 74.5547 164.055 74.3906C163.914 74.2266 163.703 74.1445 163.422 74.1445C162.977 73.418 162.672 72.5977 162.508 71.6836C162.344 70.793 162.262 69.9375 162.262 69.1172C162.262 68.1094 162.355 67.1016 162.543 66.0938C162.707 65.0859 162.918 64.0898 163.176 63.1055C163.41 62.1211 163.668 61.1484 163.949 60.1875C164.254 59.2031 164.535 58.2188 164.793 57.2344L164.828 57.1289C164.828 57.0117 164.793 56.9297 164.723 56.8828C164.676 56.8359 164.652 56.7656 164.652 56.6719C164.652 56.625 164.664 56.6016 164.688 56.6016C164.758 56.3672 164.828 56.1445 164.898 55.9336C164.992 55.7227 165.062 55.4883 165.109 55.2305C165.25 54.5742 165.344 53.9062 165.391 53.2266C165.461 52.5234 165.496 51.832 165.496 51.1523L165.566 49.1133C165.613 48.4102 165.695 47.7188 165.812 47.0391C166 46.8516 166.176 46.6523 166.34 46.4414C166.504 46.2305 166.715 46.043 166.973 45.8789C167.441 45.9023 167.91 45.9727 168.379 46.0898C168.848 46.207 169.293 46.3945 169.715 46.6523C169.996 47.6602 170.184 48.668 170.277 49.6758C170.395 50.6836 170.582 51.6914 170.84 52.6992V52.8047C170.84 52.9219 170.898 52.9805 171.016 52.9805C171.156 52.957 171.262 52.9922 171.332 53.0859C171.285 53.1562 171.25 53.2383 171.227 53.332V54.2109C171.273 54.3984 171.332 54.5977 171.402 54.8086C171.473 55.0195 171.625 55.1484 171.859 55.1953C171.977 55.9453 172.152 56.6367 172.387 57.2695C172.621 57.9023 172.891 58.5117 173.195 59.0977C173.5 59.6836 173.828 60.2695 174.18 60.8555C174.531 61.418 174.895 62.0156 175.27 62.6484C175.855 63.0938 176.359 63.6094 176.781 64.1953C177.203 64.7578 177.625 65.3086 178.047 65.8477C178.492 66.3633 178.984 66.8203 179.523 67.2188C180.086 67.6172 180.812 67.8633 181.703 67.957C181.82 67.8633 181.902 67.7344 181.949 67.5703L182.125 67.0781C182.195 66.9141 182.266 66.7734 182.336 66.6562C182.43 66.5156 182.559 66.4102 182.723 66.3398C182.77 65.6836 182.816 65.0156 182.863 64.3359C182.934 63.6562 183.086 63.0117 183.32 62.4023C183.203 62.1914 183.145 61.9336 183.145 61.6289C183.145 61.3945 183.156 61.1719 183.18 60.9609C183.227 60.75 183.25 60.5391 183.25 60.3281C183.25 59.8828 183.156 59.5195 182.969 59.2383C182.969 59.0742 182.98 58.9102 183.004 58.7461C183.027 58.5586 183.098 58.3828 183.215 58.2188C183.027 57.75 182.875 57.2578 182.758 56.7422C182.664 56.2266 182.617 55.6992 182.617 55.1602C182.617 54.8555 182.652 54.5391 182.723 54.2109C182.582 53.8594 182.488 53.4492 182.441 52.9805L182.301 51.5391C182.254 51.0469 182.184 50.5898 182.09 50.168C181.996 49.7461 181.82 49.4062 181.562 49.1484C181.703 48.9375 181.773 48.6914 181.773 48.4102C181.773 47.9414 181.703 47.4961 181.562 47.0742C181.422 46.6523 181.352 46.207 181.352 45.7383C181.352 45.4102 181.422 45.082 181.562 44.7539C182.078 44.7773 182.582 44.8359 183.074 44.9297C183.59 45 184.094 45.0352 184.586 45.0352C184.727 45.2227 184.891 45.375 185.078 45.4922C185.266 45.6094 185.465 45.7266 185.676 45.8438C185.887 45.9375 186.086 46.043 186.273 46.1602C186.484 46.2773 186.648 46.4414 186.766 46.6523Z" fill="#123053"/>
<path d="M141.879 35.0625C142.066 34.9219 142.16 34.7227 142.16 34.4648C142.16 34.3945 142.137 34.2891 142.09 34.1484H141.844C141.609 34.1484 141.375 34.1719 141.141 34.2188C140.906 34.2656 140.672 34.2891 140.438 34.2891C140.227 34.2891 140.027 34.2422 139.84 34.1484C138.551 34.8281 137.238 35.4258 135.902 35.9414C134.566 36.457 133.23 36.9961 131.895 37.5586C131.777 37.4883 131.695 37.3945 131.648 37.2773C131.602 37.1602 131.508 37.0898 131.367 37.0664C131.25 37.2773 131.051 37.4297 130.77 37.5234C130.512 37.5938 130.254 37.6289 129.996 37.6289C129.785 37.6289 129.504 37.582 129.152 37.4883C128.824 37.3945 128.602 37.2539 128.484 37.0664C128.227 36.5977 128.062 36.0117 127.992 35.3086C127.945 34.6055 127.922 33.9961 127.922 33.4805V32.4609C127.945 32.0859 127.969 31.7227 127.992 31.3711C128.18 31.1367 128.32 30.832 128.414 30.457C128.508 30.082 128.566 29.6953 128.59 29.2969C128.637 28.8984 128.66 28.5117 128.66 28.1367C128.684 27.7383 128.707 27.3867 128.73 27.082C128.941 26.8711 129.07 26.625 129.117 26.3438C129.188 26.0625 129.223 25.7812 129.223 25.5C129.223 25.2422 129.211 24.9727 129.188 24.6914C129.164 24.4102 129.152 24.1289 129.152 23.8477C129.152 23.6602 129.164 23.4609 129.188 23.25C129.211 23.0391 129.27 22.8398 129.363 22.6523C129.012 21.9961 128.836 21.3047 128.836 20.5781V20.1211C128.648 20.0273 128.402 19.957 128.098 19.9102C127.816 19.8398 127.641 19.6641 127.57 19.3828C127.383 19.4531 127.172 19.4883 126.938 19.4883C126.797 19.4883 126.656 19.4648 126.516 19.418C126.375 19.3711 126.223 19.3242 126.059 19.2773C126.082 19.3711 126.047 19.4883 125.953 19.6289C125.273 19.9336 124.723 20.2969 124.301 20.7188C123.902 21.1172 123.703 21.7266 123.703 22.5469C124.031 22.8281 124.195 23.2148 124.195 23.707V23.8125C124.547 23.8828 124.723 24.1289 124.723 24.5508C124.723 24.9258 124.629 25.2656 124.441 25.5703C124.559 25.875 124.617 26.25 124.617 26.6953V27.4688C124.617 27.7031 124.641 27.9492 124.688 28.207C124.359 29.0508 124.16 29.9297 124.09 30.8438C124.043 31.7344 123.949 32.625 123.809 33.5156L123.668 34.3594C123.645 34.6172 123.633 34.8867 123.633 35.168C123.633 35.2617 123.645 35.4375 123.668 35.6953C123.715 35.9531 123.762 36.2227 123.809 36.5039C123.855 36.7852 123.902 37.0547 123.949 37.3125C123.996 37.5469 124.031 37.7109 124.055 37.8047C124.148 38.0859 124.289 38.3438 124.477 38.5781C124.688 38.8125 124.852 39.0586 124.969 39.3164C125.227 39.8789 125.508 40.3008 125.812 40.582C126.117 40.8633 126.539 41.1562 127.078 41.4609C127.359 41.4141 127.629 41.4258 127.887 41.4961C128.145 41.5664 128.402 41.6016 128.66 41.6016C128.801 41.6016 128.883 41.5781 128.906 41.5312C128.953 41.4844 128.988 41.4375 129.012 41.3906L129.082 41.25C129.105 41.2031 129.152 41.1797 129.223 41.1797C129.457 41.1797 129.68 41.2031 129.891 41.25C130.102 41.2734 130.324 41.2852 130.559 41.2852C131.426 41.2852 132.211 41.0508 132.914 40.582C132.938 40.5586 132.984 40.5469 133.055 40.5469C133.172 40.5469 133.266 40.582 133.336 40.6523C133.43 40.6992 133.535 40.7109 133.652 40.6875H133.758C134.156 40.4766 134.461 40.1953 134.672 39.8438C135.094 39.7031 135.504 39.5273 135.902 39.3164C136.301 39.082 136.688 38.8594 137.062 38.6484C137.461 38.4141 137.859 38.2031 138.258 38.0156C138.68 37.8047 139.113 37.6523 139.559 37.5586C139.652 37.3945 139.723 37.2773 139.77 37.207C139.84 37.1133 139.91 37.043 139.98 36.9961C140.051 36.9492 140.145 36.9258 140.262 36.9258H140.719C140.836 36.668 140.953 36.4336 141.07 36.2227C141.188 36.0117 141.41 35.9062 141.738 35.9062C141.645 35.7656 141.598 35.6484 141.598 35.5547C141.598 35.3438 141.691 35.1797 141.879 35.0625Z" fill="#123053"/>
<path d="M166.428 15.8906V16.0312C166.264 16.0781 166.182 16.1953 166.182 16.3828C165.924 16.5 165.654 16.5938 165.373 16.6641C165.092 16.7109 164.822 16.793 164.564 16.9102C164.307 16.8867 164.037 16.875 163.756 16.875C163.498 16.8516 163.24 16.8398 162.982 16.8398C162.279 16.8398 161.576 16.8633 160.873 16.9102C160.17 16.957 159.467 16.957 158.764 16.9102C158.436 17.0977 158.072 17.25 157.674 17.3672C157.299 17.4609 156.936 17.5078 156.584 17.5078C156.303 17.5078 156.057 17.4727 155.846 17.4023C155.283 17.6836 154.662 17.918 153.982 18.1055C153.326 18.293 152.658 18.4805 151.979 18.668C151.299 18.832 150.643 19.0312 150.01 19.2656C149.4 19.4766 148.861 19.7812 148.393 20.1797C148.346 20.5078 148.311 20.8359 148.287 21.1641C148.264 21.4688 148.252 21.7734 148.252 22.0781C148.252 22.4062 148.264 22.7109 148.287 22.9922C148.334 23.2734 148.416 23.5547 148.533 23.8359C148.65 23.8828 148.779 23.918 148.92 23.9414C149.084 23.9648 149.225 23.9766 149.342 23.9766C149.459 23.9766 149.576 23.9648 149.693 23.9414C149.811 23.8945 149.893 23.8125 149.939 23.6953C150.291 23.6484 150.643 23.6367 150.994 23.6602H152.049C152.4 23.6602 152.74 23.6484 153.068 23.625C153.42 23.6016 153.76 23.543 154.088 23.4492C154.463 23.3555 154.826 23.2969 155.178 23.2734C155.553 23.25 155.916 23.2266 156.268 23.2031C156.619 23.1797 156.982 23.1445 157.357 23.0977C157.732 23.0273 158.119 22.8984 158.518 22.7109C158.822 22.8281 159.127 22.8867 159.432 22.8867C159.76 22.8867 160.076 22.9102 160.381 22.957C160.545 23.0742 160.674 23.2031 160.768 23.3438C160.885 23.4844 160.943 23.6484 160.943 23.8359C160.943 24.1641 160.826 24.4922 160.592 24.8203C160.357 25.1484 160.17 25.4531 160.029 25.7344H159.643C159.08 25.7344 158.529 25.8164 157.99 25.9805C157.475 26.1211 156.947 26.2969 156.408 26.5078C155.893 26.6953 155.365 26.8711 154.826 27.0352C154.311 27.1758 153.771 27.2461 153.209 27.2461C153.115 27.2461 153.057 27.3047 153.033 27.4219C153.033 27.5156 153.01 27.5859 152.963 27.6328C152.846 27.6094 152.67 27.5977 152.436 27.5977C151.896 27.5977 151.381 27.6562 150.889 27.7734C150.396 27.8906 149.893 27.9492 149.377 27.9492H148.955L148.533 27.8789C148.416 28.0664 148.264 28.1953 148.076 28.2656C147.889 28.3125 147.713 28.4062 147.549 28.5469C147.479 28.7578 147.432 29.0156 147.408 29.3203C147.408 29.625 147.396 29.9414 147.373 30.2695C147.373 30.5742 147.35 30.8672 147.303 31.1484C147.256 31.4297 147.162 31.6523 147.021 31.8164C147.045 31.9336 147.139 31.9805 147.303 31.957C147.467 31.9102 147.549 31.9805 147.549 32.168C147.549 32.3789 147.525 32.6016 147.479 32.8359C147.432 33.0703 147.408 33.3047 147.408 33.5391C147.408 33.9844 147.455 34.4766 147.549 35.0156C147.666 35.5312 147.83 36.0117 148.041 36.457C148.275 36.9023 148.58 37.2773 148.955 37.582C149.33 37.8633 149.799 38.0039 150.361 38.0039C150.736 38.0039 151.088 37.9336 151.416 37.793C151.744 37.6523 152.014 37.418 152.225 37.0898L152.4 37.0547C152.494 37.0547 152.576 37.0664 152.646 37.0898C152.74 37.1133 152.834 37.125 152.928 37.125C153.068 37.125 153.244 37.043 153.455 36.8789C153.689 36.6914 153.936 36.4805 154.193 36.2461C154.475 36.0117 154.756 35.7891 155.037 35.5781C155.318 35.3438 155.588 35.1797 155.846 35.0859C156.01 34.7578 156.162 34.4297 156.303 34.1016C156.467 33.7734 156.701 33.5156 157.006 33.3281V32.3086C157.24 32.0508 157.486 31.8164 157.744 31.6055C158.025 31.3945 158.236 31.125 158.377 30.7969C158.494 30.8438 158.6 30.8789 158.693 30.9023C158.811 30.9258 158.928 30.9375 159.045 30.9375C159.162 30.9375 159.279 30.9258 159.396 30.9023C159.537 30.8789 159.666 30.8438 159.783 30.7969C159.971 31.0547 160.111 31.3477 160.205 31.6758C160.322 31.9805 160.463 32.2734 160.627 32.5547C160.416 32.9766 160.17 33.4805 159.889 34.0664C159.607 34.6523 159.303 35.2383 158.975 35.8242C158.646 36.4102 158.295 36.9727 157.92 37.5117C157.568 38.0273 157.217 38.4258 156.865 38.707C156.795 38.7773 156.643 38.8594 156.408 38.9531C156.15 39.1406 155.916 39.3164 155.705 39.4805C155.494 39.668 155.295 39.8789 155.107 40.1133C154.428 40.3242 153.771 40.6055 153.139 40.957C152.529 41.3086 151.92 41.6484 151.311 41.9766C151.029 41.9062 150.725 41.8711 150.396 41.8711C150.115 41.8711 149.834 41.8828 149.553 41.9062C149.271 41.9531 148.967 41.9766 148.639 41.9766C148.545 41.8594 148.404 41.7773 148.217 41.7305C148.053 41.707 147.994 41.5898 148.041 41.3789C147.244 41.332 146.6 41.1094 146.107 40.7109C145.615 40.3359 145.193 39.8672 144.842 39.3047C144.514 38.7422 144.244 38.1328 144.033 37.4766C143.822 36.8203 143.6 36.1875 143.365 35.5781V35.4727C143.365 35.3555 143.412 35.2852 143.506 35.2617C143.6 35.2383 143.646 35.168 143.646 35.0508C143.646 35.0039 143.635 34.9688 143.611 34.9453C143.541 34.6875 143.482 34.4648 143.436 34.2773C143.389 34.0898 143.365 33.8672 143.365 33.6094C143.365 33.2344 143.389 32.8711 143.436 32.5195C143.482 32.1445 143.506 31.7695 143.506 31.3945C143.506 31.0195 143.459 30.6914 143.365 30.4102C143.459 30.293 143.541 30.1406 143.611 29.9531C143.658 29.7422 143.693 29.5312 143.717 29.3203C143.74 29.1094 143.752 28.8984 143.752 28.6875C143.775 28.4766 143.811 28.2891 143.857 28.125C143.764 27.8672 143.682 27.6445 143.611 27.457C143.541 27.2461 143.506 27 143.506 26.7188V26.4727C143.74 26.0742 143.939 25.6641 144.104 25.2422C144.268 24.8203 144.443 24.3867 144.631 23.9414V23.8359C144.631 23.1562 144.607 22.4766 144.561 21.7969C144.514 21.1172 144.49 20.4375 144.49 19.7578V19.0898C144.49 18.8555 144.502 18.6328 144.525 18.4219C144.713 18.3281 144.854 18.1992 144.947 18.0352C145.041 17.8711 145.182 17.7422 145.369 17.6484H146.529L146.74 17.2969C146.811 17.1797 146.857 17.0508 146.881 16.9102C147.139 16.8398 147.385 16.7461 147.619 16.6289C147.877 16.4883 148.111 16.3477 148.322 16.207C148.65 16.0195 148.943 15.8555 149.201 15.7148C149.482 15.5508 149.752 15.4219 150.01 15.3281C150.291 15.2109 150.584 15.1172 150.889 15.0469C151.193 14.9766 151.545 14.918 151.943 14.8711C152.131 14.8711 152.248 14.8359 152.295 14.7656C152.365 14.6953 152.459 14.6133 152.576 14.5195L153.42 14.6602C153.701 14.6836 153.982 14.6953 154.264 14.6953C154.826 14.6953 155.354 14.5898 155.846 14.3789C156.549 14.3789 157.24 14.3672 157.92 14.3438C158.623 14.3203 159.326 14.3086 160.029 14.3086C160.639 14.3086 161.248 14.332 161.857 14.3789C162.467 14.4258 163.064 14.5078 163.65 14.625C163.861 14.5547 164.096 14.5195 164.354 14.5195C164.635 14.5195 164.916 14.5547 165.197 14.625C165.502 14.6719 165.795 14.6719 166.076 14.625C166.1 14.8828 166.158 15.1055 166.252 15.293C166.369 15.457 166.428 15.6562 166.428 15.8906Z" fill="#123053"/>
<path d="M199.432 37.1953C199.385 36.8203 199.42 36.4453 199.537 36.0703C199.232 35.8828 198.939 35.7656 198.658 35.7188C198.377 35.6484 198.072 35.6133 197.744 35.6133C197.393 35.6133 197.053 35.625 196.725 35.6484C196.396 35.6719 196.068 35.6836 195.74 35.6836C195.553 35.3789 195.389 35.0742 195.248 34.7695C195.131 34.4414 195.072 34.0898 195.072 33.7148C195.072 33.3867 195.131 33.1172 195.248 32.9062C195.178 32.6484 195.131 32.3906 195.107 32.1328C195.084 31.875 195.072 31.6172 195.072 31.3594C195.072 30.6562 195.154 29.9648 195.318 29.2852C195.506 28.582 195.658 27.8906 195.775 27.2109C195.893 26.6719 195.951 26.1562 195.951 25.6641C195.975 25.5469 195.986 25.4297 195.986 25.3125V24.9609C196.033 24.7969 196.104 24.6797 196.197 24.6094C196.314 24.5156 196.385 24.375 196.408 24.1875V21.6914C196.408 21.0352 196.385 20.3789 196.338 19.7227C196.291 19.0664 196.197 18.4336 196.057 17.8242C195.939 17.1914 195.752 16.5938 195.494 16.0312C195.072 15.8438 194.615 15.6445 194.123 15.4336C193.654 15.1992 193.186 15.082 192.717 15.082C192.225 15.082 191.803 15.2578 191.451 15.6094C191.475 15.7266 191.486 15.8672 191.486 16.0312C191.486 16.3125 191.439 16.582 191.346 16.8398C191.252 17.0742 191.135 17.3203 190.994 17.5781C190.877 17.8125 190.76 18.0703 190.643 18.3516C190.549 18.6094 190.49 18.8789 190.467 19.1602C190.303 19.207 190.162 19.2891 190.045 19.4062C189.951 19.5 189.834 19.582 189.693 19.6523V20.4258C188.943 21.6445 188.193 22.875 187.443 24.1172C186.693 25.3359 185.803 26.4492 184.771 27.457C183.928 27.7852 183.119 28.1836 182.346 28.6523C181.596 29.1211 180.775 29.4961 179.885 29.7773L179.287 29.6016C179.123 29.5312 178.936 29.4961 178.725 29.4961C178.678 29.2617 178.572 29.0977 178.408 29.0039C178.244 28.8867 178.057 28.793 177.846 28.7227C177.471 28.1836 177.119 27.6445 176.791 27.1055C176.486 26.543 176.205 25.957 175.947 25.3477C175.971 24.9961 175.947 24.7031 175.877 24.4688C175.83 24.2344 175.76 24.0234 175.666 23.8359C175.572 23.6484 175.479 23.4844 175.385 23.3438C175.291 23.1797 175.232 23.0039 175.209 22.8164C175.162 22.5117 175.139 22.1836 175.139 21.832C175.162 21.4805 175.15 21.1523 175.104 20.8477C175.01 20.1211 174.869 19.4062 174.682 18.7031C174.518 18 174.318 17.3086 174.084 16.6289C173.896 16.6523 173.732 16.6523 173.592 16.6289L173.17 16.4883C173.053 16.418 172.936 16.3594 172.818 16.3125C172.701 16.2422 172.572 16.1836 172.432 16.1367C171.939 16.3008 171.424 16.3828 170.885 16.3828C170.322 16.3828 169.83 16.3008 169.408 16.1367C168.939 16.3945 168.623 16.7695 168.459 17.2617C168.318 17.7305 168.248 18.1992 168.248 18.668C168.248 18.9023 168.26 19.0664 168.283 19.1602C168.072 19.6289 167.955 20.1328 167.932 20.6719C167.908 21.2109 167.779 21.7148 167.545 22.1836C167.521 22.3945 167.498 22.6289 167.475 22.8867C167.451 23.1445 167.416 23.4141 167.369 23.6953C167.322 23.9531 167.252 24.1992 167.158 24.4336C167.064 24.6445 166.924 24.8203 166.736 24.9609C166.807 25.2188 166.842 25.4414 166.842 25.6289C166.842 26.0742 166.771 26.5078 166.631 26.9297L166.279 28.125C166.303 28.3125 166.314 28.5117 166.314 28.7227C166.338 28.9336 166.35 29.1445 166.35 29.3555C166.35 30.1055 166.279 30.832 166.139 31.5352C166.021 32.2148 165.963 32.918 165.963 33.6445V34.3125C165.846 34.2656 165.752 34.3125 165.682 34.4531C165.635 34.5703 165.611 34.6875 165.611 34.8047C165.611 35.8828 165.693 36.9844 165.857 38.1094C166.045 39.2344 166.303 40.3242 166.631 41.3789C166.818 41.332 166.971 41.3086 167.088 41.3086C167.205 41.3086 167.322 41.3438 167.439 41.4141L167.791 41.625H168.002C168.072 41.6484 168.143 41.6602 168.213 41.6602C168.518 41.6602 168.811 41.6133 169.092 41.5195C169.373 41.4258 169.666 41.3789 169.971 41.3789H170.146C170.123 41.0742 170.17 40.8398 170.287 40.6758C170.404 40.5117 170.533 40.3711 170.674 40.2539C170.838 40.1133 171.002 39.9844 171.166 39.8672C171.354 39.7266 171.482 39.5508 171.553 39.3398C171.318 38.9414 171.084 38.6719 170.85 38.5312C170.615 38.3906 170.393 38.25 170.182 38.1094C169.994 37.9688 169.83 37.7578 169.689 37.4766C169.572 37.1719 169.514 36.6797 169.514 36C169.514 35.6719 169.525 35.332 169.549 34.9805C169.572 34.6289 169.584 34.2891 169.584 33.9609C169.584 33.8203 169.572 33.6797 169.549 33.5391V33.1523C169.549 33.0586 169.572 33 169.619 32.9766C169.689 32.9297 169.748 32.8945 169.795 32.8711C169.865 32.8477 169.924 32.8125 169.971 32.7656C170.018 32.7188 170.041 32.6484 170.041 32.5547C169.9 32.3203 169.83 32.0508 169.83 31.7461C169.83 31.207 170.018 30.75 170.393 30.375C170.322 29.9297 170.287 29.4727 170.287 29.0039C170.287 28.6289 170.311 28.1953 170.357 27.7031C170.428 27.2109 170.58 26.8008 170.814 26.4727C170.744 26.2383 170.709 25.9805 170.709 25.6992C170.709 25.3477 170.756 24.9609 170.85 24.5391C170.967 24.0938 171.154 23.7305 171.412 23.4492C171.389 23.543 171.377 23.6836 171.377 23.8711C171.377 24.1523 171.436 24.4102 171.553 24.6445C171.67 24.8789 171.729 25.125 171.729 25.3828C171.729 25.5938 171.67 25.7812 171.553 25.9453C172.045 26.3438 172.385 26.8477 172.572 27.457C172.783 28.0664 172.947 28.6523 173.064 29.2148C173.439 29.707 173.791 30.1992 174.119 30.6914C174.471 31.1602 174.74 31.6992 174.928 32.3086C175.139 32.3555 175.361 32.4492 175.596 32.5898C175.83 32.707 176.053 32.8359 176.264 32.9766C176.498 33.1172 176.709 33.2461 176.896 33.3633C177.084 33.4805 177.236 33.5391 177.354 33.5391H178.127C178.455 33.5391 178.783 33.5273 179.111 33.5039C179.463 33.4805 179.791 33.457 180.096 33.4336C180.424 33.4102 180.682 33.3633 180.869 33.293C181.08 33.2461 181.291 33.1523 181.502 33.0117C181.713 32.8711 181.912 32.7539 182.1 32.6602C182.521 32.4258 182.932 32.2148 183.33 32.0273C183.752 31.8164 184.197 31.6523 184.666 31.5352C184.994 30.9961 185.404 30.5508 185.896 30.1992C186.412 29.8477 186.963 29.5781 187.549 29.3906C187.502 29.2031 187.514 29.0859 187.584 29.0391C187.654 28.9922 187.689 28.9102 187.689 28.793V28.7227C188.229 28.4648 188.674 28.1016 189.025 27.6328C189.4 27.1641 189.752 26.6836 190.08 26.1914C190.338 25.793 190.572 25.3711 190.783 24.9258C191.018 24.457 191.334 24.0703 191.732 23.7656C191.756 23.7422 191.791 23.6719 191.838 23.5547L191.979 23.2031C192.049 23.0625 192.119 22.9453 192.189 22.8516C192.26 22.7344 192.318 22.6758 192.365 22.6758V23.4492C192.365 24.1523 192.307 24.8438 192.189 25.5234C192.072 26.2031 191.932 26.8828 191.768 27.5625C191.627 28.2188 191.498 28.8867 191.381 29.5664C191.264 30.2461 191.205 30.9375 191.205 31.6406C190.971 32.1797 190.854 32.7773 190.854 33.4336C190.854 34.3242 191.018 35.2148 191.346 36.1055C191.697 36.9727 192.072 37.8047 192.471 38.6016C192.869 38.6484 193.197 38.7539 193.455 38.918C193.713 39.082 194.018 39.2227 194.369 39.3398C195.049 39.0117 195.74 38.707 196.443 38.4258C197.146 38.1445 197.885 37.9805 198.658 37.9336C198.611 37.7695 198.611 37.6641 198.658 37.6172C198.729 37.5469 198.811 37.5 198.904 37.4766C198.998 37.4297 199.092 37.3945 199.186 37.3711C199.279 37.3477 199.361 37.2891 199.432 37.1953Z" fill="#123053"/>
<path d="M159.449 88.0599C176.757 88.5562 182.515 89.1519 183.186 90.5666C183.521 91.336 182.851 91.3605 173.618 91.1123C161.064 90.7649 129.131 90.5169 125.109 90.8396C124.439 90.8892 124.073 91.3605 124.835 91.3853C134.707 91.6335 156.524 92.4776 162.192 92.7755C165.818 92.9492 168.133 93.8176 168.133 94.9593C168.133 95.6046 167.189 95.6045 158.688 95.0834C131.782 93.4205 96.8632 94.6118 59.7502 98.4587C48.7199 99.6004 45.8862 97.1188 60.6034 95.6296C65.8748 95.1084 69.8664 94.6617 69.5007 94.6369C65.7985 94.4977 28.9037 96.9168 24.0723 97.2336L24.0668 97.234L23.9816 97.2396C23.7021 97.2579 23.5532 97.2677 23.5514 97.2677C20.2606 97.491 14.9892 95.2822 24.0085 94.5128C29.3877 94.0579 33.5605 93.5961 38.0895 93.0949C45.6694 92.256 54.2468 91.3068 71.1461 90.095C64.4122 90.2936 58.897 90.4673 48.141 91.2119C36.5013 92.0309 35.2825 92.0061 35.2825 91.0878C35.2825 89.822 66.5451 87.5387 91.6527 86.9678C117.035 86.3925 134.03 87.0768 147.895 87.6352C151.973 87.7994 155.779 87.9527 159.449 88.0599Z" fill="#123053"/>
</svg>
