<svg xmlns="http://www.w3.org/2000/svg" width="240" height="72" fill="none" viewBox="0 0 240 72"><path fill="#2A3B55" d="M36.832 8.394h-.288L10.984 62.25H23.08l3.456-8.208H46.84l3.456 8.208h12.096L36.832 8.394Zm-.144 21.24 6.696 15.84H29.992l6.696-15.84Z"/><path fill="url(#a)" d="M36.832 8.394h-.288L10.984 62.25H23.08l3.456-8.208H46.84l3.456 8.208h12.096L36.832 8.394Zm-.144 21.24 6.696 15.84H29.992l6.696-15.84Z"/><path fill="#2A3B55" d="M82.598 9.33H71.582v52.92h33.552v-9.648H82.598V9.33Z"/><path fill="url(#b)" d="M82.598 9.33H71.582v52.92h33.552v-9.648H82.598V9.33Z"/><path fill="#2A3B55" d="M125.503 9.33h-11.016v52.92h11.016V9.33Z"/><path fill="url(#c)" d="M125.503 9.33h-11.016v52.92h11.016V9.33Z"/><path fill="#2A3B55" d="M185.754 9.33h-12.096l-13.392 31.104-13.32-31.104H134.85l25.272 53.712h.288L185.754 9.33Z"/><path fill="url(#d)" d="M185.754 9.33h-12.096l-13.392 31.104-13.32-31.104H134.85l25.272 53.712h.288L185.754 9.33Z"/><path fill="#2A3B55" d="M229.223 9.33h-34.2v52.92h34.776V52.242h-23.76V40.074h20.088v-9.288h-20.088V19.338h23.184V9.33Z"/><path fill="url(#e)" d="M229.223 9.33h-34.2v52.92h34.776V52.242h-23.76V40.074h20.088v-9.288h-20.088V19.338h23.184V9.33Z"/><defs><radialGradient id="a" cx="0" cy="0" r="1" gradientTransform="matrix(0 55 -220.224 0 120 8)" gradientUnits="userSpaceOnUse"><stop stop-color="#18ACB6"/><stop offset="1" stop-color="#26467D"/></radialGradient><radialGradient id="b" cx="0" cy="0" r="1" gradientTransform="matrix(0 55 -220.224 0 120 8)" gradientUnits="userSpaceOnUse"><stop stop-color="#18ACB6"/><stop offset="1" stop-color="#26467D"/></radialGradient><radialGradient id="c" cx="0" cy="0" r="1" gradientTransform="matrix(0 55 -220.224 0 120 8)" gradientUnits="userSpaceOnUse"><stop stop-color="#18ACB6"/><stop offset="1" stop-color="#26467D"/></radialGradient><radialGradient id="d" cx="0" cy="0" r="1" gradientTransform="matrix(0 55 -220.224 0 120 8)" gradientUnits="userSpaceOnUse"><stop stop-color="#18ACB6"/><stop offset="1" stop-color="#26467D"/></radialGradient><radialGradient id="e" cx="0" cy="0" r="1" gradientTransform="matrix(0 55 -220.224 0 120 8)" gradientUnits="userSpaceOnUse"><stop stop-color="#18ACB6"/><stop offset="1" stop-color="#26467D"/></radialGradient></defs></svg>