<svg width="240" height="120" viewBox="0 0 240 120" fill="none" xmlns="http://www.w3.org/2000/svg">
<path d="M80.1257 37.5085H85.7486L87.2915 50.1943L93.1886 37.5085H96.8229L98.9829 50.1943L104.297 37.5085H110.023L100.457 57.7714H95.5543L93.7714 45.9771L88.5257 57.7714H83.5886L80.1257 37.5085Z" fill="#123053"/>
<path d="M124.457 47.5543C124.937 44.5029 123.051 42.24 120.103 42.24C116.949 42.2743 114.274 44.64 113.863 47.76C113.417 50.8457 115.303 53.0057 118.217 53.0057C121.371 52.9714 124.011 50.6743 124.457 47.5543ZM108.583 47.4514C109.509 41.52 114.617 37.1314 120.651 37.1657C126.96 37.1657 130.629 42 129.771 47.76C128.88 53.7257 123.737 58.1143 117.703 58.08C111.429 58.1143 107.726 53.3486 108.583 47.4514Z" fill="#123053"/>
<path d="M133.92 37.5085H137.691L143.417 47.9314L152.229 37.5085H156.069L153.051 57.7714H147.977L149.451 48.0343L143.314 55.1314H141.429L137.383 48.0343L135.943 57.7714H130.903L133.92 37.5085Z" fill="#123053"/>
<path d="M159.771 37.5085H174.411L173.691 42.2743H164.229L163.783 45.2571H172.56L171.874 49.9543H163.097L162.617 53.04H172.046L171.36 57.7714H156.789L159.771 37.5085Z" fill="#123053"/>
<path d="M195.634 37.5085L192.617 57.7714H188.777L181.166 46.9371L179.554 57.7714H174.549L177.566 37.5085H181.234L188.949 48.5143L190.594 37.5085H195.634Z" fill="#123053"/>
<path d="M79.5429 72.9257C80.4343 66.72 85.5086 62.8457 91.6457 62.8457C95.2114 62.8457 97.7829 64.2171 99.36 65.8628L95.7943 69.4971C94.6286 68.2971 93.0172 67.6457 91.3372 67.68C88.0114 67.6114 85.1657 70.0457 84.72 73.3371C84.3429 76.1486 85.8857 78.8571 89.4172 78.8571C91.2 78.8571 92.9143 78.24 94.2514 77.1086L94.5257 75.4628H89.9314L90.5829 71.0743H99.8057L98.5029 79.92C95.8286 82.32 92.4 83.6571 88.8 83.7257C82.6286 83.76 78.6172 79.2686 79.5429 72.9257Z" fill="#123053"/>
<path d="M117.291 73.2342C117.771 70.1828 115.886 67.9199 112.937 67.9199C109.783 67.9542 107.109 70.3199 106.697 73.4399C106.251 76.5257 108.137 78.6857 111.051 78.6857C114.171 78.6514 116.846 76.3199 117.291 73.2342ZM101.383 73.1314C102.309 67.1999 107.417 62.8114 113.451 62.8457C119.76 62.8457 123.429 67.6799 122.571 73.4399C121.68 79.4057 116.537 83.7942 110.503 83.7599C104.229 83.7599 100.56 78.9942 101.383 73.1314Z" fill="#123053"/>
<path d="M130.114 68.1256L130.869 63.1885H147.257L146.503 68.1256H140.914L138.617 83.4513H133.474L135.737 68.1256H130.114Z" fill="#123053"/>
<path d="M149.349 63.1885H163.989L163.269 67.9542H153.806L153.36 70.937H162.103L161.417 75.6342H152.674L152.16 78.7199H161.623L160.937 83.4513H146.331L149.349 63.1885Z" fill="#123053"/>
<path d="M164.194 73.0971C165.051 66.6171 170.469 62.8457 176.126 62.8457C179.897 62.8457 182.709 64.56 184.389 66.8914L180.617 70.2514C179.486 68.8114 178.011 67.7143 175.817 67.7143C172.629 67.6457 169.954 70.0114 169.577 73.1657C169.131 76.4571 171.189 78.72 174.274 78.72C176.366 78.72 178.286 77.6571 179.897 76.0457L182.949 79.5086C180.549 82.1828 177.12 83.6914 173.52 83.6914C167.52 83.76 163.337 79.44 164.194 73.0971Z" fill="#123053"/>
<path d="M199.509 63.1885L198.343 70.937H191.246L192.411 63.1885H187.269L184.251 83.4513H189.394L190.526 75.8399H197.623L196.491 83.4513H201.634L204.651 63.1885H199.509Z" fill="#123053"/>
<path d="M35.0743 31.9199L33.2229 36.7542L78.5829 113.966L84.6172 113.314L91.3715 92.5371H84.3772L80.5714 104.228L41.04 36.9599L109.474 15.1885L105.257 28.2514H112.217L117.806 11.0742L113.623 6.89136L35.0743 31.9199Z" fill="#123053"/>
</svg>
