<svg width="240" height="120" viewBox="0 0 240 120" fill="none" xmlns="http://www.w3.org/2000/svg">
<path d="M183.328 82.2711C183.264 80.9709 183.462 79.6711 183.908 78.4483C184.355 77.2255 185.042 76.1044 185.928 75.151C186.814 74.1976 187.882 73.4311 189.069 72.8966C190.256 72.3622 191.538 72.0707 192.84 72.0391C194.113 71.995 195.378 72.2576 196.528 72.8047C197.678 73.3519 198.68 74.1676 199.449 75.1831V72.5175H203.989V92.0199H199.449V89.1959C198.69 90.2335 197.694 91.0747 196.544 91.6494C195.394 92.2241 194.124 92.5157 192.838 92.4999C191.537 92.4682 190.256 92.1765 189.069 91.6422C187.882 91.1079 186.815 90.3417 185.929 89.3886C185.042 88.4356 184.356 87.3149 183.909 86.0926C183.463 84.8703 183.265 83.571 183.328 82.2711ZM187.945 82.2711C187.984 83.4199 188.36 84.5319 189.026 85.4685C189.693 86.405 190.62 87.1247 191.693 87.5377C192.765 87.9507 193.936 88.0389 195.058 87.7911C196.181 87.5433 197.205 86.9707 198.005 86.1444C198.804 85.3182 199.342 84.2751 199.552 83.145C199.762 82.015 199.635 80.848 199.187 79.7897C198.738 78.7314 197.988 77.8286 197.03 77.1938C196.072 76.5589 194.948 76.2203 193.798 76.2199C193.015 76.2265 192.24 76.3889 191.52 76.6978C190.8 77.0067 190.148 77.4558 189.603 78.019C189.058 78.5822 188.631 79.2482 188.346 79.9783C188.061 80.7083 187.926 81.4877 187.945 82.2711ZM121.491 82.2711C121.428 80.9709 121.625 79.6711 122.072 78.4483C122.518 77.2255 123.205 76.1044 124.091 75.151C124.977 74.1976 126.046 73.4311 127.233 72.8966C128.42 72.3622 129.702 72.0707 131.003 72.0391C132.274 71.9967 133.537 72.2601 134.686 72.8072C135.834 73.3543 136.835 74.1691 137.603 75.1831V72.5175H142.141V92.0199H137.603V89.1959C136.845 90.2321 135.85 91.0724 134.702 91.647C133.554 92.2216 132.285 92.514 131.001 92.4999C129.7 92.4684 128.419 92.1769 127.232 91.6427C126.045 91.1085 124.977 90.3423 124.091 89.3892C123.204 88.4361 122.518 87.3154 122.071 86.0929C121.624 84.8705 121.428 83.5711 121.491 82.2711ZM126.105 82.2711C126.144 83.4204 126.52 84.5329 127.186 85.47C127.852 86.407 128.78 87.1271 129.853 87.5405C130.926 87.9538 132.097 88.0421 133.22 87.7944C134.343 87.5466 135.368 86.9737 136.167 86.1472C136.967 85.3206 137.505 84.277 137.715 83.1465C137.926 82.016 137.798 80.8486 137.35 79.79C136.901 78.7313 136.15 77.8282 135.191 77.1933C134.233 76.5585 133.108 76.2199 131.958 76.2199C131.175 76.2269 130.401 76.3897 129.681 76.6987C128.961 77.0077 128.309 77.4569 127.765 78.0201C127.22 78.5832 126.793 79.2491 126.508 79.9789C126.223 80.7087 126.086 81.4879 126.105 82.2711ZM100.749 84.2599V72.5175H105.366V83.3799C105.366 86.4055 106.877 88.2375 109.585 88.2375C112.331 88.2375 114.121 86.1287 114.121 82.7847V72.5175H118.742V92.0199H114.121V89.4343C113.482 90.4141 112.6 91.2115 111.561 91.7488C110.522 92.2861 109.361 92.5448 108.192 92.4999C103.534 92.4999 100.749 89.3559 100.749 84.2599ZM66.219 86.0199V76.4199H63.3134V72.5175H66.219V66.7399H70.7966V72.5127H75.971V76.4135H70.7966V85.1719C70.7966 87.3591 71.7566 88.2759 73.8206 88.2759C74.582 88.3054 75.3337 88.0968 75.971 87.6791V91.7799C74.8847 92.3151 73.6795 92.563 72.4702 92.4999C68.5294 92.4999 66.219 90.1127 66.219 86.0119V86.0199ZM162.76 90.0631L151.939 77.5079C151.801 77.349 151.618 77.2359 151.414 77.1838C151.21 77.1317 150.996 77.143 150.798 77.2162C150.601 77.2894 150.431 77.4211 150.311 77.5935C150.19 77.766 150.125 77.9712 150.125 78.1815V92.0199H145.504V78.1799C145.504 77.0263 145.856 75.9003 146.515 74.9531C147.173 74.0059 148.106 73.2828 149.187 72.8811C150.269 72.4795 151.447 72.4183 152.564 72.706C153.681 72.9937 154.684 73.6163 155.437 74.4903L166.261 87.0375C166.398 87.1964 166.581 87.3094 166.784 87.3615C166.988 87.4136 167.202 87.4023 167.399 87.329C167.596 87.2557 167.766 87.124 167.886 86.9515C168.006 86.779 168.07 86.574 168.07 86.3639V72.5175H172.688V86.3655C172.695 87.5197 172.345 88.6478 171.686 89.5955C171.027 90.5432 170.092 91.2642 169.008 91.6599C168.371 91.8982 167.697 92.0206 167.017 92.0215C166.208 92.021 165.408 91.845 164.673 91.5055C163.938 91.166 163.285 90.6712 162.76 90.0551V90.0631ZM176.129 92.0199V72.5175H180.747V92.0199H176.129ZM92.8734 92.0199V81.1559C92.8734 78.1319 91.363 76.2983 88.5358 76.2983C85.7886 76.2983 83.9566 78.4087 83.9566 81.7527V92.0199H79.339V64.1591H83.955V75.1047C84.6003 74.1219 85.4893 73.3229 86.5351 72.7857C87.581 72.2485 88.7482 71.9913 89.923 72.0391C94.699 72.0391 97.4862 75.1831 97.4862 80.2791V92.0199H92.8734ZM55.5006 92.0199V72.5175H60.115V92.0199H55.5006ZM36.2862 92.0199V64.1591H41.0654V87.5639H51.9838V92.0199H36.2862ZM175.571 66.8247C175.567 66.2603 175.731 65.7076 176.042 65.2367C176.353 64.7657 176.797 64.3979 177.318 64.18C177.839 63.962 178.412 63.9038 178.966 64.0126C179.52 64.1214 180.029 64.3924 180.428 64.7911C180.828 65.1899 181.1 65.6984 181.209 66.252C181.319 66.8056 181.262 67.3794 181.045 67.9003C180.828 68.4213 180.461 68.866 179.99 69.1779C179.52 69.4898 178.967 69.6548 178.403 69.6519C177.654 69.6486 176.936 69.3498 176.406 68.8204C175.876 68.2911 175.576 67.5739 175.571 66.8247ZM54.9438 66.8247C54.9403 66.2603 55.1049 65.7075 55.4165 65.2368C55.7281 64.7662 56.1727 64.3988 56.6937 64.1816C57.2147 63.9643 57.7885 63.907 58.3422 64.0168C58.8959 64.1267 59.4044 64.3988 59.803 64.7985C60.2015 65.1982 60.4722 65.7075 60.5805 66.2615C60.6888 66.8155 60.6298 67.3892 60.4111 67.9095C60.1924 68.4299 59.8238 68.8735 59.3522 69.1838C58.8807 69.494 58.3274 69.657 57.763 69.6519C57.0157 69.646 56.3009 69.346 55.7732 68.8169C55.2455 68.2877 54.9476 67.572 54.9438 66.8247ZM183.435 52.0663L187.176 50.1143C187.438 50.9537 187.954 51.6912 188.653 52.2255C189.351 52.7598 190.198 53.0647 191.077 53.0983C192.517 53.0983 193.702 52.4583 193.702 51.0695C193.702 49.9943 193.029 49.4359 191.475 48.9591L189.123 48.2023C185.817 47.1271 184.147 45.2583 184.147 42.5527C184.147 38.8871 187.211 36.5799 190.867 36.5799C192.351 36.5446 193.812 36.9439 195.072 37.7289C196.331 38.5138 197.333 39.65 197.955 40.9975L194.264 42.9911C194.009 42.2804 193.554 41.6582 192.954 41.1991C192.355 40.74 191.636 40.4634 190.883 40.4023C189.569 40.4023 188.536 41.0791 188.536 42.1943C188.536 43.1111 189.253 43.8247 190.723 44.3031L193.033 45.0599C196.696 46.2951 198.169 48.1639 198.169 50.7543C198.169 54.7335 194.824 57.0423 191.003 57.0423C189.377 57.1221 187.768 56.6831 186.407 55.7887C185.047 54.8943 184.006 53.5908 183.435 52.0663ZM116.923 46.8103C116.957 44.0772 118.066 41.4674 120.011 39.5467C121.956 37.6259 124.579 36.5489 127.313 36.5489C130.046 36.5489 132.669 37.6259 134.614 39.5467C136.559 41.4674 137.668 44.0772 137.702 46.8103C137.668 49.5435 136.559 52.1532 134.614 54.074C132.669 55.9947 130.046 57.0718 127.313 57.0718C124.579 57.0718 121.956 55.9947 120.011 54.074C118.066 52.1532 116.957 49.5435 116.923 46.8103ZM121.497 46.8103C121.472 47.5899 121.603 48.3667 121.883 49.0945C122.164 49.8224 122.588 50.4864 123.13 51.047C123.672 51.6076 124.322 52.0534 125.04 52.3579C125.758 52.6623 126.53 52.8192 127.31 52.8192C128.09 52.8192 128.862 52.6623 129.58 52.3579C130.298 52.0534 130.948 51.6076 131.49 51.047C132.033 50.4864 132.457 49.8224 132.737 49.0945C133.018 48.3667 133.149 47.5899 133.123 46.8103C133.149 46.0307 133.018 45.2539 132.737 44.5261C132.457 43.7983 132.033 43.1343 131.49 42.5737C130.948 42.013 130.298 41.5672 129.58 41.2628C128.862 40.9583 128.09 40.8014 127.31 40.8014C126.53 40.8014 125.758 40.9583 125.04 41.2628C124.322 41.5672 123.672 42.013 123.13 42.5737C122.588 43.1343 122.164 43.7983 121.883 44.5261C121.603 45.2539 121.472 46.0307 121.497 46.8103ZM99.2766 46.8103C99.2348 45.4486 99.4735 44.0928 99.978 42.8272C100.482 41.5617 101.242 40.4134 102.209 39.4539C103.176 38.4944 104.331 37.7441 105.6 37.2497C106.87 36.7552 108.227 36.5273 109.589 36.5799C111.422 36.5593 113.226 37.0412 114.805 37.9735V42.5527C113.436 41.4521 111.743 40.8335 109.987 40.7927C109.191 40.775 108.399 40.918 107.66 41.2133C106.92 41.5086 106.248 41.9501 105.683 42.5113C105.118 43.0725 104.672 43.742 104.372 44.4796C104.072 45.2171 103.923 46.0077 103.936 46.8039C103.919 47.6016 104.064 48.3944 104.363 49.1343C104.661 49.8742 105.107 50.5457 105.673 51.1083C106.238 51.6708 106.913 52.1125 107.654 52.4068C108.396 52.701 109.189 52.8416 109.987 52.8199C111.759 52.7493 113.468 52.1386 114.883 51.0695V55.6487C113.255 56.5667 111.417 57.0459 109.549 57.0391C108.188 57.0976 106.83 56.8735 105.56 56.3808C104.29 55.8881 103.136 55.1376 102.171 54.1767C101.206 53.2157 100.451 52.0652 99.9523 50.7976C99.4541 49.53 99.224 48.1713 99.2766 46.8103ZM36.003 45.4967V28.6983H40.779V45.2999C40.779 49.5991 42.9294 52.4247 46.9118 52.4247C50.8942 52.4247 53.0398 49.5991 53.0398 45.2999V28.6983H57.8206V45.4983C57.8206 52.3783 53.7966 57.0407 46.9118 57.0407C40.027 57.0407 36.003 52.3815 36.003 45.4967ZM171.224 54.5959L160.4 42.0487C160.262 41.8894 160.079 41.7761 159.875 41.7238C159.671 41.6716 159.456 41.683 159.259 41.7564C159.061 41.8299 158.891 41.962 158.771 42.1349C158.651 42.3079 158.587 42.5134 158.587 42.7239V56.5655H153.968V42.7239C153.967 41.5707 154.32 40.4449 154.978 39.4979C155.636 38.5509 156.569 37.828 157.65 37.4263C158.731 37.0246 159.909 36.9633 161.026 37.2508C162.142 37.5383 163.145 38.1606 163.897 39.0343L174.723 51.5799C174.861 51.738 175.044 51.8501 175.248 51.9013C175.451 51.9525 175.666 51.9403 175.862 51.8664C176.058 51.7924 176.228 51.6602 176.347 51.4875C176.466 51.3148 176.53 51.1098 176.529 50.8999V37.0583H181.15V50.8999C181.157 52.0543 180.808 53.1828 180.149 54.1308C179.49 55.0789 178.555 55.8001 177.47 56.1959C176.834 56.4357 176.16 56.5593 175.48 56.5607C174.671 56.5602 173.871 56.3843 173.136 56.0451C172.402 55.7059 171.749 55.2115 171.224 54.5959ZM91.7982 56.5639V37.0583H96.4158V56.5655L91.7982 56.5639ZM78.2286 54.5959L67.4062 42.0487C67.2685 41.8894 67.0854 41.7761 66.8815 41.7238C66.6775 41.6716 66.4625 41.683 66.2652 41.7564C66.0679 41.8299 65.8978 41.962 65.7777 42.1349C65.6576 42.3079 65.5933 42.5134 65.5934 42.7239V56.5655H60.9726V42.7239C60.9723 41.5703 61.3251 40.4443 61.9836 39.4971C62.642 38.5499 63.5746 37.8268 64.656 37.4252C65.7374 37.0235 66.9158 36.9623 68.033 37.25C69.1501 37.5377 70.1525 38.1603 70.9054 39.0343L81.7262 51.5815C81.8638 51.7412 82.0472 51.8547 82.2515 51.9068C82.4558 51.9588 82.6711 51.9468 82.8684 51.8725C83.0656 51.7981 83.2353 51.6649 83.3543 51.491C83.4734 51.3171 83.5362 51.1107 83.5342 50.8999V37.0583H88.155V50.8999C88.1623 52.0543 87.8126 53.1828 87.1539 54.1308C86.4951 55.0789 85.5595 55.8001 84.475 56.1959C83.8387 56.4358 83.1646 56.5593 82.4846 56.5607C81.6753 56.5602 80.8758 56.3843 80.1411 56.0451C79.4064 55.7059 78.7539 55.2115 78.2286 54.5959ZM140.561 56.5607V37.0583H145.099V40.4023C145.594 39.2773 146.409 38.3228 147.443 37.6574C148.476 36.992 149.683 36.6451 150.912 36.6599C151.427 36.6599 151.712 36.6999 151.785 36.7799V41.4759C151.405 41.3333 150.998 41.2786 150.593 41.3159C147.211 41.3159 145.139 43.9431 145.139 47.9639V56.5607H140.561ZM91.2398 31.3655C91.236 30.8009 91.4002 30.2479 91.7116 29.7768C92.023 29.3058 92.4674 28.938 92.9884 28.7202C93.5094 28.5024 94.0834 28.4445 94.6373 28.5539C95.1913 28.6632 95.7002 28.9349 96.0994 29.3343C96.4986 29.7337 96.7699 30.2427 96.879 30.7968C96.988 31.3508 96.9298 31.9248 96.7117 32.4456C96.4937 32.9665 96.1256 33.4107 95.6544 33.7218C95.1831 34.0329 94.63 34.1968 94.0654 34.1927C93.3174 34.1873 92.6016 33.8876 92.0728 33.3585C91.5441 32.8295 91.2448 32.1135 91.2398 31.3655Z" fill="#123053"/>
</svg>
