<svg width="240" height="120" viewBox="0 0 240 120" fill="none" xmlns="http://www.w3.org/2000/svg">
<g clip-path="url(#clip0_223_9)">
<path d="M50.8668 30.353C36.8903 30.5295 24.1844 38.4354 17.902 50.8942C11.6197 63.3531 12.7844 78.2825 20.9373 89.6118L38.6903 60.4942L45.0785 71.506L43.3137 63.3178L50.8668 50.4354L63.0432 71.506L61.3137 63.3883L63.0079 60.4589L80.7608 89.6118C85.349 83.2236 87.7843 75.5647 87.7843 67.6942C87.8903 47.1883 71.3726 30.4589 50.8668 30.353Z" fill="#123053"/>
<path d="M112.455 47.6825V67.8708H106.455V38.5767H113.372L126.078 57.7061V38.5767H132.078V67.8708H125.902L112.455 47.6825Z" fill="#123053"/>
<path d="M152.443 38.1177C160.879 38.1177 167.55 44.6824 167.55 53.0824C167.55 61.6236 160.701 68.2942 152.301 68.2942C143.902 68.2942 137.161 61.6589 137.161 53.2236C137.125 44.8236 144.008 38.1177 152.443 38.1177ZM152.372 62.4353C157.419 62.4353 161.372 58.2353 161.372 53.1883C161.372 48.1412 157.419 43.9765 152.372 43.9765C147.325 43.9765 143.337 48.1412 143.337 53.2236C143.337 58.2707 147.325 62.4353 152.372 62.4353Z" fill="#123053"/>
<path d="M188.619 67.8708L183.043 57.3532H178.632V67.8708H172.561V38.5767H184.137C189.819 38.5767 194.514 41.6473 194.514 47.859C194.514 52.2001 192.255 54.9179 189.008 56.2237L195.219 67.8708H188.619ZM178.632 51.7414H183.679C185.937 51.7414 188.372 50.7179 188.372 47.965C188.372 45.1414 185.937 44.2943 183.643 44.2943H178.632V51.7414Z" fill="#123053"/>
<path d="M208.772 67.8708H199.914V38.5767H208.879C219.079 38.5767 225.432 43.9767 225.432 53.1532C225.432 61.8708 219.15 67.8708 208.772 67.8708ZM209.055 44.2943H205.985V62.1532H208.985C215.055 62.1532 219.219 58.9414 219.219 53.1884C219.219 47.4355 214.808 44.2943 209.055 44.2943Z" fill="#123053"/>
<path d="M106.561 81.0704L107.972 80.6822C108.184 81.7762 108.925 82.4822 110.055 82.4822C111.008 82.4822 111.749 81.9527 111.749 81.1762C111.749 80.3998 111.149 79.9762 110.372 79.7998L109.208 79.5528C107.655 79.2351 106.808 78.2115 106.808 77.0115C106.808 75.4586 108.22 74.188 109.914 74.188C112.031 74.188 112.914 75.4586 113.09 76.4822L111.714 76.9057C111.537 76.2351 110.902 75.4939 109.914 75.4939C108.996 75.4939 108.29 76.1293 108.29 76.8704C108.29 77.3998 108.714 77.9644 109.49 78.1057L110.69 78.3175C112.384 78.6704 113.267 79.6586 113.267 81.0351C113.267 82.4115 112.102 83.788 110.02 83.788C107.831 83.8233 106.667 82.3762 106.561 81.0704Z" fill="#123053"/>
<path d="M128.514 75.6351H123.96V78.2468H128.09V79.588H123.96V82.3762H128.549V83.7173H122.478V74.3291H128.478V75.6351H128.514Z" fill="#123053"/>
<path d="M137.09 79.0235C137.09 76.1999 139.314 74.1528 141.89 74.1528C144.537 74.1528 145.914 75.9528 146.231 77.2235L144.784 77.7175C144.643 77.1528 144.008 75.5293 141.855 75.5293C140.196 75.5293 138.643 76.8706 138.643 78.9528C138.643 81.0352 140.196 82.4117 141.855 82.4117C143.796 82.4117 144.608 80.8588 144.784 80.1881L146.231 80.6823C145.949 81.847 144.572 83.7881 141.819 83.7881C139.455 83.8235 137.09 82.0588 137.09 79.0235Z" fill="#123053"/>
<path d="M158.795 83.8235C156.325 83.8235 155.16 82.2001 155.16 80.1176V74.2941H156.643V80.047C156.643 81.5294 157.56 82.4118 158.83 82.4118C160.208 82.4118 161.019 81.4235 161.019 80.0823V74.2588H162.501V80.0118C162.466 82.2706 161.266 83.8235 158.795 83.8235Z" fill="#123053"/>
<path d="M173.69 83.6827H172.208V74.2944H175.737C178.101 74.2944 178.948 75.7062 178.948 77.1886C178.948 78.3886 178.314 79.3768 177.079 79.8356L179.161 83.6827H177.537L175.632 80.118H173.69V83.6827ZM177.432 77.2238C177.432 76.518 177.114 75.6709 175.561 75.6709H173.69V78.812H175.596C177.008 78.812 177.432 77.9651 177.432 77.2238Z" fill="#123053"/>
<path d="M188.266 83.6827V74.2944H189.748V83.6827H188.266Z" fill="#123053"/>
<path d="M198.608 75.6709V74.2944H206.055V75.6709H203.055V83.6827H201.572V75.6709H198.608Z" fill="#123053"/>
<path d="M213.961 74.2944H215.655L218.23 78.4944L220.808 74.2944H222.501L218.937 79.9062V83.6827H217.455V79.9415L213.961 74.2944Z" fill="#123053"/>
</g>
<defs>
<clipPath id="clip0_223_9">
<rect width="214.091" height="60" fill="white" transform="translate(13.4545 30)"/>
</clipPath>
</defs>
</svg>
