<svg width="240" height="120" viewBox="0 0 240 120" fill="none" xmlns="http://www.w3.org/2000/svg">
<path fill-rule="evenodd" clip-rule="evenodd" d="M76 16H164V104H76V16ZM95.8878 51.3692H98.3664V46.1563H86.9275V51.3692H89.4454V69.1718H86.9275V74.3847H98.3664V69.1718H95.8878V51.3692ZM153.082 51.3692V46.1563H144.102V46.1759L137.955 54.8707L131.798 46.1661V46.1563H122.818V51.3692H125.346V69.1718H122.818V74.3847H134.267V69.1718H131.788V55.9723L137.955 64.6769L144.112 55.992V69.1718H141.634V74.3847H153.082V69.1718H150.555V51.3692H153.082ZM117.812 72.6733C119.562 71.1389 120.438 69.1128 120.438 66.6145H120.448C120.448 65.9752 120.379 65.3752 120.27 64.7949C120.261 64.7752 120.251 64.7457 120.251 64.7261C120.239 64.6612 120.228 64.5963 120.217 64.532C120.192 64.3817 120.167 64.2344 120.133 64.0966H120.113C119.907 63.3195 119.602 62.6114 119.189 61.9819C118.343 60.7131 117.33 59.759 116.13 59.1197C114.94 58.4804 113.749 57.9198 112.569 57.428C111.389 56.946 110.376 56.4051 109.53 55.8051C108.694 55.2149 108.114 54.3592 108.114 53.533C108.114 52.8839 108.241 52.2544 108.802 51.7331C109.363 51.2118 110.11 51.0446 110.907 51.0446C112.608 51.0446 113.887 52.6183 114.123 54.7822H119.857V46.1563H115.166V47.8087C112.972 45.4973 109.982 45.5661 109.982 45.5661C107.11 45.5661 105.625 46.3038 103.924 47.7791C102.212 49.2643 101.356 51.2413 101.356 53.7199C101.356 55.4805 101.779 56.9755 102.615 58.205C103.451 59.4246 104.474 60.3393 105.674 60.959C106.864 61.5688 108.055 62.1196 109.235 62.6015C110.415 63.0835 111.428 63.6343 112.264 64.2441C112.378 64.3201 112.483 64.4147 112.579 64.5008L112.589 64.5097C112.697 64.5982 112.795 64.6965 112.864 64.7949C113.297 65.2867 113.513 65.8473 113.513 66.4866C113.513 67.2538 113.267 67.8538 112.766 68.2964C112.274 68.739 111.595 68.9652 110.74 68.9652C108.891 68.9652 107.671 67.8932 107.071 65.7588H101.347V74.3847H106.038V72.4274C107.051 73.8733 108.714 74.9847 111.261 74.9847C114.133 74.9847 116.061 74.2077 117.812 72.6733Z" fill="#123053"/>
</svg>
