<svg width="240" height="120" viewBox="0 0 240 120" fill="none" xmlns="http://www.w3.org/2000/svg">
<path d="M169.603 75.3434C169.601 83.1559 167.696 86.0209 165.262 86.0209C162.827 86.0209 160.924 83.1559 160.925 75.3434V71.1397C160.926 63.3272 162.831 60.4634 165.265 60.4634C167.7 60.4647 169.604 63.3284 169.603 71.1422V75.3434ZM165.268 53.6997C154.63 53.6985 147.657 58.1722 147.655 73.2147C147.654 88.2571 154.625 92.7334 165.262 92.7346C175.9 92.7359 182.874 88.2609 182.875 73.2197C182.876 58.1772 175.905 53.6997 165.268 53.6997Z" fill="#123053"/>
<path d="M141.14 28H127.536C127.024 28 126.582 28.3612 126.481 28.8637L119.975 60.4624H119.623L113.269 28.8637C113.167 28.3612 112.726 28 112.214 28H107.609C107.096 28 106.655 28.3612 106.554 28.8637L100.199 60.4624H99.8462L93.4912 28.8637C93.3913 28.3612 92.95 28 92.4375 28H87.8312C87.3187 28 86.8775 28.3612 86.7775 28.8637L80.4225 60.4624H80.07L73.5638 28.8637C73.4637 28.3612 73.0225 28 72.51 28H58.9062C58.405 28 58 28.405 58 28.905V90.7099C58 91.2099 58.405 91.6149 58.9062 91.6149H68.6125C69.1125 91.6149 69.5188 91.2099 69.5188 90.7099V58.2087H70.2225L76.7288 90.7511C76.8288 91.2536 77.27 91.6149 77.7825 91.6149H82.625C83.14 91.6149 83.5825 91.2499 83.6812 90.7449L89.9587 58.2087H90.3112L96.59 90.7449C96.6875 91.2499 97.13 91.6149 97.645 91.6149H102.404C102.919 91.6149 103.361 91.2499 103.459 90.7449L109.736 58.2087H110.089L116.366 90.7449C116.465 91.2499 116.908 91.6149 117.423 91.6149H122.264C122.776 91.6149 123.217 91.2536 123.319 90.7511L129.825 58.2087H130.529V90.7099C130.529 91.2099 130.934 91.6149 131.434 91.6149H141.141C141.641 91.6149 142.046 91.2099 142.046 90.7099V28.905C142.045 28.405 141.64 28 141.14 28Z" fill="#123053"/>
</svg>
