<svg width="41" height="40" viewBox="0 0 41 40" fill="none" xmlns="http://www.w3.org/2000/svg">
<path fill-rule="evenodd" clip-rule="evenodd" d="M0.599976 0H40.6V40H0.599976V0ZM9.63988 16.0769H10.7665V13.7074H5.567V16.0769H6.71152V24.169H5.567V26.5385H10.7665V24.169H9.63988V16.0769ZM35.6374 16.0769V13.7074H31.5556V13.7163L28.7614 17.6685L25.9627 13.7119V13.7074H21.8808V16.0769H23.0298V24.169H21.8808V26.5385H27.0848V24.169H25.9582V18.1692L28.7614 22.1259L31.5601 18.1782V24.169H30.4334V26.5385H35.6374V24.169H34.4884V16.0769H35.6374ZM19.6052 25.7606C20.401 25.0632 20.7989 24.1422 20.7989 23.0066H20.8034C20.8034 22.716 20.7721 22.4433 20.7229 22.1795C20.7184 22.1706 20.714 22.1572 20.714 22.1482C20.7086 22.1188 20.7037 22.0892 20.6987 22.06C20.6872 21.9917 20.676 21.9247 20.6603 21.8621H20.6514C20.5575 21.5089 20.4189 21.187 20.2311 20.9009C19.8466 20.3241 19.3862 19.8905 18.8407 19.5999C18.2998 19.3093 17.7588 19.0544 17.2223 18.8309C16.6858 18.6118 16.2253 18.3659 15.8408 18.0932C15.4608 17.825 15.197 17.436 15.197 17.0605C15.197 16.7654 15.2552 16.4793 15.51 16.2423C15.7648 16.0054 16.1046 15.9294 16.4667 15.9294C17.2402 15.9294 17.8214 16.6447 17.9287 17.6283H20.5351V13.7074H18.4026V14.4585C17.4056 13.4079 16.0465 13.4391 16.0465 13.4391C14.741 13.4391 14.0659 13.7745 13.2925 14.4451C12.5146 15.1202 12.1256 16.0188 12.1256 17.1454C12.1256 17.9457 12.3179 18.6252 12.6979 19.1841C13.0779 19.7385 13.5429 20.1542 14.0883 20.4359C14.6293 20.7131 15.1702 20.9635 15.7067 21.1825C16.2432 21.4016 16.7037 21.652 17.0837 21.9291C17.1356 21.9637 17.1833 22.0067 17.2268 22.0458L17.2312 22.0499C17.2804 22.0901 17.3251 22.1348 17.3564 22.1795C17.5531 22.403 17.6515 22.6579 17.6515 22.9485C17.6515 23.2972 17.5397 23.5699 17.3117 23.7711C17.0882 23.9723 16.7797 24.0751 16.3907 24.0751C15.5502 24.0751 14.9959 23.5878 14.7231 22.6176H12.1212V26.5385H14.2537V25.6488C14.7142 26.306 15.4698 26.8112 16.6277 26.8112C17.9332 26.8112 18.8094 26.458 19.6052 25.7606Z" fill="#123053"/>
</svg>
