<svg xmlns="http://www.w3.org/2000/svg" width="146" height="144" fill="none" viewBox="0 0 146 144"><g filter="url(#a)"><path fill="#fff" d="M82.016 41.993a18 18 0 0 1 14.485 2.452l39.855 26.57c7.125 4.75 7.125 15.22 0 19.97l-12.855 8.57a17.998 17.998 0 0 1-19.969 0L89.845 90.43a6 6 0 0 0-6.657 0l-13.687 9.125a17.998 17.998 0 0 1-19.97 0L9.678 72.985c-7.125-4.75-7.125-15.22 0-19.97l12.855-8.57a18 18 0 0 1 19.969 0l13.687 9.125a6 6 0 0 0 6.657 0l1.171-.781v6.914a12.001 12.001 0 0 1-11.156-1.14l-13.687-9.125a12 12 0 0 0-13.313 0l-12.855 8.57c-3.563 2.375-3.563 7.61 0 9.984l39.855 26.57a12 12 0 0 0 13.313 0l13.687-9.124a12 12 0 0 1 13.313 0l13.687 9.124a12 12 0 0 0 13.313 0l12.855-8.57c3.562-2.375 3.562-7.61 0-9.984l-39.855-26.57a12.002 12.002 0 0 0-11.157-1.14v-6.305Z"/></g><g fill="#fff" filter="url(#b)"><path d="M73.017 12a3 3 0 0 1 3 3v51.341c3.495.824 6 3.047 6 5.659 0 2.612-2.505 4.835-6 5.659v3.13l-6 4v-7.13c-3.496-.824-6-3.047-6-5.659 0-2.612 2.504-4.835 6-5.659V15a3 3 0 0 1 3-3ZM76.017 102.422V129a3 3 0 1 1-6 0v-22.84a23.989 23.989 0 0 0 2.812-1.613l3.188-2.125Z"/></g><defs><filter id="a" width="145.366" height="69.156" x=".333" y="39.422" color-interpolation-filters="sRGB" filterUnits="userSpaceOnUse"><feFlood flood-opacity="0" result="BackgroundImageFix"/><feColorMatrix in="SourceAlpha" result="hardAlpha" values="0 0 0 0 0 0 0 0 0 0 0 0 0 0 0 0 0 0 127 0"/><feOffset dy="2"/><feGaussianBlur stdDeviation="2"/><feComposite in2="hardAlpha" operator="out"/><feColorMatrix values="0 0 0 0 0 0 0 0 0 0 0 0 0 0 0 0 0 0 0.25 0"/><feBlend in2="BackgroundImageFix" result="effect1_dropShadow_22_498"/><feBlend in="SourceGraphic" in2="effect1_dropShadow_22_498" result="shape"/></filter><filter id="b" width="26" height="128" x="60.017" y="10" color-interpolation-filters="sRGB" filterUnits="userSpaceOnUse"><feFlood flood-opacity="0" result="BackgroundImageFix"/><feColorMatrix in="SourceAlpha" result="hardAlpha" values="0 0 0 0 0 0 0 0 0 0 0 0 0 0 0 0 0 0 127 0"/><feOffset dy="2"/><feGaussianBlur stdDeviation="2"/><feComposite in2="hardAlpha" operator="out"/><feColorMatrix values="0 0 0 0 0 0 0 0 0 0 0 0 0 0 0 0 0 0 0.25 0"/><feBlend in2="BackgroundImageFix" result="effect1_dropShadow_22_498"/><feBlend in="SourceGraphic" in2="effect1_dropShadow_22_498" result="shape"/></filter></defs></svg>