<svg xmlns="http://www.w3.org/2000/svg" width="320" height="48" fill="none" viewBox="0 0 320 48"><rect width="108" height="48" x="212" fill="#EEE" rx="8"/><path fill="#36383A" d="M30.32 36.368V11.12c0-1.104-.864-1.68-1.68-1.68-.864 0-1.68.576-1.68 1.68v21.6l-9.744-22.128c-.192-.384-1.104-1.008-1.536-1.008h-1.92a1.7 1.7 0 0 0-1.68 1.68V36.56c0 1.104.864 1.68 1.68 1.68.864 0 1.68-.576 1.68-1.68V14.912l9.744 22.128c.192.384 1.104 1.008 1.536 1.008h1.92a1.7 1.7 0 0 0 1.68-1.68ZM64.63 31.28V11.12c0-1.104-.863-1.68-1.68-1.68-.863 0-1.68.576-1.68 1.68v20.16c0 2.256-1.247 3.36-3.36 3.36h-5.28c-2.063 0-3.36-1.152-3.36-3.36V11.12c0-1.104-.863-1.68-1.68-1.68-.863 0-1.68.576-1.68 1.68v20.16c0 4.224 2.977 6.72 6.72 6.72h5.28c3.889 0 6.72-2.496 6.72-6.72ZM99.181 36.56V11.264a1.7 1.7 0 0 0-1.68-1.68h-1.776c-1.488 0-2.4.48-2.976 1.824-1.2 2.784-2.688 6.96-3.408 8.784L86.27 12.32c-.672-1.68-1.056-2.736-3.312-2.736h-1.776a1.7 1.7 0 0 0-1.68 1.68V36.56c0 1.104.864 1.68 1.68 1.68.864 0 1.68-.576 1.68-1.68V12.944h.048c1.488 4.224 3.264 8.496 4.848 12.528.336.912.96 1.344 1.584 1.344.624 0 1.248-.432 1.584-1.344 5.472-14.112 4.56-11.856 4.8-12.48l.096 23.568c0 1.104.864 1.68 1.68 1.68s1.68-.576 1.68-1.68ZM132.772 31.28v-2.928c0-2.16-.768-3.936-2.112-5.088 1.248-1.2 1.968-2.88 1.968-4.944v-2.016c0-4.176-2.88-6.72-6.72-6.72h-10.176a1.7 1.7 0 0 0-1.68 1.68V36.32a1.7 1.7 0 0 0 1.68 1.68h10.32c3.84 0 6.72-2.544 6.72-6.72Zm-3.504-12.96c0 2.208-1.248 3.36-3.36 3.36h-8.496v-8.736h8.496c2.112 0 3.36 1.152 3.36 3.36v2.016Zm.144 12.96c0 2.208-1.248 3.36-3.36 3.36h-8.64v-9.6h8.64c2.112 0 3.36 1.104 3.36 3.312v2.928ZM167.227 36.32c0-.864-.576-1.68-1.68-1.68h-13.248v-9.36h5.664c1.104 0 1.68-.864 1.68-1.68 0-.864-.576-1.68-1.68-1.68h-5.664v-9.024h12.768c1.104 0 1.68-.864 1.68-1.68 0-.864-.576-1.68-1.68-1.68h-14.448a1.7 1.7 0 0 0-1.68 1.68V36.32a1.7 1.7 0 0 0 1.68 1.68h14.928c1.104 0 1.68-.864 1.68-1.68ZM200.913 18.8v-2.496c0-4.176-2.88-6.72-6.72-6.72h-10.32a1.7 1.7 0 0 0-1.68 1.68V36.56c0 1.104.864 1.68 1.68 1.68.864 0 1.68-.576 1.68-1.68V25.52h8.16l3.696 11.568c.24.816.912 1.152 1.536 1.152.864 0 1.728-.624 1.728-1.632 0-.192-.048-.384-.096-.576l-3.504-11.04c2.304-.96 3.84-3.12 3.84-6.192Zm-3.36 0c0 2.208-1.248 3.36-3.36 3.36h-8.64v-9.216h8.64c2.112 0 3.36 1.152 3.36 3.36V18.8Z"/><path fill="#5D6062" d="M240.56 31.28v-2.928c0-2.16-.768-3.936-2.112-5.088 1.248-1.2 1.968-2.88 1.968-4.944v-2.016c0-4.176-2.88-6.72-6.72-6.72H223.52a1.7 1.7 0 0 0-1.68 1.68V36.32a1.7 1.7 0 0 0 1.68 1.68h10.32c3.84 0 6.72-2.544 6.72-6.72Zm-3.504-12.96c0 2.208-1.248 3.36-3.36 3.36H225.2v-8.736h8.496c2.112 0 3.36 1.152 3.36 3.36v2.016Zm.144 12.96c0 2.208-1.248 3.36-3.36 3.36h-8.64v-9.6h8.64c2.112 0 3.36 1.104 3.36 3.312v2.928ZM274.486 36.56c0-.096-.048-.24-.048-.384l-3.936-22.032c-.528-2.88-1.584-4.8-5.088-4.8-2.448 0-4.272 1.056-4.752 3.408 0 0-3.216 15.6-4.8 23.376-.048.144-.048.24-.048.384 0 1.008.864 1.632 1.728 1.632.72 0 1.392-.432 1.584-1.344l1.392-6.72h9.552c.336 2.256.672 4.512 1.056 6.72.192.96.912 1.392 1.632 1.392.864 0 1.728-.624 1.728-1.632Zm-4.944-9.84h-8.352l2.448-12c.288-1.392.624-2.016 1.776-2.016.816 0 1.344.096 1.584.96l2.544 13.056ZM308.701 18.8v-2.496c0-4.176-2.88-6.72-6.72-6.72h-10.32a1.7 1.7 0 0 0-1.68 1.68V36.56c0 1.104.864 1.68 1.68 1.68.864 0 1.68-.576 1.68-1.68V25.52h8.16l3.696 11.568c.24.816.912 1.152 1.536 1.152.864 0 1.728-.624 1.728-1.632 0-.192-.048-.384-.096-.576l-3.504-11.04c2.304-.96 3.84-3.12 3.84-6.192Zm-3.36 0c0 2.208-1.248 3.36-3.36 3.36h-8.64v-9.216h8.64c2.112 0 3.36 1.152 3.36 3.36V18.8Z"/></svg>