<svg xmlns="http://www.w3.org/2000/svg" width="111" height="28" fill="none" viewBox="0 0 111 28"><path fill="#6CFFD3" fill-rule="evenodd" d="M77.136.537C73.24.404 69.96.261 68.266.135c-3.343-.25-11.275-.143-17.626.241-4.883.295-12.885 1.03-20.15 1.787-2.031-.052-4.09-.118-6.117-.197C6.26 1.262 3.935 1.367 3.02 2.934c-.95 1.623-.953 1.761-.047 1.81.249.015.504.113.722.263-.405.224-.639.49-.816.813l-.114.207c-1.396-.443-1.598-.193-1.372 1.59.05.4.046.86-.004 1.33-.135.16-.174.444-.144.888-.136.615-.34 1.194-.591 1.623-.936 1.599-.91 1.735.367 1.924l.06.009a5.227 5.227 0 0 1-.425 1.08c-.909 1.649-.88 1.784.398 1.902.758.07 1.567.076 1.8.013.192-.052.849.733 1.567 1.843-.551.142-.365.361.419.893.084.057.167.118.248.183.38.584.784 1.06 1.21 1.43.44.785.52 1.5-.038 1.535-1.627.104.382 2.065 4.17 4.07 4.121 2.182 4.351 2.183 24.442.178 4.28-.427 8.68-.922 12.676-1.415 2.244.16 4.96.297 7.737.388 2.108.183 4.247.342 6.235.457 11.727.683 41.029 1.003 37.125.406-3.321-.509-1.592-1.564 3.661-2.235 2.708-.346 5.024-1.13 5.148-1.74.124-.613.946-1.073 1.827-1.025 1.193.066 1.611-.448 1.637-2.009.01-.595-.059-1.066-.238-1.455.228-.332.321-.843.321-1.589 0-1.411-.43-2.102-1.719-2.605.565-.03.691-.139.445-.42.179-.255.154-.76.014-1.63a5.528 5.528 0 0 1-.059-.98c.199-.074.198-.19.017-.378.064-.92.29-1.895.624-2.562.853-1.705.823-1.838-.425-1.877-.683-.021-1.41.015-1.692.082-.193-.388-.717-.932-1.508-1.563a21.218 21.218 0 0 1-.562-.858c-1.067-1.718-2.296-2.552-3.683-2.501-.31.011-.712.019-1.192.023C98.398-.196 94.934-.09 78.429.49l-1.293.047ZM9.453 7.434a20.26 20.26 0 0 0-.204.07 15.08 15.08 0 0 1-.493-.2c.234.04.467.084.697.13ZM5.098 4.538c.37-.078.802-.147 1.31-.21-.935-.097-1.338-.053-1.31.21Z" clip-rule="evenodd"/></svg>