<svg width="24" height="24" viewBox="0 0 24 24" fill="none" xmlns="http://www.w3.org/2000/svg">
<path d="M18.0798 4.11848C13.6262 5.65566 9.85938 7.19278 5.42955 7.57708C3.08431 7.78053 2.72907 7.96137 3.15548 8.70735C3.88984 10.0185 7.30117 10.3576 10.9256 9.49854C11.6126 9.34031 12.1575 9.22728 12.1575 9.27249C12.1575 9.3177 10.8546 10.4028 9.26739 11.714C4.15038 15.896 3.41601 16.8227 4.41096 17.727C5.95077 19.1059 7.11166 18.7216 10.5703 15.602C12.1575 14.1553 13.7684 12.7763 14.1474 12.5277L14.8344 12.053L14.692 12.8216C13.9813 16.5289 14.5501 19.3094 16.1373 19.8293C17.7955 20.3718 18.1982 19.7389 18.4351 16.2124C18.601 13.9293 20.1405 7.59975 20.8512 6.28863C21.5382 5.00012 19.7144 3.57595 18.0798 4.11848Z" fill="#123053"/>
</svg>
