<svg width="32" height="32" viewBox="0 0 32 32" fill="none" xmlns="http://www.w3.org/2000/svg">
<path fill-rule="evenodd" clip-rule="evenodd" d="M28.3881 8.8193C30.6858 8.50507 31.1572 7.93553 29.3308 7.66059L28.4667 7.52311L28.7613 6.95357C29.2718 5.95199 29.3308 4.97003 28.9183 4.67544C28.4667 4.34158 28.5845 4.32193 27.0527 5.1075C25.5404 5.89308 25.4029 5.89308 24.1264 5.40209C20.5717 4.00771 17.1937 4.83256 15.2692 7.58204L14.4443 8.76039L13.6784 7.89626C11.7145 5.6574 4.19265 5.04859 2.81791 7.0125C2.01272 8.1712 2.6019 10.8617 3.91772 12.0205C4.4087 12.4525 4.56586 12.7078 4.44803 12.9042C3.95704 13.6899 5.01752 15.3787 6.37262 15.9482C6.94216 16.184 6.98146 16.2625 6.78505 16.5963C6.1566 17.6176 8.0616 19.7583 10.2219 20.426C10.87 20.6225 8.51329 23.6861 7.15819 24.3931C6.29407 24.8449 6.80469 25.65 7.9634 25.65C8.31691 25.65 8.96499 25.8464 9.41668 26.0625C14.5033 28.6548 23.5176 26.1017 26.5028 21.2312C28.7613 17.5391 29.5468 10.5868 27.9168 9.76197C27.4061 9.46739 27.6024 8.91749 28.3881 8.8193ZM25.1674 19.0905C21.7501 23.9022 15.3476 26.9854 11.7537 25.5518C11.302 25.3751 10.595 25.2376 10.1629 25.2376C9.18098 25.2376 9.16139 25.2965 10.5165 23.9218C12.8928 21.5454 13.3641 19.719 11.6949 19.3459C8.98464 18.7174 7.86515 17.5587 8.59181 16.2036C8.76856 15.8894 8.67039 15.7716 7.94374 15.4377C4.97824 14.004 6.58865 12.4525 6.56901 12.4721C6.80468 12.1973 6.70649 11.7652 6.37262 11.608C3.1518 10.0762 3.89811 7.66059 7.57062 7.68023C11.6556 7.68023 11.7734 7.75879 13.7766 11.5492C14.5622 13.022 15.6226 14.554 16.2315 14.2594C16.8404 13.9647 16.6438 13.0418 16.1529 12.1187C15.8779 11.5884 15.8976 11.5098 16.4083 10.7047C18.6471 7.20889 21.2983 5.93234 24.2245 6.9143C24.8138 7.11069 25.4226 7.18926 25.8941 7.11069C26.7582 6.97323 26.9152 7.38563 26.3456 8.24976C26.0117 8.76039 26.1296 9.34955 26.5616 9.34955C27.8186 9.31027 26.6992 16.9303 25.1674 19.0905Z" fill="#123053"/>
</svg>
