<svg xmlns="http://www.w3.org/2000/svg" width="400" height="56" fill="none" viewBox="0 0 400 56"><g fill="#fff" filter="url(#a)"><path d="M8.846 27.234c0-3.007.565-5.815 1.695-8.422 1.13-2.625 2.78-4.903 4.95-6.835 2.169-1.933 4.83-3.455 7.984-4.567 3.171-1.112 6.8-1.668 10.882-1.668 1.477 0 2.953.082 4.43.246 1.495.146 2.962.383 4.403.711a32.5 32.5 0 0 1 4.238 1.258 25.662 25.662 0 0 1 3.937 1.777l-3.992 6.563a15.677 15.677 0 0 0-2.543-1.176 20.774 20.774 0 0 0-3.062-.902 27.497 27.497 0 0 0-3.364-.574 31.423 31.423 0 0 0-3.472-.192c-2.698 0-5.105.347-7.22 1.04-2.114.674-3.9 1.63-5.358 2.87a12.132 12.132 0 0 0-3.336 4.403c-.766 1.713-1.149 3.59-1.149 5.632 0 2.115.401 4.056 1.203 5.825a13.146 13.146 0 0 0 3.418 4.566c1.477 1.276 3.263 2.279 5.36 3.008 2.096.71 4.438 1.066 7.027 1.066 2.06 0 3.947-.228 5.66-.683 1.714-.474 3.208-1.14 4.485-1.996 1.276-.857 2.315-1.887 3.117-3.09.802-1.222 1.33-2.589 1.586-4.102h-14.93v-7.137h22.723v.028l.027-.027c.456 2.187.592 4.32.41 6.398a18.606 18.606 0 0 1-1.422 5.851 18.287 18.287 0 0 1-3.172 5.032c-1.349 1.531-2.962 2.853-4.84 3.965-1.877 1.093-4.01 1.95-6.398 2.57-2.388.601-5.004.902-7.848.902-3.974 0-7.537-.583-10.691-1.75-3.135-1.166-5.797-2.761-7.984-4.785a20.731 20.731 0 0 1-5.032-7.11c-1.148-2.715-1.722-5.614-1.722-8.695ZM93.546 6.262h9.187L123.405 49H114.3l-3.418-7.191H85.917L82.608 49h-9.133l20.07-42.738Zm13.918 28.41-9.242-19.414-8.997 19.414h18.239ZM141.25 6.262h8.668v35.136h24.855V49H141.25V6.262ZM208.969 6.262h9.188L238.829 49h-9.106l-3.418-7.191H201.34L198.032 49h-9.133l20.07-42.738Zm13.918 28.41-9.242-19.414-8.996 19.414h18.238ZM268.814 27.29 252.38 6.261h10.609l11.348 14.71 11.402-14.71h10.446L279.45 27.207 296.759 49h-10.637l-12.168-15.367L261.513 49H251.04l17.774-21.71ZM313.373 6.262h8.723V49h-8.723V6.262ZM346.366 36.285a56.975 56.975 0 0 0 4.703 2.38 41.269 41.269 0 0 0 4.977 1.776c1.713.474 3.509.839 5.386 1.094 1.896.255 3.911.383 6.043.383 2.571 0 4.758-.164 6.563-.492 1.805-.347 3.272-.811 4.402-1.395 1.149-.601 1.978-1.312 2.489-2.133.528-.82.792-1.713.792-2.68 0-1.549-.647-2.77-1.941-3.663-1.294-.912-3.29-1.367-5.988-1.367-1.185 0-2.434.082-3.746.246-1.313.145-2.644.31-3.992.492-1.331.182-2.653.355-3.965.52a32.826 32.826 0 0 1-3.664.218c-1.914 0-3.756-.246-5.524-.738-1.75-.492-3.308-1.23-4.676-2.215a11.025 11.025 0 0 1-3.226-3.691c-.802-1.477-1.203-3.2-1.203-5.168 0-1.167.155-2.325.465-3.473a11.66 11.66 0 0 1 1.531-3.281c.711-1.058 1.622-2.033 2.734-2.926 1.112-.912 2.452-1.695 4.02-2.352 1.586-.656 3.409-1.166 5.468-1.53 2.079-.384 4.439-.575 7.082-.575 1.915 0 3.838.11 5.77.328 1.932.2 3.81.492 5.633.875 1.841.383 3.609.848 5.305 1.394a41.98 41.98 0 0 1 4.73 1.778l-3.801 7a38.346 38.346 0 0 0-3.883-1.45 43.213 43.213 0 0 0-4.347-1.175 46.907 46.907 0 0 0-4.703-.766c-1.605-.2-3.245-.3-4.922-.3-2.388 0-4.357.173-5.907.519-1.531.346-2.752.793-3.664 1.34-.911.529-1.549 1.13-1.914 1.805-.346.656-.519 1.312-.519 1.968 0 1.276.574 2.325 1.722 3.145 1.149.802 2.899 1.203 5.25 1.203.948 0 2.033-.064 3.254-.192 1.24-.145 2.534-.3 3.883-.464 1.367-.164 2.753-.31 4.156-.438a40.48 40.48 0 0 1 4.129-.219c2.516 0 4.74.283 6.672.848 1.951.565 3.582 1.376 4.895 2.434a10.073 10.073 0 0 1 2.98 3.8c.675 1.477 1.012 3.136 1.012 4.977 0 2.46-.574 4.658-1.723 6.59-1.13 1.914-2.752 3.536-4.867 4.867-2.096 1.313-4.63 2.315-7.601 3.008-2.972.674-6.28 1.012-9.926 1.012a52.72 52.72 0 0 1-7.055-.465 53.106 53.106 0 0 1-6.617-1.258 54.123 54.123 0 0 1-6.016-1.996 45.75 45.75 0 0 1-5.277-2.57l4.621-7.028Z"/></g><defs><filter id="a" width="389.981" height="51.887" x="4.846" y="3.715" color-interpolation-filters="sRGB" filterUnits="userSpaceOnUse"><feFlood flood-opacity="0" result="BackgroundImageFix"/><feColorMatrix in="SourceAlpha" result="hardAlpha" values="0 0 0 0 0 0 0 0 0 0 0 0 0 0 0 0 0 0 127 0"/><feOffset dy="2"/><feGaussianBlur stdDeviation="2"/><feComposite in2="hardAlpha" operator="out"/><feColorMatrix values="0 0 0 0 0 0 0 0 0 0 0 0 0 0 0 0 0 0 0.25 0"/><feBlend in2="BackgroundImageFix" result="effect1_dropShadow_22_496"/><feBlend in="SourceGraphic" in2="effect1_dropShadow_22_496" result="shape"/></filter></defs></svg>