<svg xmlns="http://www.w3.org/2000/svg" width="88" height="120" fill="none" viewBox="0 0 88 120"><g filter="url(#a)"><path fill="url(#b)" d="M10.03 5.103c-5.415 5.102-5.84 12.23-6.691 26.485-.397 6.642-.7 14.167-.802 22.412h14.805L32.75 12.912l22.5 60L62.342 54h23.121a475.452 475.452 0 0 0-.801-22.413c-.851-14.254-1.276-21.382-6.693-26.484C72.553 0 64.947 0 49.733 0H38.267c-15.213 0-22.82 0-28.236 5.103Z"/><path fill="url(#c)" d="M85.463 66H70.658L55.25 107.088l-22.5-60L25.658 66H2.538c.101 8.245.404 15.77.8 22.412.851 14.255 1.277 21.383 6.693 26.485C15.447 120 23.054 120 38.267 120h11.466c15.214 0 22.82 0 28.236-5.103 5.417-5.102 5.842-12.23 6.693-26.485.396-6.642.7-14.167.801-22.412Z"/></g><defs><radialGradient id="b" cx="0" cy="0" r="1" gradientTransform="matrix(0 -120 110.126 0 44 120)" gradientUnits="userSpaceOnUse"><stop stop-color="#13B6C0"/><stop offset="1" stop-color="#47608A"/></radialGradient><radialGradient id="c" cx="0" cy="0" r="1" gradientTransform="matrix(0 -120 110.126 0 44 120)" gradientUnits="userSpaceOnUse"><stop stop-color="#13B6C0"/><stop offset="1" stop-color="#47608A"/></radialGradient><filter id="a" width="82.926" height="124" x="2.537" y="0" color-interpolation-filters="sRGB" filterUnits="userSpaceOnUse"><feFlood flood-opacity="0" result="BackgroundImageFix"/><feBlend in="SourceGraphic" in2="BackgroundImageFix" result="shape"/><feColorMatrix in="SourceAlpha" result="hardAlpha" values="0 0 0 0 0 0 0 0 0 0 0 0 0 0 0 0 0 0 127 0"/><feOffset dy="4"/><feGaussianBlur stdDeviation="4"/><feComposite in2="hardAlpha" k2="-1" k3="1" operator="arithmetic"/><feColorMatrix values="0 0 0 0 0 0 0 0 0 0 0 0 0 0 0 0 0 0 0.2 0"/><feBlend in2="shape" result="effect1_innerShadow_22_486"/></filter></defs></svg>