<svg xmlns="http://www.w3.org/2000/svg" width="322" height="51" fill="none" viewBox="0 0 322 51"><path fill="#D1D1D1" fill-rule="evenodd" d="M25.703 39.644c.294-.822.42-1.67.42-2.465 0-12.32-23.273-9.447-23.273-22.973C2.85 5.182 9.495 0 19.84 0c11.05 0 25.042 5.961 25.042 24 0 17.538-13.789 24-24.821 24C7.016 48 2.85 40.553 2.85 34.926c0-2.932 2.586-4.65 4.65-4.65 2.436 0 4.649 1.894 4.649 4.65 0 3.911-.202 9.316 5.626 9.316 11.675 0 17.493-9.487 17.493-20.242S29.45 3.932 18.786 3.932c-6.966 0-9.291 3.944-9.291 6.582 0 6.832 10.434 7.804 17.633 12.085 5.293 3.148 5.81 12.173-1.424 17.044Z" clip-rule="evenodd"/><path fill="url(#a)" fill-rule="evenodd" d="M25.703 39.644c.294-.822.42-1.67.42-2.465 0-12.32-23.273-9.447-23.273-22.973C2.85 5.182 9.495 0 19.84 0c11.05 0 25.042 5.961 25.042 24 0 17.538-13.789 24-24.821 24C7.016 48 2.85 40.553 2.85 34.926c0-2.932 2.586-4.65 4.65-4.65 2.436 0 4.649 1.894 4.649 4.65 0 3.911-.202 9.316 5.626 9.316 11.675 0 17.493-9.487 17.493-20.242S29.45 3.932 18.786 3.932c-6.966 0-9.291 3.944-9.291 6.582 0 6.832 10.434 7.804 17.633 12.085 5.293 3.148 5.81 12.173-1.424 17.044Z" clip-rule="evenodd"/><path fill="url(#b)" fill-rule="evenodd" d="M25.703 39.644c.294-.822.42-1.67.42-2.465 0-12.32-23.273-9.447-23.273-22.973C2.85 5.182 9.495 0 19.84 0c11.05 0 25.042 5.961 25.042 24 0 17.538-13.789 24-24.821 24C7.016 48 2.85 40.553 2.85 34.926c0-2.932 2.586-4.65 4.65-4.65 2.436 0 4.649 1.894 4.649 4.65 0 3.911-.202 9.316 5.626 9.316 11.675 0 17.493-9.487 17.493-20.242S29.45 3.932 18.786 3.932c-6.966 0-9.291 3.944-9.291 6.582 0 6.832 10.434 7.804 17.633 12.085 5.293 3.148 5.81 12.173-1.424 17.044Z" clip-rule="evenodd"/><path fill="url(#c)" fill-rule="evenodd" d="M13.763 4.831c-3.115 1.32-4.268 3.825-4.268 5.683 0 4.68 4.897 6.61 10.297 8.739 2.481.978 5.07 1.998 7.336 3.346 5.293 3.148 5.81 12.173-1.424 17.044.293-.82.42-1.669.42-2.464 0-6.016-5.55-8.41-11.229-10.858-5.951-2.566-12.044-5.194-12.044-12.115 0-6.228 3.165-10.626 8.527-12.754l2.385 3.38Z" clip-rule="evenodd"/><path fill="url(#d)" fill-rule="evenodd" d="M38.576 40.82C33.559 45.893 26.36 48 20.06 48 7.016 48 2.85 40.553 2.85 34.926c0-2.932 2.586-4.65 4.65-4.65 2.436 0 4.649 1.894 4.649 4.65v.38c-.007 3.872-.015 8.937 5.626 8.937 9.388 0 14.99-6.136 16.823-14.132l3.978 10.71Z" clip-rule="evenodd"/><path fill="url(#e)" fill-rule="evenodd" d="M11.378 1.452C13.785.497 16.635 0 19.84 0c11.05 0 25.043 5.961 25.043 24 0 10.832-5.26 17.44-11.883 20.908v-10.16c1.513-3.162 2.268-6.872 2.268-10.748 0-10.755-5.818-20.068-16.482-20.068-2.06 0-3.715.345-5.023.9l-2.385-3.38Z" clip-rule="evenodd"/><path fill="url(#f)" d="M81.136 7.4H67.84V41h13.296c10.416 0 18.144-6.96 18.144-16.944 0-9.84-7.728-16.656-18.144-16.656Zm-.48 27.36H74.56V13.64h6.096c7.056 0 11.616 3.84 11.616 10.416 0 6.768-4.56 10.704-11.616 10.704Z"/><path fill="url(#g)" d="M120.947 17.48v2.832C119.027 18.2 116.339 17 113.363 17c-6.576 0-11.664 5.04-11.664 12.288 0 7.2 5.088 12.192 11.712 12.192 2.976 0 5.616-1.2 7.536-3.264V41h6.24V17.48h-6.24Zm-6.288 18.144c-3.696 0-6.528-2.592-6.528-6.336 0-3.792 2.832-6.432 6.528-6.432 3.744 0 6.48 2.64 6.48 6.432 0 3.744-2.736 6.336-6.48 6.336Z"/><path fill="url(#h)" d="M143.825 41.48c1.536 0 3.936-.288 5.952-1.104v-6.144c-1.68 1.056-3.648 1.584-4.944 1.584-2.112 0-4.032-.816-4.032-3.408V22.76h8.976v-5.28h-8.976v-5.76h-6.24v5.76h-4.992v5.28h4.992v10.512c0 5.376 3.984 8.208 9.264 8.208Z"/><path fill="url(#i)" d="M170.988 17.48v2.832C169.068 18.2 166.38 17 163.404 17c-6.576 0-11.664 5.04-11.664 12.288 0 7.2 5.088 12.192 11.712 12.192 2.976 0 5.616-1.2 7.536-3.264V41h6.24V17.48h-6.24ZM164.7 35.624c-3.696 0-6.528-2.592-6.528-6.336 0-3.792 2.832-6.432 6.528-6.432 3.744 0 6.48 2.64 6.48 6.432 0 3.744-2.736 6.336-6.48 6.336Z"/><path fill="url(#j)" d="M194.97 41.48c8.208 0 14.112-4.128 14.112-10.512 0-11.808-19.68-8.544-19.68-14.448 0-2.064 2.4-3.12 5.856-3.12 3.84 0 8.352 1.296 11.952 3.36V9.368c-3.312-1.68-7.536-2.448-11.184-2.448-8.256 0-14.256 3.888-14.256 10.32 0 11.904 19.728 8.304 19.728 14.4 0 2.16-2.496 3.36-5.952 3.36-3.696 0-8.976-1.632-13.632-4.848v7.872c4.512 2.496 8.976 3.456 13.056 3.456Z"/><path fill="url(#k)" d="M225.891 17c-2.976 0-5.328.96-6.96 2.736V7.4h-6.24V41h6.24V28.76c0-4.176 2.352-5.856 5.472-5.856 2.832 0 4.56 1.824 4.56 4.416V41h6.24V26.024c0-5.712-4.224-9.024-9.312-9.024Z"/><path fill="url(#l)" d="M258.122 17.48v2.832C256.202 18.2 253.514 17 250.538 17c-6.576 0-11.664 5.04-11.664 12.288 0 7.2 5.088 12.192 11.712 12.192 2.976 0 5.616-1.2 7.536-3.264V41h6.24V17.48h-6.24Zm-6.288 18.144c-3.696 0-6.528-2.592-6.528-6.336 0-3.792 2.832-6.432 6.528-6.432 3.744 0 6.48 2.64 6.48 6.432 0 3.744-2.736 6.336-6.48 6.336Z"/><path fill="url(#m)" d="M283.448 17c-3.12 0-5.712 1.152-7.584 3.12v-2.64h-6.24v32.64h6.24V38.408c1.872 1.968 4.416 3.072 7.536 3.072 6.72 0 11.712-4.992 11.712-12.192 0-7.248-4.992-12.288-11.664-12.288Zm-1.296 18.624c-3.744 0-6.48-2.592-6.48-6.336 0-3.792 2.736-6.432 6.48-6.432 3.696 0 6.528 2.64 6.528 6.432 0 3.744-2.832 6.336-6.528 6.336Z"/><path fill="url(#n)" d="M309.83 17c-7.056 0-12.336 5.088-12.336 12.192 0 7.2 5.904 12.288 14.064 12.288 2.592 0 6.528-.48 9.312-2.352v-6.24c-4.032 2.688-7.056 2.928-8.928 2.928-3.648 0-6.528-1.008-7.584-4.224h17.04C322.55 22.28 317.174 17 309.83 17Zm.192 5.328c2.736 0 4.8 1.344 4.944 4.56H304.07c.624-2.976 2.88-4.56 5.952-4.56Z"/><defs><linearGradient id="a" x1="9" x2="36.5" y1="1" y2="45.5" gradientUnits="userSpaceOnUse"><stop stop-color="#2C0360"/><stop offset=".245" stop-color="#801DFF"/><stop offset="1" stop-color="#B71DFF" stop-opacity="0"/></linearGradient><linearGradient id="b" x1="21" x2="36.5" y1="22" y2="45.5" gradientUnits="userSpaceOnUse"><stop stop-color="#8419C5" stop-opacity="0"/><stop offset="1" stop-color="#192AC5"/></linearGradient><linearGradient id="c" x1="30" x2="10.5" y1="38.5" y2="11" gradientUnits="userSpaceOnUse"><stop stop-color="#26E3EF"/><stop offset="1" stop-color="#283EFF" stop-opacity="0"/></linearGradient><linearGradient id="d" x1=".5" x2="33.5" y1="31" y2="48" gradientUnits="userSpaceOnUse"><stop stop-color="#0EE9CE"/><stop offset="1" stop-color="#4628FF" stop-opacity="0"/></linearGradient><linearGradient id="e" x1="50" x2="29.5" y1="18" y2="24" gradientUnits="userSpaceOnUse"><stop stop-color="#0804B1"/><stop offset="1" stop-color="#28CBFF" stop-opacity="0"/></linearGradient><linearGradient id="f" x1="64" x2="331.054" y1="24" y2="24" gradientUnits="userSpaceOnUse"><stop stop-color="#10C0C8"/><stop offset=".313" stop-color="#32C0ED"/><stop offset=".521" stop-color="#4B59D5"/><stop offset=".849" stop-color="#7645F9"/><stop offset="1" stop-color="#3E0981"/></linearGradient><linearGradient id="g" x1="64" x2="331.054" y1="24" y2="24" gradientUnits="userSpaceOnUse"><stop stop-color="#10C0C8"/><stop offset=".313" stop-color="#32C0ED"/><stop offset=".521" stop-color="#4B59D5"/><stop offset=".849" stop-color="#7645F9"/><stop offset="1" stop-color="#3E0981"/></linearGradient><linearGradient id="h" x1="64" x2="331.054" y1="24" y2="24" gradientUnits="userSpaceOnUse"><stop stop-color="#10C0C8"/><stop offset=".313" stop-color="#32C0ED"/><stop offset=".521" stop-color="#4B59D5"/><stop offset=".849" stop-color="#7645F9"/><stop offset="1" stop-color="#3E0981"/></linearGradient><linearGradient id="i" x1="64" x2="331.054" y1="24" y2="24" gradientUnits="userSpaceOnUse"><stop stop-color="#10C0C8"/><stop offset=".313" stop-color="#32C0ED"/><stop offset=".521" stop-color="#4B59D5"/><stop offset=".849" stop-color="#7645F9"/><stop offset="1" stop-color="#3E0981"/></linearGradient><linearGradient id="j" x1="64" x2="331.054" y1="24" y2="24" gradientUnits="userSpaceOnUse"><stop stop-color="#10C0C8"/><stop offset=".313" stop-color="#32C0ED"/><stop offset=".521" stop-color="#4B59D5"/><stop offset=".849" stop-color="#7645F9"/><stop offset="1" stop-color="#3E0981"/></linearGradient><linearGradient id="k" x1="64" x2="331.054" y1="24" y2="24" gradientUnits="userSpaceOnUse"><stop stop-color="#10C0C8"/><stop offset=".313" stop-color="#32C0ED"/><stop offset=".521" stop-color="#4B59D5"/><stop offset=".849" stop-color="#7645F9"/><stop offset="1" stop-color="#3E0981"/></linearGradient><linearGradient id="l" x1="64" x2="331.054" y1="24" y2="24" gradientUnits="userSpaceOnUse"><stop stop-color="#10C0C8"/><stop offset=".313" stop-color="#32C0ED"/><stop offset=".521" stop-color="#4B59D5"/><stop offset=".849" stop-color="#7645F9"/><stop offset="1" stop-color="#3E0981"/></linearGradient><linearGradient id="m" x1="64" x2="331.054" y1="24" y2="24" gradientUnits="userSpaceOnUse"><stop stop-color="#10C0C8"/><stop offset=".313" stop-color="#32C0ED"/><stop offset=".521" stop-color="#4B59D5"/><stop offset=".849" stop-color="#7645F9"/><stop offset="1" stop-color="#3E0981"/></linearGradient><linearGradient id="n" x1="64" x2="331.054" y1="24" y2="24" gradientUnits="userSpaceOnUse"><stop stop-color="#10C0C8"/><stop offset=".313" stop-color="#32C0ED"/><stop offset=".521" stop-color="#4B59D5"/><stop offset=".849" stop-color="#7645F9"/><stop offset="1" stop-color="#3E0981"/></linearGradient></defs></svg>