<svg xmlns="http://www.w3.org/2000/svg" width="84" height="112" fill="none" viewBox="0 0 84 112"><path fill="url(#a)" d="M46.667 3.833 68.834 26l-31.5 31.5-22.167-22.166 31.5-31.5Zm0 7-24.5 24.5L37.334 50.5l24.5-24.5-15.167-15.166Z"/><path fill="url(#b)" d="m60.667 68.5 8.167 8.167-31.5 31.5L15.167 86l8.167-8.167 3.5 3.5L22.167 86l15.167 15.167 24.5-24.5L57.167 72l3.5-3.5Z"/><g filter="url(#c)"><path fill="#74FFB6" d="M37.334 66.5 25.455 54.62a3 3 0 0 0-4.243 0l-3.924 3.924a3 3 0 0 0 0 4.243l17.924 17.924a3 3 0 0 0 4.243 0l27.257-27.258a3 3 0 0 0 0-4.242l-3.924-3.924a3 3 0 0 0-4.242 0L37.334 66.5Z"/></g><defs><linearGradient id="a" x1="42" x2="42" y1="3.833" y2="57.5" gradientUnits="userSpaceOnUse"><stop stop-color="#005329" stop-opacity=".5"/><stop offset="1" stop-color="#189757"/></linearGradient><linearGradient id="b" x1="42" x2="42" y1="68.5" y2="108.167" gradientUnits="userSpaceOnUse"><stop stop-color="#005329"/><stop offset="0" stop-color="#0E7D45"/><stop offset="1" stop-color="#005329" stop-opacity=".6"/></linearGradient><filter id="c" width="83.182" height="69.181" x=".409" y="28.409" color-interpolation-filters="sRGB" filterUnits="userSpaceOnUse"><feFlood flood-opacity="0" result="BackgroundImageFix"/><feColorMatrix in="SourceAlpha" result="hardAlpha" values="0 0 0 0 0 0 0 0 0 0 0 0 0 0 0 0 0 0 127 0"/><feOffset/><feGaussianBlur stdDeviation="8"/><feComposite in2="hardAlpha" operator="out"/><feColorMatrix values="0 0 0 0 0 0 0 0 0 0.937255 0 0 0 0 0.443137 0 0 0 1 0"/><feBlend in2="BackgroundImageFix" result="effect1_dropShadow_22_489"/><feBlend in="SourceGraphic" in2="effect1_dropShadow_22_489" result="shape"/><feColorMatrix in="SourceAlpha" result="hardAlpha" values="0 0 0 0 0 0 0 0 0 0 0 0 0 0 0 0 0 0 127 0"/><feOffset/><feGaussianBlur stdDeviation="3"/><feComposite in2="hardAlpha" k2="-1" k3="1" operator="arithmetic"/><feColorMatrix values="0 0 0 0 0 0 0 0 0 0.937255 0 0 0 0 0.443137 0 0 0 1 0"/><feBlend in2="shape" result="effect2_innerShadow_22_489"/></filter></defs></svg>