<svg xmlns="http://www.w3.org/2000/svg" width="256" height="72" fill="none" viewBox="0 0 256 72"><path fill="#559" d="M16.373 18.527 11.824 6.091 7.242 18.527h9.131ZM20.203 29l-2.75-7.527H6.163L3.412 29H.075l10.08-26.182h3.437L23.672 29h-3.47ZM33.663 15.975h8.182c1.767 0 3.022-.328 3.763-.982.764-.655 1.146-1.735 1.146-3.24v-2.03c0-1.418-.382-2.432-1.146-3.043-.741-.61-1.996-.916-3.763-.916h-8.182v10.21Zm0 13.025H30.39V2.818h11.487c2.728 0 4.768.578 6.12 1.735 1.353 1.134 2.03 2.858 2.03 5.17v2.03c0 2.072-.535 3.687-1.604 4.843-1.047 1.157-2.65 1.877-4.81 2.16L50.32 29h-3.73l-6.644-10.145h-6.284V29ZM65.287 29V5.764h-8.182V2.818h19.637v2.946H68.56V29h-3.273ZM83.823 29v-2.945h6.546V5.764h-6.546V2.818h16.364v2.946h-6.545v20.29h6.545V29H83.823ZM108.905 29V2.818h17.019v2.946h-13.746v10.145h11.455v2.946h-11.455V29h-3.273ZM133.987 29v-2.945h6.546V5.764h-6.546V2.818h16.364v2.946h-6.546v20.29h6.546V29h-16.364ZM169.215 29.327c-3.295 0-5.815-.796-7.56-2.389-1.724-1.614-2.586-3.949-2.586-7.003v-7.92c0-3.099.873-5.455 2.618-7.07 1.746-1.636 4.266-2.454 7.56-2.454 3.12 0 5.542.72 7.266 2.16 1.745 1.418 2.694 3.654 2.847 6.709l-3.273.327c-.196-2.4-.829-4.036-1.898-4.909-1.069-.894-2.727-1.342-4.974-1.342-2.444 0-4.2.513-5.269 1.539-1.07 1.025-1.604 2.705-1.604 5.04v7.92c0 2.29.534 3.938 1.604 4.941 1.069 1.004 2.825 1.506 5.269 1.506 2.4 0 4.134-.47 5.203-1.408 1.091-.96 1.648-2.53 1.669-4.712l3.273.327c0 2.837-.873 5.007-2.618 6.513-1.724 1.483-4.233 2.225-7.527 2.225ZM187.421 29v-2.945h6.545V5.764h-6.545V2.818h16.363v2.946h-6.545v20.29h6.545V29h-16.363ZM226.837 18.527l-4.549-12.436-4.582 12.436h9.131ZM230.666 29l-2.749-7.527h-11.291L213.877 29h-3.338l10.08-26.182h3.436L234.135 29h-3.469ZM240.854 29V2.818h3.273v23.236h11.781V29h-15.054ZM72.567 62.455l-6.35-15.873V69H63.11V42.818h4.909l6.676 16.92 6.644-16.92h4.68V69h-3.11V46.614l-6.348 15.84h-3.993ZM94.73 69V42.818h17.018v2.946H98.002v7.527h12.11v2.945h-12.11v9.819h13.746V69H94.73ZM119.812 69V42.818h8.869c3.36 0 5.989.873 7.887 2.618 1.92 1.724 2.88 4.026 2.88 6.906v7.265c0 2.858-.96 5.139-2.88 6.84-1.92 1.702-4.56 2.553-7.92 2.553h-8.836Zm3.272-2.945h5.564c2.531 0 4.418-.59 5.662-1.768 1.243-1.2 1.865-2.76 1.865-4.68v-7.265c0-1.898-.622-3.47-1.865-4.713-1.244-1.243-3.131-1.865-5.662-1.865h-5.564v20.29ZM148.163 69v-2.945h6.545V45.764h-6.545v-2.946h16.364v2.946h-6.546v20.29h6.546V69h-16.364ZM187.579 58.527l-4.549-12.436-4.582 12.436h9.131ZM191.408 69l-2.749-7.527h-11.291L174.619 69h-3.338l10.08-26.182h3.437L194.878 69h-3.47Z"/></svg>