<svg width="270" height="54" viewBox="0 0 270 54" fill="none" xmlns="http://www.w3.org/2000/svg">
<path d="M23.625 44.5234V52.3125L3.375 40.6302V32.8411L23.625 44.5234ZM3.375 25.0534V17.2643L47.25 42.5768L30.375 52.3125V40.6302L3.375 25.0534ZM50.625 28.9466V36.7357L6.75 11.4232L23.625 1.6875V13.3698L50.625 28.9466ZM50.625 13.3698V21.1589L30.375 9.47658V1.6875L50.625 13.3698Z" fill="#C9D1E0"/>
<path d="M247.762 14.6526H255.7V42.6666H247.762V14.6526ZM235.498 11.1666H267.964V18.1806H235.498V11.1666Z" fill="#C9D1E0"/>
<path d="M224.876 37.2486L222.314 37.7106V11.1666H230V42.6666H220.004L200.81 16.1226L203.372 15.6606V42.6666H195.686V11.1666H205.976L224.876 37.2486Z" fill="#C9D1E0"/>
<path d="M187.45 23.9766V29.8566H164.644V23.9766H187.45ZM170.02 26.9166L167.92 39.9366L164.602 36.1986H188.794V42.6666H159.982L162.418 26.9166L159.982 11.1666H188.584V17.6346H164.602L167.92 13.8966L170.02 26.9166Z" fill="#C9D1E0"/>
<path d="M135.419 11.1666V39.1386L131.849 35.6526H155.453V42.6666H127.481V11.1666H135.419Z" fill="#C9D1E0"/>
<path d="M111.732 11.1666H119.67V42.6666H111.732V11.1666Z" fill="#C9D1E0"/>
<path d="M73.554 32.3766H81.576C81.716 33.3286 82.15 34.1686 82.878 34.8966C83.606 35.6246 84.572 36.1846 85.776 36.5766C87.008 36.9686 88.436 37.1646 90.06 37.1646C92.384 37.1646 94.204 36.8426 95.52 36.1986C96.864 35.5546 97.536 34.6446 97.536 33.4686C97.536 32.5726 97.144 31.8866 96.36 31.4106C95.604 30.9066 94.176 30.5426 92.076 30.3186L85.986 29.6886C81.758 29.2686 78.692 28.2886 76.788 26.7486C74.912 25.2086 73.974 23.1086 73.974 20.4486C73.974 18.3486 74.59 16.5566 75.822 15.0726C77.082 13.5886 78.832 12.4546 81.072 11.6706C83.34 10.8866 85.986 10.4946 89.01 10.4946C92.006 10.4946 94.652 10.9286 96.948 11.7966C99.244 12.6646 101.078 13.8686 102.45 15.4086C103.822 16.9486 104.564 18.7406 104.676 20.7846H96.654C96.542 19.9446 96.15 19.2306 95.478 18.6426C94.834 18.0266 93.952 17.5506 92.832 17.2146C91.74 16.8506 90.41 16.6686 88.842 16.6686C86.742 16.6686 85.062 16.9766 83.802 17.5926C82.57 18.1806 81.954 19.0346 81.954 20.1546C81.954 20.9946 82.318 21.6526 83.046 22.1286C83.802 22.6046 85.132 22.9546 87.036 23.1786L93.462 23.8926C96.402 24.2006 98.754 24.6906 100.518 25.3626C102.282 26.0346 103.556 26.9586 104.34 28.1346C105.124 29.3106 105.516 30.7946 105.516 32.5866C105.516 34.7426 104.858 36.6326 103.542 38.2566C102.254 39.8526 100.434 41.0986 98.082 41.9946C95.758 42.8906 93.042 43.3386 89.934 43.3386C86.714 43.3386 83.886 42.8766 81.45 41.9526C79.042 41.0286 77.138 39.7546 75.738 38.1306C74.366 36.4786 73.638 34.5606 73.554 32.3766Z" fill="#C9D1E0"/>
</svg>
