<svg xmlns="http://www.w3.org/2000/svg" width="358" height="342" fill="none" viewBox="0 0 358 342"><g filter="url(#a)"><path fill="url(#b)" d="M153.02 111c11.547-20 40.414-20 51.961 0l51.962 90c11.547 20-2.887 45-25.981 45H127.039c-23.094 0-37.528-25-25.981-45l51.962-90Z"/></g><g filter="url(#c)" opacity=".75"><path fill="url(#d)" d="M153.02 111c11.547-20 40.414-20 51.961 0l51.962 90c11.547 20-2.887 45-25.981 45H127.039c-23.094 0-37.528-25-25.981-45l51.962-90Z"/></g><path fill="url(#e)" fill-rule="evenodd" d="M189.39 119.997a12 12 0 0 0-20.78 0l-26 45-26 45a11.964 11.964 0 0 0-.999 2.216c-1.767 5.294.365 11.276 5.386 14.177 5.738 3.316 13.078 1.352 16.393-4.387L153 194.987l15.61 27.016a12 12 0 0 0 20.78 0L205 194.987l15.61 27.016c3.315 5.739 10.655 7.703 16.393 4.387 5.739-3.315 7.703-10.655 4.387-16.393l-26-45-26-45ZM191.141 171 179 149.987 166.859 171 179 192.013 191.141 171Z" clip-rule="evenodd"/><path stroke="#272727" stroke-linecap="round" stroke-linejoin="round" stroke-width="24" d="m231 216-26-45-26 45-26-45-26 45" style="mix-blend-mode:color-dodge"/><path stroke="#3E3E3E" stroke-linecap="round" stroke-linejoin="round" stroke-width="24" d="m231 216-52-90-52 90" style="mix-blend-mode:color-dodge"/><circle cx="179" cy="126" r="12" fill="#621BBC" style="mix-blend-mode:color-dodge"/><circle cx="179" cy="216" r="12" fill="#3E3E3E" style="mix-blend-mode:color-dodge"/><defs><radialGradient id="b" cx="0" cy="0" r="1" gradientTransform="matrix(0 -150 164.013 0 179 246)" gradientUnits="userSpaceOnUse"><stop stop-color="#3CFFF3"/><stop offset="1" stop-color="#FF30C5"/></radialGradient><radialGradient id="d" cx="0" cy="0" r="1" gradientTransform="matrix(0 -120 131.21 0 179 216)" gradientUnits="userSpaceOnUse"><stop stop-color="#3CDCFF"/><stop offset="1" stop-color="#5B00CF"/></radialGradient><filter id="a" width="356.013" height="342" x=".994" y="0" color-interpolation-filters="sRGB" filterUnits="userSpaceOnUse"><feFlood flood-opacity="0" result="BackgroundImageFix"/><feBlend in="SourceGraphic" in2="BackgroundImageFix" result="shape"/><feGaussianBlur result="effect1_foregroundBlur_22_440" stdDeviation="48"/></filter><filter id="c" width="324.013" height="310" x="16.994" y="16" color-interpolation-filters="sRGB" filterUnits="userSpaceOnUse"><feFlood flood-opacity="0" result="BackgroundImageFix"/><feBlend in="SourceGraphic" in2="BackgroundImageFix" result="shape"/><feGaussianBlur result="effect1_foregroundBlur_22_440" stdDeviation="40"/></filter><linearGradient id="e" x1="179" x2="179" y1="114" y2="228.002" gradientUnits="userSpaceOnUse"><stop stop-color="#AF95E4"/><stop offset="1" stop-color="#79B7EF"/></linearGradient></defs></svg>