<svg xmlns="http://www.w3.org/2000/svg" width="360" height="94" fill="none" viewBox="0 0 360 94"><g fill="#74FFB6" filter="url(#a)"><path d="M37.496 59.576c-2.816 0-5.216-.72-7.2-2.16-1.952-1.44-3.456-3.456-4.512-6.048-1.024-2.624-1.536-5.664-1.536-9.12 0-3.488.512-6.528 1.536-9.12 1.056-2.624 2.576-4.656 4.56-6.096 1.984-1.472 4.368-2.208 7.152-2.208 3.616 0 6.496.992 8.64 2.976 2.144 1.952 3.392 4.608 3.744 7.968h-5.616c-.288-1.76-1.008-3.216-2.16-4.368-1.12-1.184-2.672-1.776-4.656-1.776-2.528 0-4.496 1.12-5.904 3.36-1.408 2.24-2.112 5.328-2.112 9.264 0 3.904.704 6.976 2.112 9.216 1.408 2.208 3.376 3.312 5.904 3.312 2.048 0 3.616-.528 4.704-1.584 1.088-1.088 1.792-2.512 2.112-4.272h5.616c-.512 3.296-1.808 5.904-3.888 7.824-2.08 1.888-4.912 2.832-8.496 2.832ZM55.477 59v-4.416h5.808V41.192c0-1.056-.512-1.584-1.536-1.584h-3.792v-4.416h5.712c1.312 0 2.384.384 3.216 1.152.832.736 1.248 1.776 1.248 3.12v.576h.24c.352-1.792 1.104-3.136 2.256-4.032 1.184-.928 2.896-1.392 5.136-1.392h3.696v5.376h-5.184c-1.888 0-3.344.656-4.368 1.968-1.024 1.312-1.536 2.88-1.536 4.704v7.92h7.392V59H55.477ZM87.427 69.56l5.663-12.528h-1.392l-9.263-21.84h5.52l7.103 17.424 7.537-17.424h5.328L92.803 69.56h-5.376ZM112.656 69.56V35.192h4.416l.384 3.648h.288c.64-1.184 1.6-2.176 2.88-2.976 1.312-.832 2.864-1.248 4.656-1.248 1.856 0 3.552.48 5.088 1.44 1.536.928 2.752 2.32 3.648 4.176.928 1.824 1.392 4.112 1.392 6.864 0 2.72-.48 5.008-1.44 6.864-.928 1.856-2.192 3.264-3.792 4.224-1.6.928-3.392 1.392-5.376 1.392-1.76 0-3.232-.352-4.416-1.056-1.184-.704-2.064-1.504-2.64-2.4v13.44h-5.088Zm11.28-14.832c1.792 0 3.28-.64 4.464-1.92 1.216-1.28 1.824-3.2 1.824-5.76 0-2.56-.608-4.464-1.824-5.712-1.184-1.248-2.672-1.872-4.464-1.872-1.824 0-3.344.64-4.56 1.92-1.184 1.248-1.776 3.152-1.776 5.712 0 2.528.592 4.432 1.776 5.712 1.216 1.28 2.736 1.92 4.56 1.92ZM155.117 59c-2.336 0-4.192-.56-5.568-1.68-1.376-1.152-2.064-3.184-2.064-6.096V39.512h-6v-4.32h3.552c1.632 0 2.592-.8 2.88-2.4l.72-3.84h3.936v6.24h9.408v4.32h-9.408v11.616c0 1.248.272 2.128.816 2.64.576.48 1.552.72 2.928.72h5.568V59h-6.768ZM181.306 59.576c-2.272 0-4.304-.512-6.096-1.536-1.792-1.024-3.2-2.464-4.224-4.32-1.024-1.888-1.536-4.096-1.536-6.624 0-2.528.512-4.72 1.536-6.576 1.024-1.888 2.432-3.344 4.224-4.368 1.792-1.024 3.84-1.536 6.144-1.536 2.304 0 4.336.512 6.096 1.536 1.792 1.024 3.184 2.48 4.176 4.368 1.024 1.856 1.536 4.048 1.536 6.576 0 2.528-.512 4.736-1.536 6.624-1.024 1.856-2.432 3.296-4.224 4.32-1.76 1.024-3.792 1.536-6.096 1.536Zm0-4.848c1.216 0 2.336-.272 3.36-.816 1.024-.544 1.84-1.376 2.448-2.496.64-1.152.96-2.592.96-4.32 0-1.76-.32-3.2-.96-4.32-.608-1.12-1.424-1.952-2.448-2.496-.992-.544-2.096-.816-3.312-.816-1.216 0-2.336.272-3.36.816-1.024.544-1.856 1.376-2.496 2.496-.608 1.12-.912 2.56-.912 4.32 0 2.624.656 4.56 1.968 5.808 1.344 1.216 2.928 1.824 4.752 1.824ZM199.096 59V25.4h11.376c2.56 0 4.672.448 6.336 1.344 1.664.864 2.896 2.064 3.696 3.6.8 1.536 1.2 3.296 1.2 5.28 0 1.984-.4 3.744-1.2 5.28-.8 1.536-2.032 2.752-3.696 3.648-1.664.864-3.776 1.296-6.336 1.296h-6.288V59h-5.088Zm5.088-17.712h6.048c2.176 0 3.76-.512 4.752-1.536 1.024-1.024 1.536-2.4 1.536-4.128 0-1.696-.512-3.056-1.536-4.08-.992-1.056-2.576-1.584-4.752-1.584h-6.048v11.328ZM228.165 59v-4.416h5.808V41.192c0-1.056-.512-1.584-1.536-1.584h-3.792v-4.416h5.712c1.312 0 2.384.384 3.216 1.152.832.736 1.248 1.776 1.248 3.12v.576h.24c.352-1.792 1.104-3.136 2.256-4.032 1.184-.928 2.896-1.392 5.136-1.392h3.696v5.376h-5.184c-1.888 0-3.344.656-4.368 1.968-1.024 1.312-1.536 2.88-1.536 4.704v7.92h7.392V59h-18.288ZM267.65 59.576c-2.272 0-4.304-.512-6.096-1.536-1.792-1.024-3.2-2.464-4.224-4.32-1.024-1.888-1.536-4.096-1.536-6.624 0-2.528.512-4.72 1.536-6.576 1.024-1.888 2.432-3.344 4.224-4.368 1.792-1.024 3.84-1.536 6.144-1.536 2.304 0 4.336.512 6.096 1.536 1.792 1.024 3.184 2.48 4.176 4.368 1.024 1.856 1.536 4.048 1.536 6.576 0 2.528-.512 4.736-1.536 6.624-1.024 1.856-2.432 3.296-4.224 4.32-1.76 1.024-3.792 1.536-6.096 1.536Zm0-4.848c1.216 0 2.336-.272 3.36-.816 1.024-.544 1.84-1.376 2.448-2.496.64-1.152.96-2.592.96-4.32 0-1.76-.32-3.2-.96-4.32-.608-1.12-1.424-1.952-2.448-2.496-.992-.544-2.096-.816-3.312-.816-1.216 0-2.336.272-3.36.816-1.024.544-1.856 1.376-2.496 2.496-.608 1.12-.912 2.56-.912 4.32 0 2.624.656 4.56 1.968 5.808 1.344 1.216 2.928 1.824 4.752 1.824ZM296.431 59.576c-2.272 0-4.304-.512-6.096-1.536-1.792-1.024-3.2-2.464-4.224-4.32-1.024-1.888-1.536-4.096-1.536-6.624 0-2.528.512-4.72 1.536-6.576 1.024-1.888 2.432-3.344 4.224-4.368 1.792-1.024 3.84-1.536 6.144-1.536 2.304 0 4.336.512 6.096 1.536 1.792 1.024 3.184 2.48 4.176 4.368 1.024 1.856 1.536 4.048 1.536 6.576 0 2.528-.512 4.736-1.536 6.624-1.024 1.856-2.432 3.296-4.224 4.32-1.76 1.024-3.792 1.536-6.096 1.536Zm0-4.848c1.216 0 2.336-.272 3.36-.816 1.024-.544 1.84-1.376 2.448-2.496.64-1.152.96-2.592.96-4.32 0-1.76-.32-3.2-.96-4.32-.608-1.12-1.424-1.952-2.448-2.496-.992-.544-2.096-.816-3.312-.816-1.216 0-2.336.272-3.36.816-1.024.544-1.856 1.376-2.496 2.496-.608 1.12-.912 2.56-.912 4.32 0 2.624.656 4.56 1.968 5.808 1.344 1.216 2.928 1.824 4.752 1.824ZM314.125 69.56v-4.464h3.888c1.12 0 1.92-.24 2.4-.72.512-.448.768-1.216.768-2.304v-22.56h-6.048v-4.32h6.048V31.88c0-2.656.656-4.56 1.968-5.712 1.312-1.152 3.184-1.728 5.616-1.728h5.808v4.464h-5.184c-1.12 0-1.92.224-2.4.672-.48.448-.72 1.232-.72 2.352v3.264h8.304v4.32h-8.304V62.12c0 2.656-.656 4.56-1.968 5.712-1.312 1.152-3.2 1.728-5.664 1.728h-4.512Z"/></g><defs><filter id="a" width="358.324" height="93.12" x=".248" y=".44" color-interpolation-filters="sRGB" filterUnits="userSpaceOnUse"><feFlood flood-opacity="0" result="BackgroundImageFix"/><feColorMatrix in="SourceAlpha" result="hardAlpha" values="0 0 0 0 0 0 0 0 0 0 0 0 0 0 0 0 0 0 127 0"/><feOffset/><feGaussianBlur stdDeviation="12"/><feComposite in2="hardAlpha" operator="out"/><feColorMatrix values="0 0 0 0 0 0 0 0 0 0.937255 0 0 0 0 0.443137 0 0 0 1 0"/><feBlend in2="BackgroundImageFix" result="effect1_dropShadow_22_493"/><feBlend in="SourceGraphic" in2="effect1_dropShadow_22_493" result="shape"/><feColorMatrix in="SourceAlpha" result="hardAlpha" values="0 0 0 0 0 0 0 0 0 0 0 0 0 0 0 0 0 0 127 0"/><feOffset/><feGaussianBlur stdDeviation="1"/><feComposite in2="hardAlpha" k2="-1" k3="1" operator="arithmetic"/><feColorMatrix values="0 0 0 0 0 0 0 0 0 0.937255 0 0 0 0 0.443137 0 0 0 1 0"/><feBlend in2="shape" result="effect2_innerShadow_22_493"/></filter></defs></svg>