<svg xmlns="http://www.w3.org/2000/svg" width="144" height="32" fill="none" viewBox="0 0 144 32"><path fill="#3A1C7B" d="M8.496 4.48h-4V28h4V4.48ZM35.16 4.48h-4v14.56L16.824 4.064h-.128V28h4V13.408l14.336 15.008h.128V4.48ZM47.365 4.48h-4V28H58.02v-3.552H47.365V4.48ZM73.998 4.064c-6.88 0-11.968 5.184-11.968 12.192 0 7.04 5.088 12.16 11.968 12.16 6.848 0 11.968-5.12 11.968-12.16 0-7.008-5.12-12.192-11.968-12.192Zm0 3.68c4.608 0 7.904 3.552 7.904 8.512 0 4.96-3.296 8.48-7.904 8.48-4.64 0-7.904-3.52-7.904-8.48 0-4.96 3.264-8.512 7.904-8.512ZM103.635 4.064c-6.88 0-11.968 5.184-11.968 12.192 0 7.04 5.088 12.16 11.968 12.16 6.848 0 11.968-5.12 11.968-12.16 0-7.008-5.12-12.192-11.968-12.192Zm0 3.68c4.608 0 7.904 3.552 7.904 8.512 0 4.96-3.296 8.48-7.904 8.48-4.64 0-7.904-3.52-7.904-8.48 0-4.96 3.264-8.512 7.904-8.512ZM139.781 4.48h-4.704l-8.8 15.456V4.48h-4V28h3.072l5.344-8.608 5.92 8.608h4.832l-8.512-12.192 6.848-11.328Z"/></svg>