<svg xmlns="http://www.w3.org/2000/svg" width="328" height="64" fill="none" viewBox="0 0 328 64"><path fill="#BC6AFD" fill-rule="evenodd" d="m2.344 61.657 31.99-27.323L57.172 57.17c2.52 2.52.735 6.829-2.828 6.829H8a7.975 7.975 0 0 1-5.656-2.343Z" clip-rule="evenodd"/><path fill="#C7F454" d="M7.999 0A8 8 0 0 0 0 8v48c0 2.21.895 4.21 2.343 5.657L57.172 6.828C59.69 4.31 57.908.002 54.346 0H7.999Z"/><path fill="#BC6AFD" d="M145.25 4.625H280V17.5H145.25V4.625Z"/><path fill="#C7F454" d="m100.53 47.09 6.79-7.84 13.3 17.5h14.42l-19.67-26.74L133.5 9.15h-14l-18.97 21.63V9.15H88.7v47.6h11.83v-9.66ZM150.898 56.75V22.8h-11.34v33.95h11.34ZM179.549 21.75c-3.64 0-6.65 1.19-9.38 3.36V22.8h-11.34v33.95h11.34V35.47c1.96-2.24 4.2-3.43 6.3-3.43 3.71 0 6.16 2.31 6.16 7.14v17.57h11.41V37.36c0-9.66-5.88-15.61-14.49-15.61ZM234.818 39.04c0-10.22-7.49-17.01-17.36-17.01-10.85 0-18.06 7.42-18.06 17.71 0 10.36 7.42 17.78 18.55 17.78 8.4 0 14.91-4.41 16.52-11.41h-11.2c-.98 1.54-2.8 2.45-5.18 2.45-4.34 0-6.72-2.38-7.63-5.46h24.22l-.07-.21c.21-1.26.21-2.59.21-3.85Zm-17.36-8.26c3.64 0 6.09 1.96 6.72 5.67h-13.86c.84-3.43 3.29-5.67 7.14-5.67ZM268.295 56.12l-1.26-9.59c-2.52.49-4.41.84-6.02.84-3.36 0-5.32-1.68-5.32-5.11v-9.73h11.55V22.8h-29.54v9.73h6.65v10.08c0 9.17 5.46 15.19 13.65 15.19 3.36 0 5.88-.28 10.29-1.68ZM279.826 17.48c3.64 0 6.65-2.73 6.65-6.37 0-3.71-3.01-6.44-6.65-6.44-3.71 0-6.65 2.73-6.65 6.44 0 3.64 2.94 6.37 6.65 6.37Zm5.74 39.27V22.8h-11.34v33.95h11.34ZM310.302 47.93c-4.83 0-7.77-3.57-7.77-8.19 0-4.62 2.94-8.12 7.77-8.12 3.5 0 6.09 2.03 6.65 5.11h10.71c-.77-8.75-7.98-14.7-17.36-14.7-10.71 0-18.55 7.42-18.55 17.71 0 10.36 7.84 17.78 18.55 17.78 9.38 0 16.59-5.95 17.36-14.7h-10.71c-.56 3.08-3.15 5.11-6.65 5.11Z"/><path fill="#BC6AFD" d="M151.75 11.098c0 3.658-2.999 6.402-6.625 6.402-3.696 0-6.625-2.744-6.625-6.402 0-3.73 2.929-6.473 6.625-6.473 3.626 0 6.625 2.744 6.625 6.473Z"/><path fill="#C7F454" d="M286.438 11.098c0 3.658-2.999 6.402-6.625 6.402-3.697 0-6.625-2.744-6.625-6.402 0-3.73 2.928-6.473 6.625-6.473 3.626 0 6.625 2.744 6.625 6.473Z"/></svg>