<svg xmlns="http://www.w3.org/2000/svg" width="464" height="48" fill="none" viewBox="0 0 464 48"><g clip-path="url(#a)"><path fill="url(#b)" d="M9.52 22.04v-7.008h34.512V7.4H-.032V41H9.52V29.144h33.84V22.04H9.52Z"/><path fill="url(#c)" d="M49.67 24.2c0 4.8 1.344 8.832 4.512 12 3.264 3.264 9.264 6.048 23.472 6.048 14.208 0 20.208-2.784 23.472-6.048 3.168-3.168 4.512-7.2 4.512-12s-1.344-8.832-4.512-12c-3.264-3.264-9.264-6.048-23.472-6.048-14.208 0-20.208 2.784-23.472 6.048-3.168 3.168-4.512 7.2-4.512 12Zm46.224 0c0 3.6-1.104 5.712-2.544 7.152C91.382 33.32 87.254 35 77.654 35s-13.728-1.68-15.696-3.648c-1.44-1.44-2.544-3.552-2.544-7.152s1.104-5.712 2.544-7.152c1.968-1.968 6.096-3.648 15.696-3.648s13.728 1.68 15.696 3.648c1.44 1.44 2.544 3.552 2.544 7.152Z"/><path fill="url(#d)" d="M161.384 18.728c0-2.64-.576-5.568-2.688-7.68C156.248 8.6 152.84 7.4 142.712 7.4h-29.28V41h9.552V30.2h12L151.16 41h13.968v-.144l-16.944-10.8c5.76-.432 8.448-1.68 10.368-3.6 2.304-2.304 2.832-5.184 2.832-7.728Zm-10.608-2.352c.72.72 1.008 1.536 1.008 2.64 0 .96-.336 1.92-.96 2.544-1.248 1.248-3.84 1.584-8.256 1.584h-19.584v-8.016h19.584c4.896 0 7.152.192 8.208 1.248Z"/><path fill="url(#e)" d="m221.337 7.4-17.952 27.936L185.337 7.4h-15.408V41h9.072V13.928L196.953 41h12.48l17.76-26.928.144 26.928h9.456V7.4h-15.456Z"/><path fill="url(#f)" d="m249.417 45.752 33.6-43.104h-9.552l-33.744 43.104h9.696Z"/><path fill="url(#g)" d="M295.476 33.272V7.4h-9.552V41h42.72v-7.728h-33.168Z"/><path fill="url(#h)" d="M345.229 41V7.4h-9.552V41h9.552Z"/><path fill="url(#i)" d="M408.417 7.4h-11.088l-17.76 26.448L361.857 7.4h-11.568L373.473 41h11.76l23.184-33.6Z"/><path fill="url(#j)" d="M422.589 20.456v-5.424h35.856V7.4h-45.216V41h45.216v-7.632h-35.856v-5.76h34.944v-7.152h-34.944Z"/></g><defs><linearGradient id="b" x1="-5.6" x2="463.4" y1="27" y2="27" gradientUnits="userSpaceOnUse"><stop stop-color="#0029B9"/><stop offset="1" stop-color="#C0A0BD"/></linearGradient><linearGradient id="c" x1="-5.6" x2="463.4" y1="27" y2="27" gradientUnits="userSpaceOnUse"><stop stop-color="#0029B9"/><stop offset="1" stop-color="#C0A0BD"/></linearGradient><linearGradient id="d" x1="-5.6" x2="463.4" y1="27" y2="27" gradientUnits="userSpaceOnUse"><stop stop-color="#0029B9"/><stop offset="1" stop-color="#C0A0BD"/></linearGradient><linearGradient id="e" x1="-5.6" x2="463.4" y1="27" y2="27" gradientUnits="userSpaceOnUse"><stop stop-color="#0029B9"/><stop offset="1" stop-color="#C0A0BD"/></linearGradient><linearGradient id="f" x1="-5.6" x2="463.4" y1="27" y2="27" gradientUnits="userSpaceOnUse"><stop stop-color="#0029B9"/><stop offset="1" stop-color="#C0A0BD"/></linearGradient><linearGradient id="g" x1="-5.6" x2="463.4" y1="27" y2="27" gradientUnits="userSpaceOnUse"><stop stop-color="#0029B9"/><stop offset="1" stop-color="#C0A0BD"/></linearGradient><linearGradient id="h" x1="-5.6" x2="463.4" y1="27" y2="27" gradientUnits="userSpaceOnUse"><stop stop-color="#0029B9"/><stop offset="1" stop-color="#C0A0BD"/></linearGradient><linearGradient id="i" x1="-5.6" x2="463.4" y1="27" y2="27" gradientUnits="userSpaceOnUse"><stop stop-color="#0029B9"/><stop offset="1" stop-color="#C0A0BD"/></linearGradient><linearGradient id="j" x1="-5.6" x2="463.4" y1="27" y2="27" gradientUnits="userSpaceOnUse"><stop stop-color="#0029B9"/><stop offset="1" stop-color="#C0A0BD"/></linearGradient><clipPath id="a"><path fill="#fff" d="M0 0h464v48H0z"/></clipPath></defs></svg>