<svg width="240" height="120" viewBox="0 0 240 120" fill="none" xmlns="http://www.w3.org/2000/svg">
<path fill-rule="evenodd" clip-rule="evenodd" d="M76 16.0002H164V104H76V16.0002ZM98.6333 48.8005H88.6797V42.8028C95.379 42.6112 98.5055 42.1649 100.739 37.1243H107.438V83.3825H98.6333V48.8005ZM131.27 58.7543C127.186 58.7543 124.251 60.7958 123.358 62.9652L115.318 62.5825L118.381 37.1244H146.902V44.5255H125.591L124.315 54.4154C126.229 53.0115 129.228 51.8633 133.503 51.8633C141.414 51.8633 148.752 57.4782 148.752 68.1331C148.752 78.342 140.84 84.2122 131.333 84.2122C120.486 84.2122 114.744 76.8108 114.234 68.8353H122.528C123.039 73.6206 125.782 77.5767 131.461 77.5767C136.31 77.5767 139.819 74.067 139.819 68.1973C139.819 61.8807 135.544 58.7543 131.27 58.7543Z" fill="#123053"/>
</svg>
