<svg width="240" height="120" viewBox="0 0 240 120" fill="none" xmlns="http://www.w3.org/2000/svg">
<path fill-rule="evenodd" clip-rule="evenodd" d="M55.3948 50.3901V59.7804L61.151 59.7801C69.3887 59.7796 70.9499 59.4828 72.9172 57.5434C75.0117 55.4783 74.7424 51.7924 72.3787 50.1728L72.0045 49.9163L72.4762 49.3373C74.5624 46.7762 73.7775 43.4273 70.7424 41.939C68.9845 41.077 68.997 41.0782 61.8058 41.0369L55.3948 41V50.3901ZM90.3141 50.3941V59.7804H92.0055H93.6969V56.0061V52.2319L98.0891 52.2804C104.705 52.3534 104.764 52.3818 104.938 55.5537C105.04 57.4002 105.161 58.0918 105.562 59.0984L105.833 59.7804H107.84C108.944 59.7804 109.847 59.7469 109.847 59.7061C109.847 59.6651 109.556 59.1373 109.201 58.533C108.411 57.1909 108.322 56.868 108.208 54.9282C108.082 52.7889 107.818 52.0094 106.866 50.9728L106.444 50.5132L107.001 49.9477C109.275 47.6376 108.667 43.5066 105.834 42.0203C104.086 41.1031 103.456 41.0368 96.3432 41.0211L90.3141 41.0079V50.3941ZM123.16 50.3958V59.7804H131.89H140.62V58.1435V56.5067H133.581H126.543V54.106V51.7053H133.09H139.638V50.0684V48.4316H133.09H126.543V46.3037V44.1758H133.527H140.511V42.5935V41.0112H131.835H123.16V50.3958ZM153.514 41.1102C153.534 41.1647 155.193 45.3877 157.199 50.4948L160.848 59.7804H162.173H163.498L165.985 53.5331C167.353 50.097 168.543 47.1139 168.63 46.9039L168.787 46.5219L171.484 53.1239L174.182 59.7258L175.498 59.7564L176.814 59.7868L177.86 57.0829C178.436 55.5956 180.064 51.3926 181.479 47.7428C182.893 44.0931 184.051 41.0853 184.051 41.059C184.051 41.0327 183.27 41.0112 182.317 41.0112H180.582L180.42 41.4205C180.33 41.6456 179.214 44.5305 177.94 47.8314C175.233 54.8413 175.494 54.2546 175.298 53.7733C175.213 53.5662 174.019 50.6086 172.644 47.2009L170.145 41.005L168.783 41.0355L167.421 41.0658L164.829 47.5443C163.403 51.1074 162.215 54.0442 162.189 54.0704C162.163 54.0967 161.916 53.5384 161.641 52.8299C161.365 52.1214 160.218 49.173 159.091 46.2781L157.043 41.0145L155.26 41.0129C154.239 41.0119 153.494 41.0535 153.514 41.1102ZM68.3259 44.4343C70.5788 45.0725 71.0708 46.7994 69.2728 47.7578C68.1463 48.3582 67.4472 48.4316 62.8601 48.4316H58.7776V46.2943V44.1569L63.2244 44.2029C66.9825 44.2417 67.7725 44.2775 68.3259 44.4343ZM103.027 44.4345C105.786 45.2151 105.829 47.7234 103.1 48.6623C102.137 48.9937 100.863 49.0845 97.1616 49.0855L93.6969 49.0863V46.6215V44.1566L98.0346 44.203C101.686 44.2419 102.476 44.2786 103.027 44.4345ZM68.2794 51.8707C71.6955 52.5893 72.0211 55.1345 68.8335 56.202C68.1362 56.4355 67.9241 56.4466 63.4426 56.4824L58.7776 56.5195V54.1124V51.7053H63.1354C66.6104 51.7053 67.6525 51.7388 68.2794 51.8707ZM151.947 69.4785C149.182 70.3903 147.979 73.3196 149.297 75.9306C150.974 79.2525 156.809 79.1375 158.074 75.7575C158.453 74.7435 158.436 74.7158 157.461 74.7529L156.624 74.7848L156.466 75.2601C155.355 78.5984 150.483 77.1033 150.682 73.4852C150.842 70.5668 155.02 69.3306 156.333 71.8131L156.606 72.3289L157.412 72.3292L158.217 72.3295L158.154 71.9393C157.832 69.9583 154.499 68.6367 151.947 69.4785ZM168.555 69.4491C163.784 70.7262 164.009 77.2847 168.856 78.2272C172.609 78.957 175.584 76.8064 175.409 73.4891C175.248 70.4223 172.023 68.5209 168.555 69.4491ZM6.28174 69.5324C3.62983 70.2474 3.19727 73.2113 5.627 74.0183C5.90603 74.1111 6.96365 74.3553 7.97751 74.5611C10.3113 75.0349 10.8007 75.3779 10.4278 76.2781C9.77378 77.8569 5.67534 77.2426 5.34928 75.5169L5.28141 75.1576L4.50325 75.1895L3.7251 75.2213L3.75674 75.7065C3.9979 79.4008 12.1821 79.4595 12.1821 75.7669C12.1821 74.1468 11.449 73.6662 8.01876 73.0371C6.09361 72.6839 5.74387 72.5114 5.74387 71.9151C5.74387 70.2338 9.72991 70.2214 10.2332 71.9011L10.3616 72.3295H11.1749H11.9882L11.9174 71.9203C11.5723 69.9238 8.95045 68.8129 6.28174 69.5324ZM53.2966 69.6391C48.9563 71.1182 49.2734 77.3802 53.736 78.3187C56.6498 78.9317 59.1995 77.5963 59.7027 75.194L59.7771 74.8393H58.9127H58.0483L57.9227 75.2583C56.9196 78.6067 52.0627 77.397 52.0787 73.8027C52.0923 70.7182 56.4483 69.3614 57.8041 72.0191L58.0182 72.4386H58.8343C59.7474 72.4386 59.7354 72.4551 59.4275 71.6323C58.736 69.7842 55.7342 68.8083 53.2966 69.6391ZM182.85 73.8027V78.113H183.723H184.596V76.2034V74.2937H187.106H189.616V73.639V72.9842H187.106H184.596V71.893V70.8018H187.433H190.271V70.1471V69.4923H186.561H182.85V73.8027ZM197.582 73.8027V78.113H198.455H199.328V76.2034V74.2937H201.838H204.348V73.639V72.9842H201.838H199.328V71.893V70.8018H202.165H205.002V70.1471V69.4923H201.292H197.582V73.8027ZM212.314 73.8013V78.113H216.242H220.17V77.46V76.8069L217.107 76.778L214.043 76.749V75.5486V74.3483L216.834 74.3191L219.625 74.29V73.639V72.988L216.833 72.9588L214.04 72.9297V71.893V70.8564L217.078 70.8018L220.116 70.7472V70.1471V69.5469L216.215 69.5182L212.314 69.4896V73.8013ZM227.809 73.8027V78.113H231.792H235.775V77.4583V76.8035H232.665H229.555V75.5486V74.2937H232.398H235.24L235.207 73.6663L235.175 73.0388L232.365 73.0097L229.555 72.9805V71.8912V70.8018H232.61H235.666V70.1471V69.4923H231.737H227.809V73.8027ZM19.7376 73.8782L19.7662 78.1676L20.6119 78.1994L21.4576 78.2313V76.4908V74.7503L23.5582 74.7099C25.4819 74.673 25.7075 74.6479 26.2365 74.4116C28.193 73.5378 28.3047 70.9458 26.4271 69.985L25.7842 69.656L22.7466 69.6224L19.7091 69.5888L19.7376 73.8782ZM35.3162 73.9131V78.2249L39.2719 78.1962L43.2276 78.1676L43.2603 77.5401L43.2931 76.9127H40.1776H37.0621V75.6578V74.4028H39.8448H42.6274V73.7481V73.0934H39.8448H37.0621V72.0021V70.9109H40.1176H43.173V70.2562V69.6014H39.2446H35.3162V73.9131ZM67.1801 73.9118V78.2221H68.1076H69.0352V73.9118V69.6014H68.1076H67.1801V73.9118ZM79.7383 70.1198C79.2233 71.1762 76.019 78.1122 76.019 78.1705C76.019 78.2038 76.4204 78.2167 76.9109 78.1992L77.8028 78.1676L78.3108 77.0218L78.8188 75.876L80.785 75.8463L82.751 75.8166L83.2384 76.9921L83.7258 78.1676L84.6825 78.1992C85.6243 78.2304 85.6381 78.2272 85.5632 77.9912C85.479 77.7256 82.2046 70.39 81.9544 69.9061C81.8013 69.6098 81.7719 69.6014 80.894 69.6014H79.991L79.7383 70.1198ZM92.4966 73.9118V78.2221H95.9885H99.4804V77.5674V76.9127H96.8615H94.2425V73.2571V69.6014H93.3696H92.4966V73.9118ZM105.591 70.2562V70.9109H107.283H108.974V74.5709V78.231L109.874 78.1992L110.775 78.1676L110.803 74.542L110.832 70.9165L112.549 70.8864L114.267 70.8564L114.299 70.2289L114.332 69.6014H109.962H105.591V70.2562ZM120.214 69.6594C120.214 69.6912 121.097 70.8574 122.177 72.2511L124.141 74.7848L124.141 76.5035L124.142 78.2221H125.015H125.888L125.889 76.5035L125.89 74.7848L127.853 72.2536C130.163 69.276 130.042 69.6014 128.836 69.6014H127.855L126.42 71.5127L124.986 73.4239L124.648 72.9586C124.462 72.7026 123.831 71.8426 123.244 71.0473L122.179 69.6014H121.196C120.656 69.6014 120.214 69.6275 120.214 69.6594ZM171.771 70.8678C173.026 71.3053 173.767 72.5641 173.658 74.0782C173.371 78.0936 167.161 78.0131 166.94 73.991C166.798 71.4059 169.08 69.9307 171.771 70.8678ZM25.2779 71.0877C25.7999 71.2966 25.9316 71.5028 25.9316 72.1113C25.9316 73.1791 25.4244 73.4151 23.1217 73.4183L21.4576 73.4207V72.1658V70.9109H23.1468C24.4494 70.9109 24.9371 70.9514 25.2779 71.0877ZM81.4654 72.9552C81.7709 73.6894 82.0208 74.3401 82.0208 74.4011C82.0208 74.4697 81.5431 74.512 80.7659 74.512C80.0757 74.512 79.5109 74.4758 79.5109 74.4317C79.5109 74.2292 80.7742 71.4845 80.838 71.5482C80.8777 71.5878 81.1601 72.2209 81.4654 72.9552Z" fill="#123053"/>
</svg>
