<svg width="240" height="120" viewBox="0 0 240 120" fill="none" xmlns="http://www.w3.org/2000/svg">
<path d="M107.348 66.599C107.348 74.5177 101.153 80.353 93.5509 80.353C85.9484 80.353 79.7535 74.5177 79.7535 66.599C79.7535 58.6244 85.9484 52.845 93.5509 52.845C101.153 52.845 107.348 58.6244 107.348 66.599ZM101.309 66.599C101.309 61.6505 97.7181 58.2647 93.5509 58.2647C89.3838 58.2647 85.7934 61.6505 85.7934 66.599C85.7934 71.4978 89.3838 74.9332 93.5509 74.9332C97.7181 74.9332 101.309 71.4916 101.309 66.599Z" fill="#123053"/>
<path d="M137.114 66.599C137.114 74.5177 130.919 80.353 123.316 80.353C115.714 80.353 109.519 74.5177 109.519 66.599C109.519 58.6306 115.714 52.845 123.316 52.845C130.919 52.845 137.114 58.6244 137.114 66.599ZM131.074 66.599C131.074 61.6505 127.483 58.2647 123.316 58.2647C119.149 58.2647 115.559 61.6505 115.559 66.599C115.559 71.4978 119.149 74.9332 123.316 74.9332C127.483 74.9332 131.074 71.4916 131.074 66.599Z" fill="#123053"/>
<path d="M165.639 53.6759V78.3686C165.639 88.526 159.648 92.6745 152.567 92.6745C145.901 92.6745 141.888 88.2159 140.375 84.5697L145.634 82.3807C146.57 84.6193 148.865 87.261 152.56 87.261C157.093 87.261 159.903 84.4643 159.903 79.1996V77.2214H159.692C158.34 78.8895 155.735 80.3468 152.449 80.3468C145.572 80.3468 139.272 74.3565 139.272 66.6486C139.272 58.8848 145.572 52.845 152.449 52.845C155.729 52.845 158.334 54.3022 159.692 55.9207H159.903V53.6821H165.639V53.6759ZM160.33 66.6486C160.33 61.8055 157.1 58.2647 152.988 58.2647C148.821 58.2647 145.33 61.8055 145.33 66.6486C145.33 71.442 148.821 74.9332 152.988 74.9332C157.1 74.9332 160.33 71.442 160.33 66.6486Z" fill="#123053"/>
<path d="M175.095 39.2026V79.5097H169.204V39.2026H175.095Z" fill="#123053"/>
<path d="M198.052 71.1259L202.74 74.2512C201.227 76.4898 197.58 80.3469 191.28 80.3469C183.467 80.3469 177.631 74.307 177.631 66.5929C177.631 58.4136 183.516 52.8389 190.604 52.8389C197.742 52.8389 201.233 58.5191 202.374 61.5886L203 63.1513L184.614 70.7662C186.021 73.5257 188.21 74.9333 191.28 74.9333C194.356 74.9333 196.489 73.4203 198.052 71.1259ZM183.622 66.1774L195.912 61.0739C195.236 59.3562 193.202 58.1594 190.809 58.1594C187.739 58.1594 183.467 60.8693 183.622 66.1774Z" fill="#123053"/>
<path d="M57.4544 63.0213V57.186H77.1181C77.3103 58.203 77.4095 59.406 77.4095 60.7083C77.4095 65.0862 76.2127 70.4998 72.3556 74.3568C68.604 78.2635 63.8106 80.3471 57.4606 80.3471C45.691 80.3471 35.7941 70.7602 35.7941 58.9906C35.7941 47.2209 45.691 37.634 57.4606 37.634C63.9718 37.634 68.6102 40.1889 72.0952 43.5189L67.9777 47.6364C65.4786 45.2924 62.0929 43.4693 57.4544 43.4693C48.8597 43.4693 42.1378 50.3959 42.1378 58.9906C42.1378 67.5853 48.8597 74.5119 57.4544 74.5119C63.0292 74.5119 66.2042 72.2733 68.2381 70.2393C69.8876 68.5898 70.9728 66.2334 71.4007 63.0151L57.4544 63.0213Z" fill="#123053"/>
</svg>
