<svg width="158" height="40" viewBox="0 0 158 40" fill="none" xmlns="http://www.w3.org/2000/svg">
<g clip-path="url(#clip0_103_256)">
<path d="M48.3056 6.21542H50.9454L54.2039 13.8434L57.7618 6.21542H60.3722L55.3446 16.4971H52.8781L48.3056 6.21542Z" fill="#123053"/>
<path d="M82.856 6.47956C82.856 5.75065 83.3152 5.49454 84.1168 5.49454C84.9192 5.49454 85.38 5.74671 85.38 6.47956C85.38 7.17696 84.9664 7.47838 84.1168 7.47838C83.2224 7.48626 82.856 7.23607 82.856 6.47956ZM82.856 8.22105H85.38V16.4953H82.856V8.22105Z" fill="#123053"/>
<path d="M130.36 23.802C130.36 23.0731 130.819 22.817 131.621 22.817C132.422 22.817 132.884 23.0691 132.884 23.802C132.884 24.4994 132.47 24.8008 131.621 24.8008C130.726 24.8008 130.36 24.5585 130.36 23.802ZM130.36 25.5435H132.884V33.8178H130.36V25.5435Z" fill="#123053"/>
<path d="M61.239 6.47956C61.239 5.75065 61.698 5.49454 62.4998 5.49454C63.3016 5.49454 63.7606 5.74671 63.7606 6.47956C63.7606 7.17696 63.3489 7.47838 62.4998 7.47838C61.6054 7.48626 61.239 7.23607 61.239 6.47956ZM61.239 8.22105H63.7606V16.4953H61.239V8.22105Z" fill="#123053"/>
<path d="M65.9415 5.53769H68.4001V16.497H65.9415V5.53769Z" fill="#123053"/>
<path d="M70.5988 16.4973V8.22304H72.7343L72.9312 10.0257C73.5952 8.72736 74.8344 7.91967 76.6507 7.91967C77.422 7.89296 78.1869 8.06672 78.871 8.424C80.0824 9.08792 80.7464 10.3133 80.7464 11.9701V16.5012H78.2701V12.5611C78.2701 10.8728 77.6653 9.89368 75.8332 9.89368C73.9163 9.89368 73.0948 10.8886 73.0948 12.835V16.4973H70.5988Z" fill="#123053"/>
<path d="M91.4064 16.7711C88.8456 16.7711 87.4664 15.2286 87.4664 12.7483V8.21719H89.9448V12.2578C89.9448 13.9008 90.6088 14.7656 92.4248 14.7656C94.0104 14.7656 94.848 13.757 94.848 12.1139V8.22111H97.3424V16.4954H95.228L95.0112 14.6198C94.464 15.9338 93.2664 16.7711 91.4064 16.7711Z" fill="#123053"/>
<path d="M98.7392 13.7568H101.55C101.824 14.5646 102.535 14.8955 104.448 14.8955C106.25 14.8955 106.769 14.535 106.769 13.9597C106.769 13.6839 106.654 13.5263 106.235 13.4258C105.815 13.3254 104.996 13.2525 103.611 13.2091C100.325 13.1086 99.04 12.4211 99.04 10.786C99.0264 10.2514 99.2056 9.72984 99.5448 9.31632C100.222 8.45144 101.564 7.91757 103.67 7.91757C106.782 7.91757 108.471 8.79624 109.076 10.8018H106.432C106.199 9.95064 105.19 9.69064 103.648 9.69064C103.185 9.67064 102.721 9.71432 102.27 9.82064C101.635 9.994 101.42 10.2816 101.42 10.585C101.42 10.8293 101.491 11.0026 101.895 11.1327C102.298 11.2627 103.077 11.3198 104.456 11.377C106.346 11.4498 107.541 11.6508 108.233 12.0547C108.924 12.4586 109.2 13.0397 109.2 13.9006C109.2 15.5594 107.555 16.771 104.326 16.771C100.924 16.771 99.1648 15.8037 98.7392 13.7568Z" fill="#123053"/>
<path d="M54.9683 33.8001H52.4881V25.581H48.7982V23.5183H58.8336V25.581H54.9683V33.8001Z" fill="#123053"/>
<path d="M63.6346 34.0816C62.3225 34.0816 61.2844 33.8846 60.4924 33.5478C58.9164 32.813 58.2997 31.5146 58.2997 29.8283C58.2918 29.0276 58.5016 28.2397 58.9065 27.5489C59.7418 26.1364 61.3415 25.2282 63.8218 25.2282C64.8285 25.2011 65.83 25.3829 66.7631 25.7621C68.3923 26.4831 69.2729 27.809 69.2729 29.6687V30.5355H60.6224C60.91 31.6171 61.832 32.1786 63.8376 32.1786C65.3505 32.1786 66.0716 31.891 66.4754 31.3275H69.1724C68.278 33.3822 66.3749 34.0816 63.6346 34.0816ZM60.6796 28.8038H66.8497C66.5759 27.5923 65.6677 27.1038 63.8947 27.1038C62.0625 27.0958 61.0243 27.7144 60.6796 28.796V28.8038Z" fill="#123053"/>
<path d="M81.168 32.1986C80.3168 33.3807 78.7311 34.0742 76.2429 34.0742C74.9308 34.0742 73.8788 33.9008 73.0711 33.5402C71.4852 32.8488 70.8233 31.521 70.8233 29.7203C70.8045 28.8726 71.0406 28.0388 71.501 27.3267C72.4171 25.9714 74.1133 25.2168 76.3237 25.2168C79.6727 25.2168 81.5856 26.5958 81.8888 29.0525H79.2512C79.0344 27.8134 78.1834 27.1927 76.3532 27.1927C74.3201 27.1927 73.3252 28.0142 73.3252 29.7164C73.3252 31.2924 74.2197 32.0666 76.3237 32.0666C78.2563 32.0666 79.064 31.389 79.2512 30.1478H81.8888C81.8464 30.8857 81.5968 31.5966 81.168 32.1986Z" fill="#123053"/>
<path d="M83.52 33.8002V22.8408H85.884V27.2104C86.5048 26.0047 87.7064 25.2167 89.48 25.2167C90.2464 25.1892 91.0072 25.3631 91.6864 25.721C92.8976 26.3849 93.5456 27.6103 93.5456 29.2671V33.7982H91.0752V29.9941C91.0784 29.4953 91.0048 28.9992 90.8584 28.5225C90.5552 27.6713 89.8736 27.1808 88.6656 27.1808C86.7488 27.1808 85.884 28.1658 85.884 30.1083V33.8002H83.52Z" fill="#123053"/>
<path d="M98.2264 33.8001H95.8472V23.5183H105.378V25.6539H98.2264V27.9608H105.177V30.1082H98.2264V33.8001Z" fill="#123053"/>
<path d="M110.815 34.0819C108.254 34.0819 106.863 32.5393 106.863 30.059V25.528H109.344V29.5645C109.344 31.2076 110.007 32.0744 111.824 32.0744C113.41 32.0744 114.247 31.0638 114.247 29.4208V25.524H116.741V33.7982H114.635L114.418 31.9227C113.871 33.2368 112.675 34.0819 110.815 34.0819Z" fill="#123053"/>
<path d="M118.154 31.0598H120.965C121.238 31.8674 121.95 32.1984 123.865 32.1984C125.666 32.1984 126.186 31.8379 126.186 31.2626C126.186 30.9888 126.07 30.8292 125.652 30.7288C125.234 30.6283 124.413 30.5554 123.027 30.5121C119.739 30.4116 118.457 29.7339 118.457 28.0909C118.442 27.5555 118.622 27.0329 118.962 26.6193C119.639 25.7544 120.981 25.2205 123.085 25.2205C126.199 25.2205 127.886 26.1011 128.493 28.1046H125.839C125.608 27.2536 124.6 26.9935 123.057 26.9935C122.594 26.9733 122.13 27.017 121.678 27.1236C121.044 27.297 120.827 27.5846 120.827 27.8879C120.827 28.1343 120.9 28.3056 121.304 28.4356C121.708 28.5657 122.486 28.6228 123.865 28.6819C125.752 28.7528 126.95 28.9557 127.642 29.3596C128.333 29.7635 128.606 30.3446 128.606 31.2035C128.606 32.8623 126.964 34.0739 123.735 34.0739C120.33 34.0818 118.571 33.1086 118.154 31.0598Z" fill="#123053"/>
<path d="M136.869 33.5401C135.293 32.8486 134.622 31.5208 134.622 29.7202C134.602 28.8725 134.838 28.0387 135.299 27.3266C136.207 25.9712 137.894 25.2167 140.11 25.2167C141.112 25.191 142.109 25.3727 143.038 25.7506C144.696 26.4716 145.618 27.7975 145.618 29.7163C145.639 30.5158 145.434 31.3051 145.027 31.9936C144.247 33.3096 142.651 34.0819 140.043 34.0819C138.731 34.0819 137.677 33.9007 136.869 33.5401ZM143.128 29.7202C143.128 28.0614 142.247 27.1966 140.143 27.1966C138.11 27.1966 137.115 28.0181 137.115 29.7202C137.115 31.2963 138.01 32.0705 140.114 32.0705C142.32 32.0705 143.128 31.247 143.128 29.7202Z" fill="#123053"/>
<path d="M147.454 33.8002V25.526H149.588L149.785 27.3286C150.453 26.0284 151.694 25.2167 153.506 25.2167C154.278 25.1912 155.042 25.3649 155.726 25.721C156.938 26.385 157.6 27.6103 157.6 29.2671V33.7982H155.124V29.8582C155.124 28.1698 154.519 27.1907 152.689 27.1907C150.77 27.1907 149.948 28.1758 149.948 30.132V33.7943L147.454 33.8002Z" fill="#123053"/>
<path d="M39.9211 15.3447C39.7812 14.7203 39.6138 14.1055 39.4167 13.5047L20.2778 15.6501C20.2313 15.656 20.1843 15.656 20.1378 15.6501L1.00079 13.5047C0.803784 14.0957 0.636334 14.7203 0.49646 15.3447L20.1339 17.5472C20.1805 17.5512 20.2273 17.5512 20.2738 17.5472L39.9211 15.3447Z" fill="#123053"/>
<path d="M38.079 10.3527C37.7736 9.76825 37.4389 9.19953 37.0763 8.64865L20.3546 12.3918C20.2637 12.4115 20.1696 12.4115 20.0787 12.3918L3.34907 8.64865C2.98379 9.19937 2.64649 9.76809 2.33844 10.3527L20.0689 14.3283C20.1598 14.348 20.2538 14.348 20.3447 14.3283L38.079 10.3527Z" fill="#123053"/>
<path d="M35.1063 6.12696C34.6285 5.60875 34.1248 5.11496 33.5972 4.64746L20.4176 9.08008C20.2895 9.1216 20.1517 9.1216 20.0236 9.08008L6.84397 4.64746C6.31863 5.11633 5.81495 5.6095 5.33295 6.12696L20.0236 11.0678C20.1517 11.1094 20.2895 11.1094 20.4176 11.0678L35.1063 6.12696Z" fill="#123053"/>
<path d="M31.2844 2.88614C30.6352 2.4607 29.9623 2.07262 29.269 1.72382L20.4649 5.66391C20.3843 5.7 20.297 5.71865 20.2087 5.71865C20.1205 5.71865 20.0332 5.7 19.9526 5.66391L11.1485 1.72382C10.4549 2.07218 9.782 2.46027 9.13312 2.88614L19.9526 7.7364C20.0332 7.77249 20.1205 7.79114 20.2087 7.79114C20.297 7.79114 20.3843 7.77249 20.4649 7.7364L31.2844 2.88614Z" fill="#123053"/>
<path d="M26.9326 0.728918C26.0958 0.432064 25.2402 0.191186 24.3715 0.00788019L20.5161 2.16706C20.4224 2.22024 20.3165 2.2482 20.2087 2.2482C20.1011 2.2482 19.9951 2.22024 19.9015 2.16706L16.0519 0C15.1832 0.183306 14.3277 0.424184 13.4909 0.721038L19.9015 4.3341C19.9955 4.38638 20.1012 4.41381 20.2087 4.41381C20.3163 4.41381 20.4221 4.38638 20.5161 4.3341L26.9326 0.728918Z" fill="#123053"/>
<path d="M40.4254 19.7874C40.4254 19.4702 40.4155 19.1569 40.4018 18.8438H0.0236406C0.00985024 19.1569 0 19.4702 0 19.7874C0 20.1045 -2.23517e-08 20.4158 0.0236406 20.7291H40.3939C40.4077 20.4158 40.4254 20.0947 40.4254 19.7874Z" fill="#123053"/>
<path d="M39.4167 26.0677C39.6138 25.4766 39.7812 24.8522 39.9211 24.2276L20.2778 22.0271C20.2313 22.0212 20.1843 22.0212 20.1378 22.0271L0.49646 24.2316C0.636334 24.8561 0.803784 25.4707 1.00079 26.0716L20.1339 23.9222C20.1803 23.9164 20.2274 23.9164 20.2738 23.9222L39.4167 26.0677Z" fill="#123053"/>
<path d="M37.0764 30.9298C37.4415 30.3808 37.7784 29.8128 38.087 29.2258L20.3565 25.2482C20.2656 25.2285 20.1716 25.2285 20.0808 25.2482L2.35028 29.2258C2.64841 29.8089 2.98135 30.3769 3.34909 30.9298L20.0708 27.1867C20.1616 27.165 20.256 27.165 20.3467 27.1867L37.0764 30.9298Z" fill="#123053"/>
<path d="M33.5893 34.9252C34.1173 34.4582 34.621 33.9644 35.0984 33.4457L20.4097 28.5048C20.2817 28.4633 20.1437 28.4633 20.0157 28.5048L5.31714 33.4457C5.79652 33.9631 6.30019 34.4563 6.82817 34.9252L20.0078 30.4926C20.1358 30.451 20.2737 30.451 20.4018 30.4926L33.5893 34.9252Z" fill="#123053"/>
<path d="M29.269 37.8486C29.9623 37.4998 30.6352 37.1117 31.2844 36.6862L20.4649 31.836C20.3843 31.7999 20.297 31.7813 20.2087 31.7813C20.1205 31.7813 20.0332 31.7999 19.9526 31.836L9.13312 36.6862C9.78224 37.1117 10.4551 37.4998 11.1485 37.8486L19.9526 33.9085C20.0332 33.8724 20.1205 33.8538 20.2087 33.8538C20.297 33.8538 20.3843 33.8724 20.4649 33.9085L29.269 37.8486Z" fill="#123053"/>
<path d="M24.3656 39.5645C25.2343 39.3812 26.0899 39.1403 26.9267 38.8435L20.5102 35.2482C20.4165 35.195 20.3107 35.167 20.2029 35.167C20.0951 35.167 19.9892 35.195 19.8955 35.2482L13.485 38.8435C14.3218 39.1403 15.1774 39.3812 16.0461 39.5645L19.8955 37.3974C19.9895 37.3452 20.0953 37.3178 20.2029 37.3178C20.3104 37.3178 20.4162 37.3452 20.5102 37.3974L24.3656 39.5645Z" fill="#123053"/>
</g>
<defs>
<clipPath id="clip0_103_256">
<rect width="158" height="40" fill="white"/>
</clipPath>
</defs>
</svg>
