<svg width="240" height="120" viewBox="0 0 240 120" fill="none" xmlns="http://www.w3.org/2000/svg">
<path fill-rule="evenodd" clip-rule="evenodd" d="M68.9448 55.0924C68.8181 56.7439 68.5648 58.3953 67.9313 59.9197C67.9313 59.7927 67.9313 59.6657 67.8046 59.5386C67.7038 58.9321 67.5228 58.4059 67.3253 57.8322L67.3253 57.8322C67.2747 57.685 67.2229 57.5347 67.1712 57.379L67.5513 55.0924C67.6779 52.0435 66.9178 48.9947 65.3976 46.327C64.6374 44.9296 63.624 43.7863 62.6105 42.643L62.6104 42.6429C61.4702 41.4996 60.3301 40.6104 58.9365 39.7211C53.6156 36.4182 47.0278 35.1478 40.6934 34.6397C34.2323 34.1316 27.7713 34.6397 21.5636 36.2912C18.523 36.9263 15.6092 38.1967 13.0755 40.1022C10.7951 42.1348 9.40151 44.9296 9.40151 47.9784C9.27482 51.0273 10.5417 53.9491 12.8221 55.9816C13.7089 56.7439 14.8491 57.5061 15.9893 57.8872C16.116 57.9507 16.4327 58.0777 16.7494 58.2048L16.7494 58.2048C17.0662 58.3318 17.3829 58.4588 17.5095 58.5223C17.6785 58.5647 17.8474 58.6212 18.0163 58.6776C18.3541 58.7905 18.692 58.9035 19.0298 58.9035L21.3102 59.2846C23.1327 59.577 24.9972 59.7011 26.8796 59.8264L26.8796 59.8264H26.8797C28.2684 59.9189 29.6668 60.012 31.0651 60.1738C34.359 60.5549 37.6529 61.5712 40.44 63.3497C41.8336 64.2389 43.2272 65.2552 44.3674 66.3985C45.5076 67.5419 46.6478 68.6852 47.6613 69.9555C48.0413 70.3366 48.4214 70.7177 48.9281 71.0988C48.8014 71.2259 48.8015 71.48 48.8015 71.607C48.7381 71.7975 48.7064 71.9563 48.6748 72.1151C48.6431 72.2739 48.6114 72.4327 48.5481 72.6233C47.9146 72.1151 47.1545 71.48 46.6478 70.8448C46.3356 70.497 46.0425 70.1588 45.7553 69.8274L45.7553 69.8274C44.9935 68.9484 44.2739 68.1181 43.3539 67.2878C42.2137 66.2715 40.9468 65.2552 39.5532 64.493C36.8928 62.8415 33.8523 61.8253 30.6851 61.4442C28.9232 61.1497 27.0763 61.0259 25.1936 60.8997C23.8272 60.8081 22.442 60.7152 21.0568 60.5549C21.0568 60.5549 19.5365 60.3008 19.2832 60.3008L18.6497 60.1738L17.6362 59.9197C17.3829 59.8562 17.0978 59.7609 16.8128 59.6657C16.5277 59.5704 16.2427 59.4751 15.9893 59.4116C14.469 58.7764 12.9488 58.0142 11.8086 56.8709C9.27482 54.5843 7.88126 51.2813 8.00795 47.8514C8.00795 44.4214 9.5282 41.2455 12.1886 38.9589C14.8491 36.9263 17.8896 35.529 21.1835 34.8938C27.5179 33.2423 34.2323 32.6071 40.6934 33.2423C43.9873 33.4964 47.2812 34.0045 50.4484 34.7667C53.6156 35.529 56.7828 36.7993 59.5699 38.5778C60.9635 39.4671 62.3571 40.4833 63.4972 41.6266C64.6374 42.77 65.6509 44.1674 66.5378 45.5647C68.3114 48.4866 69.0715 51.7895 68.9448 55.0924ZM64.5107 70.339C62.4837 73.2608 59.3165 75.0393 55.7692 75.1664C54.8824 75.1664 54.1223 75.1664 53.2355 74.9123C53.2355 74.9123 53.1088 74.4041 53.1088 74.2771C53.1088 74.1501 53.0771 74.0548 53.0455 73.9595C53.0138 73.8642 52.9821 73.769 52.9821 73.6419V73.2608C53.8689 73.5149 54.7557 73.6419 55.6426 73.6419C58.6831 73.5149 61.4702 71.8634 63.2438 69.3227C64.0039 68.1794 64.6374 66.9091 64.8908 65.5117C65.0175 65.2576 65.0175 65.0035 65.0175 64.6224C65.0175 64.5698 65.0392 64.3648 65.0646 64.1245L65.0647 64.1242C65.1007 63.7842 65.1441 63.3739 65.1441 63.225V62.5899C65.1441 62.0817 65.1441 61.7006 65.0175 61.1925C65.0175 60.9384 65.0175 60.8114 64.8908 60.5573C64.7641 60.3032 64.7641 59.9221 64.7641 59.668C63.7506 55.4759 61.4702 51.6648 58.1763 48.743C56.9094 47.7267 55.6426 46.8375 54.3757 46.0753C51.5885 44.5508 48.6747 43.4075 45.5075 42.6453C42.3403 42.0101 39.1731 41.7561 36.0059 42.0101C32.8387 42.2642 29.7982 43.0264 27.0111 44.4238C24.2239 45.8212 21.8169 47.9808 20.2966 50.6485C19.1564 52.5541 18.6497 54.8407 18.7764 57.0003H18.6497C18.2696 56.8733 17.5095 56.6192 17.3828 56.6192C17.3828 54.3326 18.0162 52.0459 19.1564 50.0134C20.9301 47.0915 23.4638 44.8049 26.3776 43.2805C29.4182 41.8831 32.712 40.9938 36.0059 40.7398C39.2998 40.4857 42.7204 40.7398 45.8876 41.502C49.1815 42.1372 52.222 43.4075 55.1358 45.059C59.9499 47.7267 63.6239 51.9189 65.5242 57.1273L65.6509 57.5084C65.7776 57.7625 65.9043 58.1436 65.9043 58.3977L66.1576 59.668C66.1576 59.7951 66.1893 59.9539 66.221 60.1127C66.2527 60.2715 66.2843 60.4303 66.2843 60.5573C66.2843 60.6625 66.3061 60.8113 66.3315 60.9857L66.3315 60.9857C66.3675 61.2323 66.411 61.53 66.411 61.8276C66.9178 65.0035 66.031 67.9253 64.5107 70.339ZM63.7506 63.4796V62.9715C61.2168 64.877 58.4297 66.4014 55.6426 67.5447C53.9956 68.1799 52.4754 69.1962 51.3352 70.4665C51.2085 70.5936 50.9551 70.9747 50.9551 70.9747C50.9551 70.9747 50.7017 71.4828 50.5751 71.6099C50.5117 71.7369 50.48 71.8639 50.4484 71.991C50.4167 72.118 50.385 72.245 50.3217 72.3721C50.3217 72.4356 50.29 72.5309 50.2583 72.6261C50.2267 72.7214 50.195 72.8167 50.195 72.8802V73.8965C50.195 74.2776 50.195 74.6587 50.3217 75.0398C50.3217 75.1033 50.3533 75.1986 50.385 75.2939C50.4167 75.3892 50.4484 75.4844 50.4484 75.548C50.5212 75.621 50.5521 75.652 50.5653 75.6894C50.5751 75.717 50.5751 75.748 50.5751 75.802C50.5751 76.0561 50.7017 76.3102 50.8284 76.5642L50.8284 76.5642C51.3352 77.7076 51.9686 78.8509 52.6021 79.8672C53.3622 81.1375 53.7423 82.6619 53.4889 84.0593C53.3622 84.5675 52.9821 85.0756 52.4754 85.3297C51.8419 85.4567 51.3352 85.3297 50.8284 84.9486C49.5615 83.9323 48.6747 82.789 48.0413 81.3916C47.6139 80.6058 47.2666 79.8201 46.9093 79.0117C46.6312 78.3825 46.347 77.7396 46.0143 77.0724C45.2542 75.548 44.2407 74.1506 43.1005 73.0073C41.8336 71.7369 40.44 70.8477 38.9198 70.0854C37.3995 69.4503 35.7526 68.9421 34.1056 68.6881C33.5633 68.6044 33.0244 68.5276 32.4901 68.4515C29.7791 68.0653 27.1857 67.6958 24.8574 66.5285C22.8304 65.6392 21.1835 64.1148 20.17 62.2092C19.7899 62.2092 19.5365 62.2092 19.1565 62.0822L18.3963 61.9552C18.9031 62.9715 19.4098 63.8607 20.17 64.75C21.3101 66.0203 22.7037 67.0366 24.224 67.7988C26.7177 69.0491 29.4671 69.4448 32.1226 69.8271C32.7049 69.9109 33.2827 69.9941 33.8523 70.0854C35.3725 70.3395 36.8928 70.7206 38.2863 71.3558C39.6799 71.991 40.9468 72.8802 42.087 73.8965C43.7487 75.3776 44.6704 77.3985 45.6365 79.5165C45.9962 80.305 46.362 81.1071 46.7744 81.8997C47.5345 83.4242 48.6747 84.6945 49.9416 85.8378C50.7017 86.473 51.8419 86.7271 52.8554 86.473C53.8689 86.0919 54.6291 85.2026 54.8824 84.1864C55.2625 82.4079 54.8824 80.6294 53.8689 79.105C53.662 78.69 53.434 78.275 53.2107 77.8686C52.8871 77.2799 52.5736 76.7093 52.3487 76.1831C52.2853 76.0561 52.222 75.8973 52.1587 75.7385C52.0953 75.5797 52.032 75.4209 51.9686 75.2939C51.9686 75.2304 51.9369 75.1669 51.9053 75.1033C51.8736 75.0398 51.8419 74.9763 51.8419 74.9128C51.8419 74.7858 51.7152 74.0235 51.7152 74.0235V72.8802C51.7786 72.7532 51.8103 72.6262 51.8419 72.4991C51.8736 72.3721 51.9053 72.245 51.9686 72.118C51.9686 72.0545 52.032 71.9275 52.0953 71.8004C52.1586 71.6734 52.222 71.5463 52.222 71.4828C52.222 71.2288 52.3487 71.1017 52.4754 70.9747C53.4889 69.9584 54.6291 69.0692 56.0226 68.561C58.6831 67.6718 61.2168 66.4014 63.6239 64.877C63.6239 64.6229 63.6556 64.4006 63.6873 64.1783C63.7189 63.956 63.7506 63.7337 63.7506 63.4796Z" fill="#123053"/>
<path d="M85.708 37.4799H86.416L89.956 45.9999H89.068L87.964 43.3359H84.136L83.044 45.9999H82.144L85.708 37.4799ZM87.772 42.6759L86.056 38.4639L84.316 42.6759H87.772Z" fill="#123053"/>
<path d="M91.1774 45.9999V37.4799H94.7774C95.1454 37.4799 95.4814 37.5599 95.7854 37.7199C96.0974 37.8719 96.3654 38.0759 96.5894 38.3319C96.8134 38.5799 96.9854 38.8639 97.1054 39.1839C97.2334 39.5039 97.2974 39.8279 97.2974 40.1559C97.2974 40.4679 97.2494 40.7679 97.1534 41.0559C97.0654 41.3359 96.9374 41.5919 96.7694 41.8239C96.6094 42.0479 96.4134 42.2399 96.1814 42.3999C95.9494 42.5519 95.6894 42.6559 95.4014 42.7119L97.4894 45.9999H96.5414L94.5374 42.8559H92.0174V45.9999H91.1774ZM92.0174 42.1119H94.8014C95.0494 42.1119 95.2734 42.0599 95.4734 41.9559C95.6814 41.8439 95.8574 41.6959 96.0014 41.5119C96.1454 41.3279 96.2574 41.1199 96.3374 40.8879C96.4174 40.6559 96.4574 40.4119 96.4574 40.1559C96.4574 39.8999 96.4094 39.6559 96.3134 39.4239C96.2254 39.1839 96.1014 38.9759 95.9414 38.7999C95.7894 38.6239 95.6054 38.4839 95.3894 38.3799C95.1814 38.2759 94.9614 38.2239 94.7294 38.2239H92.0174V42.1119Z" fill="#123053"/>
<path d="M104.936 38.2239H101.9V45.9999H101.06V38.2239H98.0243V37.4799H104.936V38.2239Z" fill="#123053"/>
<path d="M106.213 45.9999V37.4799H107.053V45.9999H106.213Z" fill="#123053"/>
<path d="M109.189 45.9999V37.4799H114.781V38.2239H110.029V41.3559H114.037V42.0519H110.029V45.9999H109.189Z" fill="#123053"/>
<path d="M116.255 45.9999V37.4799H117.095V45.9999H116.255Z" fill="#123053"/>
<path d="M118.668 41.6799C118.668 41.1679 118.756 40.6599 118.932 40.1559C119.116 39.6439 119.38 39.1879 119.724 38.7879C120.068 38.3879 120.492 38.0639 120.996 37.8159C121.5 37.5599 122.072 37.4319 122.712 37.4319C123.472 37.4319 124.12 37.6039 124.656 37.9479C125.2 38.2919 125.6 38.7399 125.856 39.2919L125.196 39.6999C125.06 39.4199 124.892 39.1839 124.692 38.9919C124.5 38.7999 124.292 38.6439 124.068 38.5239C123.844 38.4039 123.612 38.3199 123.372 38.2719C123.132 38.2159 122.896 38.1879 122.664 38.1879C122.152 38.1879 121.7 38.2919 121.308 38.4999C120.916 38.7079 120.584 38.9799 120.312 39.3159C120.048 39.6519 119.848 40.0319 119.712 40.4559C119.576 40.8719 119.508 41.2959 119.508 41.7279C119.508 42.1999 119.588 42.6519 119.748 43.0839C119.916 43.5159 120.14 43.8999 120.42 44.2359C120.708 44.5639 121.044 44.8279 121.428 45.0279C121.82 45.2199 122.244 45.3159 122.7 45.3159C122.94 45.3159 123.184 45.2879 123.432 45.2319C123.688 45.1679 123.932 45.0719 124.164 44.9439C124.404 44.8079 124.624 44.6439 124.824 44.4519C125.024 44.2519 125.192 44.0119 125.328 43.7319L126.024 44.0919C125.888 44.4119 125.696 44.6959 125.448 44.9439C125.2 45.1839 124.924 45.3879 124.62 45.5559C124.316 45.7239 123.992 45.8519 123.648 45.9399C123.312 46.0279 122.98 46.0719 122.652 46.0719C122.068 46.0719 121.532 45.9439 121.044 45.6879C120.556 45.4319 120.136 45.0999 119.784 44.6919C119.432 44.2759 119.156 43.8079 118.956 43.2879C118.764 42.7599 118.668 42.2239 118.668 41.6799Z" fill="#123053"/>
<path d="M127.459 45.9999V37.4799H128.299V45.9999H127.459Z" fill="#123053"/>
<path d="M133.075 37.4799H133.783L137.323 45.9999H136.435L135.331 43.3359H131.503L130.411 45.9999H129.511L133.075 37.4799ZM135.139 42.6759L133.423 38.4639L131.683 42.6759H135.139Z" fill="#123053"/>
<path d="M138.545 45.9999V37.4799H139.385V45.2559H144.305V45.9999H138.545Z" fill="#123053"/>
<path d="M148.271 45.9999V37.4799H149.111V45.9999H148.271Z" fill="#123053"/>
<path d="M152.088 39.0399V45.9999H151.248V37.4799H151.896L157.536 44.5719V37.4919H158.376V45.9999H157.644L152.088 39.0399Z" fill="#123053"/>
<path d="M166.565 38.2239H163.529V45.9999H162.689V38.2239H159.653V37.4799H166.565V38.2239Z" fill="#123053"/>
<path d="M173.565 45.2559V45.9999H167.841V37.4799H173.457V38.2239H168.681V41.2959H172.845V42.0039H168.681V45.2559H173.565Z" fill="#123053"/>
<path d="M175.154 45.9999V37.4799H175.994V45.2559H180.914V45.9999H175.154Z" fill="#123053"/>
<path d="M182.15 45.9999V37.4799H182.99V45.2559H187.91V45.9999H182.15Z" fill="#123053"/>
<path d="M189.146 45.9999V37.4799H189.986V45.9999H189.146Z" fill="#123053"/>
<path d="M198.279 44.7519C197.487 45.6239 196.575 46.0599 195.543 46.0599C194.967 46.0599 194.435 45.9359 193.947 45.6879C193.467 45.4399 193.047 45.1119 192.687 44.7039C192.335 44.2959 192.059 43.8359 191.859 43.3239C191.659 42.8039 191.559 42.2719 191.559 41.7279C191.559 41.1599 191.655 40.6159 191.847 40.0959C192.047 39.5759 192.323 39.1199 192.675 38.7279C193.027 38.3279 193.443 38.0119 193.923 37.7799C194.403 37.5399 194.927 37.4199 195.495 37.4199C195.911 37.4199 196.291 37.4679 196.635 37.5639C196.979 37.6519 197.283 37.7799 197.547 37.9479C197.819 38.1079 198.051 38.3039 198.243 38.5359C198.443 38.7599 198.611 39.0079 198.747 39.2799L198.099 39.7119C197.819 39.1839 197.455 38.7959 197.007 38.5479C196.559 38.2999 196.051 38.1759 195.483 38.1759C195.011 38.1759 194.583 38.2759 194.199 38.4759C193.823 38.6759 193.499 38.9439 193.227 39.2799C192.963 39.6079 192.759 39.9879 192.615 40.4199C192.471 40.8439 192.399 41.2839 192.399 41.7399C192.399 42.2199 192.479 42.6759 192.639 43.1079C192.807 43.5399 193.035 43.9199 193.323 44.2479C193.611 44.5679 193.947 44.8239 194.331 45.0159C194.723 45.2079 195.147 45.3039 195.603 45.3039C196.091 45.3039 196.555 45.1919 196.995 44.9679C197.443 44.7359 197.871 44.3719 198.279 43.8759V42.4599H196.383V41.8119H198.987V45.9999H198.279V44.7519Z" fill="#123053"/>
<path d="M206.437 45.2559V45.9999H200.713V37.4799H206.329V38.2239H201.553V41.2959H205.717V42.0039H201.553V45.2559H206.437Z" fill="#123053"/>
<path d="M208.865 39.0399V45.9999H208.025V37.4799H208.673L214.313 44.5719V37.4919H215.153V45.9999H214.421L208.865 39.0399Z" fill="#123053"/>
<path d="M216.731 41.6799C216.731 41.1679 216.819 40.6599 216.995 40.1559C217.179 39.6439 217.443 39.1879 217.787 38.7879C218.131 38.3879 218.555 38.0639 219.059 37.8159C219.563 37.5599 220.135 37.4319 220.775 37.4319C221.535 37.4319 222.183 37.6039 222.719 37.9479C223.263 38.2919 223.663 38.7399 223.919 39.2919L223.259 39.6999C223.123 39.4199 222.955 39.1839 222.755 38.9919C222.563 38.7999 222.355 38.6439 222.131 38.5239C221.907 38.4039 221.675 38.3199 221.435 38.2719C221.195 38.2159 220.959 38.1879 220.727 38.1879C220.215 38.1879 219.763 38.2919 219.371 38.4999C218.979 38.7079 218.647 38.9799 218.375 39.3159C218.111 39.6519 217.911 40.0319 217.775 40.4559C217.639 40.8719 217.571 41.2959 217.571 41.7279C217.571 42.1999 217.651 42.6519 217.811 43.0839C217.979 43.5159 218.203 43.8999 218.483 44.2359C218.771 44.5639 219.107 44.8279 219.491 45.0279C219.883 45.2199 220.307 45.3159 220.763 45.3159C221.003 45.3159 221.247 45.2879 221.495 45.2319C221.751 45.1679 221.995 45.0719 222.227 44.9439C222.467 44.8079 222.687 44.6439 222.887 44.4519C223.087 44.2519 223.255 44.0119 223.391 43.7319L224.087 44.0919C223.951 44.4119 223.759 44.6959 223.511 44.9439C223.263 45.1839 222.987 45.3879 222.683 45.5559C222.379 45.7239 222.055 45.8519 221.711 45.9399C221.375 46.0279 221.043 46.0719 220.715 46.0719C220.131 46.0719 219.595 45.9439 219.107 45.6879C218.619 45.4319 218.199 45.0999 217.847 44.6919C217.495 44.2759 217.219 43.8079 217.019 43.2879C216.827 42.7599 216.731 42.2239 216.731 41.6799Z" fill="#123053"/>
<path d="M231.245 45.2559V45.9999H225.521V37.4799H231.137V38.2239H226.361V41.2959H230.525V42.0039H226.361V45.2559H231.245Z" fill="#123053"/>
<path d="M85.708 55.4799H86.416L89.956 63.9999H89.068L87.964 61.3359H84.136L83.044 63.9999H82.144L85.708 55.4799ZM87.772 60.6759L86.056 56.4639L84.316 60.6759H87.772Z" fill="#123053"/>
<path d="M96.0285 57.0759C95.7885 56.8039 95.4685 56.5839 95.0685 56.4159C94.6685 56.2479 94.2125 56.1639 93.7005 56.1639C92.9485 56.1639 92.4005 56.3079 92.0565 56.5959C91.7125 56.8759 91.5405 57.2599 91.5405 57.7479C91.5405 58.0039 91.5845 58.2159 91.6725 58.3839C91.7685 58.5439 91.9125 58.6839 92.1045 58.8039C92.2965 58.9239 92.5405 59.0279 92.8365 59.1159C93.1405 59.2039 93.4965 59.2919 93.9045 59.3799C94.3605 59.4759 94.7685 59.5839 95.1285 59.7039C95.4965 59.8239 95.8085 59.9759 96.0645 60.1599C96.3205 60.3359 96.5165 60.5519 96.6525 60.8079C96.7885 61.0639 96.8565 61.3839 96.8565 61.7679C96.8565 62.1599 96.7805 62.4999 96.6285 62.7879C96.4765 63.0759 96.2645 63.3159 95.9925 63.5079C95.7205 63.6999 95.3965 63.8439 95.0205 63.9399C94.6445 64.0279 94.2325 64.0719 93.7845 64.0719C92.4645 64.0719 91.3245 63.6599 90.3645 62.8359L90.7845 62.1519C90.9365 62.3119 91.1165 62.4639 91.3245 62.6079C91.5405 62.7519 91.7765 62.8799 92.0325 62.9919C92.2965 63.0959 92.5765 63.1799 92.8725 63.2439C93.1685 63.2999 93.4805 63.3279 93.8085 63.3279C94.4885 63.3279 95.0165 63.2079 95.3925 62.9679C95.7765 62.7199 95.9685 62.3479 95.9685 61.8519C95.9685 61.5879 95.9125 61.3679 95.8005 61.1919C95.6965 61.0079 95.5365 60.8519 95.3205 60.7239C95.1045 60.5879 94.8365 60.4719 94.5165 60.3759C94.1965 60.2799 93.8245 60.1839 93.4005 60.0879C92.9525 59.9839 92.5605 59.8759 92.2245 59.7639C91.8885 59.6519 91.6045 59.5119 91.3725 59.3439C91.1405 59.1759 90.9645 58.9759 90.8445 58.7439C90.7325 58.5039 90.6765 58.2119 90.6765 57.8679C90.6765 57.4759 90.7485 57.1279 90.8925 56.8239C91.0445 56.5119 91.2565 56.2559 91.5285 56.0559C91.8005 55.8479 92.1205 55.6919 92.4885 55.5879C92.8565 55.4759 93.2645 55.4199 93.7125 55.4199C94.2805 55.4199 94.7845 55.5079 95.2245 55.6839C95.6725 55.8519 96.0765 56.0919 96.4365 56.4039L96.0285 57.0759Z" fill="#123053"/>
<path d="M103.318 57.0759C103.078 56.8039 102.758 56.5839 102.358 56.4159C101.958 56.2479 101.502 56.1639 100.99 56.1639C100.238 56.1639 99.6895 56.3079 99.3455 56.5959C99.0015 56.8759 98.8295 57.2599 98.8295 57.7479C98.8295 58.0039 98.8735 58.2159 98.9615 58.3839C99.0575 58.5439 99.2015 58.6839 99.3935 58.8039C99.5855 58.9239 99.8295 59.0279 100.126 59.1159C100.43 59.2039 100.786 59.2919 101.194 59.3799C101.65 59.4759 102.058 59.5839 102.418 59.7039C102.786 59.8239 103.098 59.9759 103.354 60.1599C103.61 60.3359 103.806 60.5519 103.942 60.8079C104.078 61.0639 104.146 61.3839 104.146 61.7679C104.146 62.1599 104.07 62.4999 103.918 62.7879C103.766 63.0759 103.554 63.3159 103.282 63.5079C103.01 63.6999 102.686 63.8439 102.31 63.9399C101.934 64.0279 101.522 64.0719 101.074 64.0719C99.7535 64.0719 98.6135 63.6599 97.6535 62.8359L98.0735 62.1519C98.2255 62.3119 98.4055 62.4639 98.6135 62.6079C98.8295 62.7519 99.0655 62.8799 99.3215 62.9919C99.5855 63.0959 99.8655 63.1799 100.162 63.2439C100.458 63.2999 100.77 63.3279 101.098 63.3279C101.778 63.3279 102.306 63.2079 102.682 62.9679C103.066 62.7199 103.258 62.3479 103.258 61.8519C103.258 61.5879 103.202 61.3679 103.09 61.1919C102.986 61.0079 102.826 60.8519 102.61 60.7239C102.394 60.5879 102.126 60.4719 101.806 60.3759C101.486 60.2799 101.114 60.1839 100.69 60.0879C100.242 59.9839 99.8495 59.8759 99.5135 59.7639C99.1775 59.6519 98.8935 59.5119 98.6615 59.3439C98.4295 59.1759 98.2535 58.9759 98.1335 58.7439C98.0215 58.5039 97.9655 58.2119 97.9655 57.8679C97.9655 57.4759 98.0375 57.1279 98.1815 56.8239C98.3335 56.5119 98.5455 56.2559 98.8175 56.0559C99.0895 55.8479 99.4095 55.6919 99.7775 55.5879C100.146 55.4759 100.554 55.4199 101.002 55.4199C101.57 55.4199 102.074 55.5079 102.514 55.6839C102.962 55.8519 103.366 56.0919 103.726 56.4039L103.318 57.0759Z" fill="#123053"/>
<path d="M109.059 64.0599C108.467 64.0599 107.923 63.9399 107.427 63.6999C106.939 63.4519 106.519 63.1279 106.167 62.7279C105.815 62.3199 105.543 61.8559 105.351 61.3359C105.159 60.8159 105.063 60.2839 105.063 59.7399C105.063 59.1719 105.163 58.6279 105.363 58.1079C105.571 57.5879 105.855 57.1279 106.215 56.7279C106.575 56.3279 106.999 56.0119 107.487 55.7799C107.975 55.5399 108.503 55.4199 109.071 55.4199C109.663 55.4199 110.203 55.5479 110.691 55.8039C111.187 56.0519 111.607 56.3799 111.951 56.7879C112.303 57.1959 112.575 57.6599 112.767 58.1799C112.959 58.6919 113.055 59.2159 113.055 59.7519C113.055 60.3199 112.951 60.8639 112.743 61.3839C112.543 61.9039 112.263 62.3639 111.903 62.7639C111.551 63.1559 111.131 63.4719 110.643 63.7119C110.155 63.9439 109.627 64.0599 109.059 64.0599ZM105.903 59.7399C105.903 60.2039 105.979 60.6519 106.131 61.0839C106.283 61.5079 106.499 61.8879 106.779 62.2239C107.059 62.5519 107.391 62.8159 107.775 63.0159C108.159 63.2079 108.587 63.3039 109.059 63.3039C109.539 63.3039 109.975 63.1999 110.367 62.9919C110.759 62.7839 111.091 62.5119 111.363 62.1759C111.635 61.8399 111.843 61.4599 111.987 61.0359C112.139 60.6119 112.215 60.1799 112.215 59.7399C112.215 59.2759 112.135 58.8319 111.975 58.4079C111.823 57.9759 111.607 57.5959 111.327 57.2679C111.047 56.9399 110.715 56.6799 110.331 56.4879C109.947 56.2879 109.523 56.1879 109.059 56.1879C108.579 56.1879 108.143 56.2919 107.751 56.4999C107.359 56.6999 107.027 56.9679 106.755 57.3039C106.483 57.6399 106.271 58.0199 106.119 58.4439C105.975 58.8679 105.903 59.2999 105.903 59.7399Z" fill="#123053"/>
<path d="M114.074 59.6799C114.074 59.1679 114.162 58.6599 114.338 58.1559C114.522 57.6439 114.786 57.1879 115.13 56.7879C115.474 56.3879 115.898 56.0639 116.402 55.8159C116.906 55.5599 117.478 55.4319 118.118 55.4319C118.878 55.4319 119.526 55.6039 120.062 55.9479C120.606 56.2919 121.006 56.7399 121.262 57.2919L120.602 57.6999C120.466 57.4199 120.298 57.1839 120.098 56.9919C119.906 56.7999 119.698 56.6439 119.474 56.5239C119.25 56.4039 119.018 56.3199 118.778 56.2719C118.538 56.2159 118.302 56.1879 118.07 56.1879C117.558 56.1879 117.106 56.2919 116.714 56.4999C116.322 56.7079 115.99 56.9799 115.718 57.3159C115.454 57.6519 115.254 58.0319 115.118 58.4559C114.982 58.8719 114.914 59.2959 114.914 59.7279C114.914 60.1999 114.994 60.6519 115.154 61.0839C115.322 61.5159 115.546 61.8999 115.826 62.2359C116.114 62.5639 116.45 62.8279 116.834 63.0279C117.226 63.2199 117.65 63.3159 118.106 63.3159C118.346 63.3159 118.59 63.2879 118.838 63.2319C119.094 63.1679 119.338 63.0719 119.57 62.9439C119.81 62.8079 120.03 62.6439 120.23 62.4519C120.43 62.2519 120.598 62.0119 120.734 61.7319L121.43 62.0919C121.294 62.4119 121.102 62.6959 120.854 62.9439C120.606 63.1839 120.33 63.3879 120.026 63.5559C119.722 63.7239 119.398 63.8519 119.054 63.9399C118.718 64.0279 118.386 64.0719 118.058 64.0719C117.474 64.0719 116.938 63.9439 116.45 63.6879C115.962 63.4319 115.542 63.0999 115.19 62.6919C114.838 62.2759 114.562 61.8079 114.362 61.2879C114.17 60.7599 114.074 60.2239 114.074 59.6799Z" fill="#123053"/>
<path d="M122.865 63.9999V55.4799H123.705V63.9999H122.865Z" fill="#123053"/>
<path d="M128.481 55.4799H129.189L132.729 63.9999H131.841L130.737 61.3359H126.909L125.817 63.9999H124.917L128.481 55.4799ZM130.545 60.6759L128.829 56.4639L127.089 60.6759H130.545Z" fill="#123053"/>
<path d="M139.155 56.2239H136.119V63.9999H135.279V56.2239H132.243V55.4799H139.155V56.2239Z" fill="#123053"/>
<path d="M140.431 63.9999V55.4799H141.271V63.9999H140.431Z" fill="#123053"/>
<path d="M146.84 64.0599C146.248 64.0599 145.704 63.9399 145.208 63.6999C144.72 63.4519 144.3 63.1279 143.948 62.7279C143.596 62.3199 143.324 61.8559 143.132 61.3359C142.94 60.8159 142.844 60.2839 142.844 59.7399C142.844 59.1719 142.944 58.6279 143.144 58.1079C143.352 57.5879 143.636 57.1279 143.996 56.7279C144.356 56.3279 144.78 56.0119 145.268 55.7799C145.756 55.5399 146.284 55.4199 146.852 55.4199C147.444 55.4199 147.984 55.5479 148.472 55.8039C148.968 56.0519 149.388 56.3799 149.732 56.7879C150.084 57.1959 150.356 57.6599 150.548 58.1799C150.74 58.6919 150.836 59.2159 150.836 59.7519C150.836 60.3199 150.732 60.8639 150.524 61.3839C150.324 61.9039 150.044 62.3639 149.684 62.7639C149.332 63.1559 148.912 63.4719 148.424 63.7119C147.936 63.9439 147.408 64.0599 146.84 64.0599ZM143.684 59.7399C143.684 60.2039 143.76 60.6519 143.912 61.0839C144.064 61.5079 144.28 61.8879 144.56 62.2239C144.84 62.5519 145.172 62.8159 145.556 63.0159C145.94 63.2079 146.368 63.3039 146.84 63.3039C147.32 63.3039 147.756 63.1999 148.148 62.9919C148.54 62.7839 148.872 62.5119 149.144 62.1759C149.416 61.8399 149.624 61.4599 149.768 61.0359C149.92 60.6119 149.996 60.1799 149.996 59.7399C149.996 59.2759 149.916 58.8319 149.756 58.4079C149.604 57.9759 149.388 57.5959 149.108 57.2679C148.828 56.9399 148.496 56.6799 148.112 56.4879C147.728 56.2879 147.304 56.1879 146.84 56.1879C146.36 56.1879 145.924 56.2919 145.532 56.4999C145.14 56.6999 144.808 56.9679 144.536 57.3039C144.264 57.6399 144.052 58.0199 143.9 58.4439C143.756 58.8679 143.684 59.2999 143.684 59.7399Z" fill="#123053"/>
<path d="M153.26 57.0399V63.9999H152.42V55.4799H153.068L158.708 62.5719V55.4919H159.548V63.9999H158.816L153.26 57.0399Z" fill="#123053"/>
<path d="M168.18 64.0599C167.588 64.0599 167.044 63.9399 166.548 63.6999C166.06 63.4519 165.64 63.1279 165.288 62.7279C164.936 62.3199 164.664 61.8559 164.472 61.3359C164.28 60.8159 164.184 60.2839 164.184 59.7399C164.184 59.1719 164.284 58.6279 164.484 58.1079C164.692 57.5879 164.976 57.1279 165.336 56.7279C165.696 56.3279 166.12 56.0119 166.608 55.7799C167.096 55.5399 167.624 55.4199 168.192 55.4199C168.784 55.4199 169.324 55.5479 169.812 55.8039C170.308 56.0519 170.728 56.3799 171.072 56.7879C171.424 57.1959 171.696 57.6599 171.888 58.1799C172.08 58.6919 172.176 59.2159 172.176 59.7519C172.176 60.3199 172.072 60.8639 171.864 61.3839C171.664 61.9039 171.384 62.3639 171.024 62.7639C170.672 63.1559 170.252 63.4719 169.764 63.7119C169.276 63.9439 168.748 64.0599 168.18 64.0599ZM165.024 59.7399C165.024 60.2039 165.1 60.6519 165.252 61.0839C165.404 61.5079 165.62 61.8879 165.9 62.2239C166.18 62.5519 166.512 62.8159 166.896 63.0159C167.28 63.2079 167.708 63.3039 168.18 63.3039C168.66 63.3039 169.096 63.1999 169.488 62.9919C169.88 62.7839 170.212 62.5119 170.484 62.1759C170.756 61.8399 170.964 61.4599 171.108 61.0359C171.26 60.6119 171.336 60.1799 171.336 59.7399C171.336 59.2759 171.256 58.8319 171.096 58.4079C170.944 57.9759 170.728 57.5959 170.448 57.2679C170.168 56.9399 169.836 56.6799 169.452 56.4879C169.068 56.2879 168.644 56.1879 168.18 56.1879C167.7 56.1879 167.264 56.2919 166.872 56.4999C166.48 56.6999 166.148 56.9679 165.876 57.3039C165.604 57.6399 165.392 58.0199 165.24 58.4439C165.096 58.8679 165.024 59.2999 165.024 59.7399Z" fill="#123053"/>
<path d="M173.759 63.9999V55.4799H179.351V56.2239H174.599V59.3559H178.607V60.0519H174.599V63.9999H173.759Z" fill="#123053"/>
<path d="M83.068 81.9999V73.4799H83.908V81.2559H88.828V81.9999H83.068Z" fill="#123053"/>
<path d="M90.0641 81.9999V73.4799H90.9041V81.9999H90.0641Z" fill="#123053"/>
<path d="M99.0886 74.2239H96.0526V81.9999H95.2126V74.2239H92.1766V73.4799H99.0886V74.2239Z" fill="#123053"/>
<path d="M107.085 73.4799V81.9999H106.257V78.0159H101.205V81.9999H100.365V73.4799H101.205V77.2719H106.257V73.4799H107.085Z" fill="#123053"/>
<path d="M112.68 81.3039C113.216 81.3039 113.66 81.2039 114.012 81.0039C114.372 80.7959 114.656 80.5279 114.864 80.1999C115.08 79.8639 115.228 79.4839 115.308 79.0599C115.396 78.6359 115.44 78.2079 115.44 77.7759V73.4799H116.28V77.7759C116.28 78.3519 116.216 78.8999 116.088 79.4199C115.96 79.9319 115.752 80.3839 115.464 80.7759C115.184 81.1679 114.816 81.4799 114.36 81.7119C113.904 81.9439 113.348 82.0599 112.692 82.0599C112.02 82.0599 111.452 81.9399 110.988 81.6999C110.532 81.4519 110.164 81.1279 109.884 80.7279C109.604 80.3279 109.404 79.8719 109.284 79.3599C109.164 78.8479 109.104 78.3199 109.104 77.7759V73.4799H109.932V77.7759C109.932 78.2239 109.976 78.6599 110.064 79.0839C110.152 79.5079 110.3 79.8839 110.508 80.2119C110.724 80.5399 111.008 80.8039 111.36 81.0039C111.712 81.2039 112.152 81.3039 112.68 81.3039Z" fill="#123053"/>
<path d="M120.56 73.4799H121.268L124.808 81.9999H123.92L122.816 79.3359H118.988L117.896 81.9999H116.996L120.56 73.4799ZM122.624 78.6759L120.908 74.4639L119.168 78.6759H122.624Z" fill="#123053"/>
<path d="M126.869 75.0399V81.9999H126.029V73.4799H126.677L132.317 80.5719V73.4919H133.157V81.9999H132.425L126.869 75.0399Z" fill="#123053"/>
<path d="M135.298 81.9999V73.4799H136.138V81.9999H135.298Z" fill="#123053"/>
<path d="M140.915 73.4799H141.623L145.163 81.9999H144.275L143.171 79.3359H139.343L138.251 81.9999H137.351L140.915 73.4799ZM142.979 78.6759L141.263 74.4639L139.523 78.6759H142.979Z" fill="#123053"/>
</svg>
