<svg width="240" height="120" viewBox="0 0 240 120" fill="none" xmlns="http://www.w3.org/2000/svg">
<path d="M81.1349 42.5068H84.4849L88.62 52.187L93.1352 42.5068H96.4478L90.0676 55.5547H86.9375L81.1349 42.5068Z" fill="#123053"/>
<path d="M124.981 42.8421C124.981 41.9171 125.563 41.592 126.581 41.592C127.599 41.592 128.184 41.9121 128.184 42.8421C128.184 43.7271 127.659 44.1096 126.581 44.1096C125.446 44.1196 124.981 43.8021 124.981 42.8421ZM124.981 45.0521H128.184V55.5524H124.981V45.0521Z" fill="#123053"/>
<path d="M185.265 64.8248C185.265 63.8998 185.848 63.5747 186.865 63.5747C187.882 63.5747 188.468 63.8947 188.468 64.8248C188.468 65.7098 187.943 66.0923 186.865 66.0923C185.73 66.0923 185.265 65.7848 185.265 64.8248ZM185.265 67.0348H188.468V77.5351H185.265V67.0348Z" fill="#123053"/>
<path d="M97.5477 42.8421C97.5477 41.9171 98.1303 41.592 99.1478 41.592C100.165 41.592 100.748 41.9121 100.748 42.8421C100.748 43.7271 100.225 44.1096 99.1478 44.1096C98.0128 44.1196 97.5477 43.8021 97.5477 42.8421ZM97.5477 45.0521H100.748V55.5524H97.5477V45.0521Z" fill="#123053"/>
<path d="M103.515 41.647H106.635V55.5548H103.515V41.647Z" fill="#123053"/>
<path d="M109.426 55.555V45.0546H112.136L112.386 47.3423C113.228 45.6946 114.801 44.6697 117.106 44.6697C118.085 44.6358 119.055 44.8563 119.923 45.3097C121.461 46.1522 122.303 47.7072 122.303 49.8098V55.5599H119.161V50.5598C119.161 48.4173 118.393 47.1747 116.068 47.1747C113.636 47.1747 112.593 48.4373 112.593 50.9073V55.555H109.426Z" fill="#123053"/>
<path d="M135.831 55.9023C132.582 55.9023 130.831 53.9448 130.831 50.7973V45.0471H133.976V50.1747C133.976 52.2598 134.819 53.3573 137.124 53.3573C139.136 53.3573 140.199 52.0773 140.199 49.9922V45.0521H143.364V55.5524H140.681L140.406 53.1723C139.712 54.8398 138.192 55.9023 135.831 55.9023Z" fill="#123053"/>
<path d="M145.137 52.0772H148.704C149.052 53.1023 149.954 53.5223 152.382 53.5223C154.669 53.5223 155.327 53.0647 155.327 52.3346C155.327 51.9847 155.182 51.7847 154.65 51.6572C154.117 51.5297 153.077 51.4372 151.32 51.3821C147.149 51.2546 145.519 50.3821 145.519 48.3071C145.501 47.6287 145.729 46.9668 146.159 46.442C147.019 45.3445 148.722 44.667 151.394 44.667C155.344 44.667 157.487 45.782 158.255 48.3271H154.899C154.604 47.247 153.324 46.9171 151.366 46.9171C150.779 46.8917 150.19 46.9471 149.617 47.082C148.812 47.302 148.539 47.667 148.539 48.0521C148.539 48.362 148.629 48.582 149.142 48.7471C149.654 48.9121 150.641 48.9846 152.392 49.0571C154.79 49.1496 156.306 49.4046 157.185 49.9172C158.062 50.4297 158.412 51.1671 158.412 52.2597C158.412 54.3647 156.325 55.9023 152.226 55.9023C147.909 55.9023 145.677 54.6747 145.137 52.0772Z" fill="#123053"/>
<path d="M89.5901 77.5128H86.4426V67.0825H81.7599V64.4648H94.4953V67.0825H89.5901V77.5128Z" fill="#123053"/>
<path d="M100.588 77.8699C98.9228 77.8699 97.6053 77.62 96.6003 77.1925C94.6003 76.26 93.8177 74.6124 93.8177 72.4724C93.8077 71.4562 94.0739 70.4564 94.5878 69.5798C95.6478 67.7872 97.6778 66.6347 100.825 66.6347C102.103 66.6003 103.374 66.8309 104.558 67.3122C106.626 68.2272 107.743 69.9098 107.743 72.2698V73.3698H96.7653C97.1303 74.7424 98.3004 75.4549 100.845 75.4549C102.765 75.4549 103.68 75.0899 104.193 74.3749H107.616C106.481 76.9824 104.065 77.8699 100.588 77.8699ZM96.8378 71.1723H104.668C104.32 69.6348 103.168 69.0148 100.918 69.0148C98.5928 69.0048 97.2753 69.7897 96.8378 71.1623V71.1723Z" fill="#123053"/>
<path d="M122.838 75.4806C121.758 76.9807 119.746 77.8607 116.588 77.8607C114.923 77.8607 113.588 77.6407 112.563 77.1831C110.551 76.3056 109.711 74.6206 109.711 72.3355C109.687 71.2598 109.986 70.2016 110.571 69.2979C111.733 67.5779 113.886 66.6204 116.691 66.6204C120.941 66.6204 123.368 68.3704 123.753 71.488H120.406C120.131 69.9155 119.051 69.1279 116.728 69.1279C114.148 69.1279 112.886 70.1704 112.886 72.3305C112.886 74.3305 114.021 75.3131 116.691 75.3131C119.143 75.3131 120.168 74.4531 120.406 72.878H123.753C123.699 73.8144 123.383 74.7165 122.838 75.4806Z" fill="#123053"/>
<path d="M125.823 77.5131V63.6052H128.823V69.1504C129.611 67.6204 131.136 66.6204 133.387 66.6204C134.359 66.5854 135.325 66.8061 136.187 67.2603C137.724 68.1029 138.546 69.6579 138.546 71.7605V77.5106H135.411V72.683C135.415 72.0501 135.322 71.4205 135.136 70.8155C134.751 69.7354 133.886 69.1128 132.353 69.1128C129.921 69.1128 128.823 70.3629 128.823 72.828V77.5131H125.823Z" fill="#123053"/>
<path d="M144.486 77.5128H141.467V64.4648H153.561V67.175H144.486V70.1025H153.306V72.8276H144.486V77.5128Z" fill="#123053"/>
<path d="M160.462 77.8706C157.212 77.8706 155.447 75.913 155.447 72.7654V67.0153H158.595V72.1379C158.595 74.2229 159.436 75.3229 161.742 75.3229C163.754 75.3229 164.817 74.0405 164.817 71.9554V67.0103H167.982V77.5106H165.309L165.034 75.1305C164.34 76.7981 162.822 77.8706 160.462 77.8706Z" fill="#123053"/>
<path d="M169.774 74.0353H173.342C173.689 75.0602 174.592 75.4802 177.022 75.4802C179.307 75.4802 179.967 75.0228 179.967 74.2927C179.967 73.9452 179.82 73.7427 179.29 73.6153C178.76 73.4877 177.718 73.3953 175.959 73.3402C171.787 73.2127 170.159 72.3527 170.159 70.2676C170.141 69.5882 170.368 68.925 170.8 68.4001C171.66 67.3026 173.362 66.625 176.032 66.625C179.985 66.625 182.125 67.7426 182.895 70.2851H179.528C179.234 69.2051 177.955 68.8751 175.997 68.8751C175.409 68.8494 174.82 68.9049 174.248 69.0401C173.442 69.2601 173.167 69.6251 173.167 70.0101C173.167 70.3227 173.26 70.5401 173.772 70.7051C174.285 70.8702 175.272 70.9427 177.022 71.0177C179.417 71.1076 180.937 71.3651 181.815 71.8777C182.692 72.3902 183.039 73.1277 183.039 74.2177C183.039 76.3228 180.955 77.8603 176.858 77.8603C172.537 77.8703 170.304 76.6353 169.774 74.0353Z" fill="#123053"/>
<path d="M193.525 77.1827C191.525 76.3053 190.673 74.6202 190.673 72.3351C190.649 71.2594 190.948 70.2012 191.533 69.2975C192.685 67.5775 194.825 66.62 197.637 66.62C198.909 66.5874 200.174 66.818 201.353 67.2975C203.458 68.2126 204.628 69.8951 204.628 72.3301C204.655 73.3447 204.395 74.3464 203.878 75.2202C202.888 76.8902 200.863 77.8702 197.553 77.8702C195.888 77.8702 194.55 77.6403 193.525 77.1827ZM201.468 72.3351C201.468 70.23 200.35 69.1326 197.68 69.1326C195.1 69.1326 193.837 70.1751 193.837 72.3351C193.837 74.3352 194.972 75.3177 197.642 75.3177C200.442 75.3177 201.468 74.2727 201.468 72.3351Z" fill="#123053"/>
<path d="M206.958 77.5131V67.0128H209.666L209.916 69.3004C210.763 67.6504 212.338 66.6203 214.638 66.6203C215.617 66.5879 216.588 66.8083 217.456 67.2603C218.994 68.1028 219.833 69.6579 219.833 71.7604V77.5106H216.691V72.5105C216.691 70.3679 215.924 69.1254 213.601 69.1254C211.165 69.1254 210.123 70.3754 210.123 72.858V77.5056L206.958 77.5131Z" fill="#123053"/>
<path d="M70.4947 54.0924C70.3171 53.2999 70.1046 52.5198 69.8546 51.7573L45.5665 54.4799C45.5076 54.4874 45.448 54.4874 45.389 54.4799L21.1034 51.7573C20.8534 52.5073 20.6409 53.2999 20.4634 54.0924L45.384 56.8874C45.4431 56.8925 45.5025 56.8925 45.5615 56.8874L70.4947 54.0924Z" fill="#123053"/>
<path d="M68.157 47.7573C67.7694 47.0155 67.3446 46.2938 66.8845 45.5947L45.664 50.3449C45.5487 50.3699 45.4293 50.3699 45.3139 50.3449L24.0834 45.5947C23.6199 46.2936 23.1918 47.0153 22.8009 47.7573L45.3015 52.8024C45.4168 52.8274 45.5362 52.8274 45.6515 52.8024L68.157 47.7573Z" fill="#123053"/>
<path d="M64.3845 42.3946C63.7781 41.737 63.1389 41.1104 62.4694 40.5171L45.744 46.1422C45.5815 46.1949 45.4065 46.1949 45.244 46.1422L28.5186 40.5171C27.8519 41.1121 27.2127 41.738 26.601 42.3946L45.244 48.6648C45.4065 48.7176 45.5815 48.7176 45.744 48.6648L64.3845 42.3946Z" fill="#123053"/>
<path d="M59.5343 38.2822C58.7105 37.7423 57.8566 37.2498 56.9768 36.8071L45.804 41.8073C45.7018 41.853 45.591 41.8767 45.4789 41.8767C45.3669 41.8767 45.2562 41.853 45.1539 41.8073L33.9811 36.8071C33.1009 37.2492 32.247 37.7417 31.4236 38.2822L45.1539 44.4373C45.2562 44.4831 45.3669 44.5068 45.4789 44.5068C45.591 44.5068 45.7018 44.4831 45.804 44.4373L59.5343 38.2822Z" fill="#123053"/>
<path d="M54.0117 35.5444C52.9498 35.1677 51.864 34.862 50.7616 34.6294L45.869 37.3695C45.7501 37.4369 45.6157 37.4724 45.4789 37.4724C45.3423 37.4724 45.2079 37.4369 45.089 37.3695L40.2038 34.6194C39.1014 34.852 38.0157 35.1577 36.9538 35.5344L45.089 40.1195C45.2083 40.1859 45.3425 40.2207 45.4789 40.2207C45.6155 40.2207 45.7497 40.1859 45.869 40.1195L54.0117 35.5444Z" fill="#123053"/>
<path d="M71.1347 59.7303C71.1347 59.3277 71.1221 58.9302 71.1046 58.5327H19.8633C19.8458 58.9302 19.8333 59.3277 19.8333 59.7303C19.8333 60.1327 19.8333 60.5277 19.8633 60.9253H71.0947C71.1121 60.5277 71.1347 60.1202 71.1347 59.7303Z" fill="#123053"/>
<path d="M69.8546 67.7001C70.1046 66.9501 70.3171 66.1576 70.4947 65.365L45.5665 62.5725C45.5076 62.565 45.448 62.565 45.389 62.5725L20.4634 65.3701C20.6409 66.1626 20.8534 66.9426 21.1034 67.7051L45.384 64.9775C45.4429 64.9701 45.5026 64.9701 45.5615 64.9775L69.8546 67.7001Z" fill="#123053"/>
<path d="M66.8845 73.8703C67.3479 73.1736 67.7754 72.4528 68.167 71.7078L45.6664 66.6601C45.5511 66.6351 45.4318 66.6351 45.3165 66.6601L22.8159 71.7078C23.1942 72.4478 23.6167 73.1686 24.0834 73.8703L45.3039 69.1202C45.419 69.0926 45.5389 69.0926 45.6539 69.1202L66.8845 73.8703Z" fill="#123053"/>
<path d="M62.4594 78.9407C63.1295 78.3481 63.7687 77.7214 64.3745 77.0631L45.734 70.7929C45.5715 70.7402 45.3965 70.7402 45.234 70.7929L26.581 77.0631C27.1894 77.7197 27.8285 78.3456 28.4986 78.9407L45.224 73.3155C45.3864 73.2628 45.5615 73.2628 45.724 73.3155L62.4594 78.9407Z" fill="#123053"/>
<path d="M56.9768 82.6505C57.8566 82.2079 58.7105 81.7154 59.5343 81.1755L45.804 75.0204C45.7018 74.9746 45.591 74.9509 45.4789 74.9509C45.3669 74.9509 45.2562 74.9746 45.1539 75.0204L31.4236 81.1755C32.2473 81.7154 33.1012 82.2079 33.9811 82.6505L45.1539 77.6504C45.2562 77.6046 45.3669 77.581 45.4789 77.581C45.591 77.581 45.7018 77.6046 45.804 77.6504L56.9768 82.6505Z" fill="#123053"/>
<path d="M50.7541 84.8282C51.8566 84.5956 52.9424 84.2899 54.0042 83.9132L45.8615 79.3506C45.7426 79.2831 45.6083 79.2476 45.4715 79.2476C45.3348 79.2476 45.2003 79.2831 45.0815 79.3506L36.9462 83.9132C38.0082 84.2899 39.0939 84.5956 40.1964 84.8282L45.0815 82.0781C45.2007 82.0118 45.335 81.977 45.4715 81.977C45.608 81.977 45.7422 82.0118 45.8615 82.0781L50.7541 84.8282Z" fill="#123053"/>
</svg>
