<svg width="240" height="120" viewBox="0 0 240 120" fill="none" xmlns="http://www.w3.org/2000/svg">
<path fill-rule="evenodd" clip-rule="evenodd" d="M15.2707 43.6123L11.9708 46.8888L15.2323 50.1549C17.0261 51.9514 18.568 53.4219 18.6588 53.4231C18.7498 53.4241 20.2951 51.9524 22.0932 50.1527L25.3624 46.8804L22.0932 43.6082C20.2951 41.8084 18.767 40.3359 18.6973 40.3359C18.6276 40.3359 17.0857 41.8102 15.2707 43.6123ZM210.854 44.8484C200.619 47.0897 195.785 60.1444 201.801 69.2952C209.06 80.3356 225.246 77.1951 228.527 64.1099C231.31 53.0105 221.651 42.4838 210.854 44.8484ZM40.3361 45.8027L38.7817 46.3353V60.8012V75.2671L46.1034 75.3096L53.4251 75.3523V73.7962V72.2403H47.7805H42.1358V58.7423C42.1358 51.3184 42.0807 45.25 42.0131 45.2572C41.9457 45.2643 41.191 45.5097 40.3361 45.8027ZM76.0037 45.7935L74.613 46.3182L74.5713 60.8336L74.5294 75.3489H76.0847H77.6399V69.2435C77.6399 61.4654 77.7788 60.704 79.541 58.82C81.7348 56.4746 85.6666 56.7681 86.9972 59.3766C87.6646 60.6847 87.6851 60.9152 87.7762 68.15L87.8657 75.2671H89.42H90.9743L90.973 67.9045C90.9715 59.9595 90.9333 59.5422 90.0339 57.6788C87.9074 53.2734 80.9941 53.4604 77.9326 58.006C77.6719 58.3928 77.6565 58.0572 77.6484 51.8297C77.6438 48.2076 77.5847 45.2499 77.5171 45.2566C77.4496 45.2634 76.7686 45.5051 76.0037 45.7935ZM173.19 60.2966V75.3489L177.894 75.3432C183.276 75.3366 184.532 75.184 186.335 74.3167C191.92 71.6293 192.655 63.2665 187.612 59.7896L186.809 59.2362L187.596 58.3751C190.032 55.7099 189.757 50.3366 187.045 47.6252C185.036 45.6157 183.59 45.2499 177.648 45.2467L173.19 45.2443V60.2966ZM194.828 46.117L192.988 46.7986L192.987 61.0787L192.987 75.3587L195.073 75.3129L197.159 75.2671L197.201 60.3375C197.241 46.1906 197.228 45.4086 196.956 45.4216C196.798 45.4292 195.84 45.742 194.828 46.117ZM56.1678 48.7726C55.1755 49.311 54.8868 51.0347 55.6393 51.929C56.8495 53.3673 59.0622 52.6469 59.2702 50.7467C59.4459 49.1401 57.6256 47.9817 56.1678 48.7726ZM148.63 48.7615C147.142 49.5705 147.284 51.713 148.879 52.5052C150.465 53.2927 152.241 51.4651 151.534 49.7737C151.084 48.6962 149.662 48.2006 148.63 48.7615ZM216.63 48.9326C223.921 50.8318 227.147 60.6425 222.653 67.2552C217.803 74.3942 207.406 73.1311 204.279 65.023C200.812 56.0332 207.99 46.6823 216.63 48.9326ZM65.6552 49.5247L64.2236 50.0164V52.4511V54.8859L62.5466 54.9326L60.8695 54.9792V56.3699V57.7606L62.5369 57.8071L64.2044 57.8537L64.257 64.8424C64.3162 72.7254 64.3492 72.9497 65.6477 74.2866C66.8641 75.5392 69.212 76.013 71.3434 75.4361L72.4042 75.1489V73.7856V72.4222L71.64 72.7604C70.129 73.4287 68.4315 72.914 67.7787 71.5894C67.423 70.8679 67.4127 70.6877 67.3615 64.346L67.3088 57.8424H69.8566H72.4042V56.3699V54.8974H69.8682H67.3322V51.9524C67.3322 50.3326 67.2771 49.0133 67.2095 49.0203C67.1419 49.0273 66.4427 49.2544 65.6552 49.5247ZM182.478 49.5841C185.811 50.5736 186.157 55.6245 183.007 57.2905C182.536 57.5394 181.974 57.6037 179.857 57.6505L177.28 57.7076V53.5211V49.3346H179.459C180.936 49.3346 181.909 49.4151 182.478 49.5841ZM15.3427 56.9031L12.031 60.2177L15.3851 63.5688L18.7391 66.9198L22.0114 63.6506C23.8111 61.8525 25.2837 60.3064 25.2837 60.2148C25.2837 60.0517 18.8974 53.5885 18.7362 53.5885C18.6912 53.5885 17.164 55.0802 15.3427 56.9031ZM118.38 54.6764C117.271 54.8436 115.733 55.3284 114.739 55.8236L113.635 56.374V58.0162C113.635 59.2907 113.681 59.6291 113.839 59.5276C113.952 59.4556 114.473 59.1147 114.997 58.7699C119.366 55.8985 123.617 57.1678 124.055 61.4741C124.168 62.5793 124.607 62.4016 120.261 63.007C113.661 63.9263 111.753 65.4466 111.753 69.7861C111.753 76.1504 118.001 77.7728 123.288 72.7812L124.024 72.086L124.106 73.6764L124.188 75.2671H125.742H127.296L127.291 67.8227C127.286 59.9471 127.234 59.3233 126.445 57.7678C125.205 55.3234 122.067 54.1204 118.38 54.6764ZM136.95 54.7899C135.335 55.3257 133.977 56.3308 133.121 57.624L132.614 58.3894V56.7251C132.614 54.7961 132.74 54.8743 130.814 55.6055L129.423 56.1336V65.7004V75.2671H130.978H132.532L132.614 68.4772L132.696 61.6873L133.215 60.5909C135.136 56.5358 140.172 55.9758 142.012 59.6125C142.639 60.8503 142.758 62.3486 142.758 68.9824V75.3489H144.312H145.867L145.864 68.1909C145.86 59.3936 145.707 58.4262 144.003 56.4352C142.656 54.8622 139.177 54.0505 136.95 54.7899ZM159.365 54.7994C156.088 55.4314 155.192 56.1397 155.192 58.099C155.192 58.9478 155.226 59.6421 155.267 59.6421C155.308 59.6421 155.752 59.3545 156.254 59.0029C160.595 55.9623 165.13 56.9952 165.638 61.14C165.819 62.613 166.28 62.3655 162.283 62.9396C155.305 63.9417 153.351 65.4391 153.346 69.7861C153.339 75.3937 159.098 77.6553 163.676 73.8428C164.184 73.4194 164.876 72.8427 165.214 72.5611L165.827 72.0492V73.699V75.3489H167.382H168.936L168.935 68.1909C168.933 60.4996 168.858 59.5307 168.14 57.9473C166.907 55.2282 163.492 54.0033 159.365 54.7994ZM56.9824 55.5905L55.5495 56.0988L55.5917 65.683L55.6339 75.2671L57.1473 75.3142L58.6607 75.3612V65.2112C58.6607 59.6286 58.6056 55.0658 58.538 55.0716C58.4705 55.0774 57.7705 55.311 56.9824 55.5905ZM94.492 55.606L93.1013 56.1345L93.1149 62.7557C93.1301 70.1971 93.2307 70.995 94.3935 72.8947C96.8153 76.8518 103.024 76.7165 106.058 72.6406L106.418 72.1584L106.427 73.7537L106.436 75.3489H107.99H109.544V65.2049C109.544 59.6258 109.489 55.0648 109.422 55.0692C109.354 55.0738 108.673 55.3151 107.908 55.6053L106.518 56.1333L106.433 62.2643C106.332 69.5258 106.246 69.9469 104.524 71.6187C102.574 73.511 98.9863 73.4425 97.4928 71.4844C96.4212 70.0794 96.3783 69.7336 96.3245 62.0554C96.2873 56.7451 96.2283 55.063 96.0791 55.0692C95.9711 55.0738 95.2569 55.3153 94.492 55.606ZM149.343 55.6011L147.994 56.1171V65.7331V75.3489H149.548H151.102V65.2049C151.102 57.1925 151.059 55.0635 150.898 55.073C150.785 55.0795 150.086 55.3172 149.343 55.6011ZM184.185 62.3092C187.31 63.8437 187.701 68.417 184.869 70.3101C183.782 71.0369 182.593 71.2586 179.782 71.2586H177.28V66.4983V61.7378L180.266 61.7945C183.15 61.8489 183.284 61.8666 184.185 62.3092ZM124.078 66.9638C123.964 70.5213 122.222 72.6863 119.223 72.9997C114.43 73.5006 113.088 67.4221 117.695 66.0827C118.453 65.8625 122.903 65.1222 123.837 65.0611C124.12 65.0426 124.136 65.1725 124.078 66.9638ZM165.786 66.8002C165.59 70.7494 163.624 72.9778 160.346 72.9654C155.85 72.9485 154.937 67.489 159.201 66.1159C159.932 65.8807 164.485 65.1171 165.482 65.0628L165.874 65.0413L165.786 66.8002ZM15.3427 70.3193L12.031 73.6339L15.3851 76.985L18.7391 80.3359L22.0114 77.0668C23.8111 75.2687 25.2837 73.7226 25.2837 73.631C25.2837 73.4678 18.8974 67.0047 18.7362 67.0047C18.6912 67.0047 17.164 68.4963 15.3427 70.3193Z" fill="#123053"/>
</svg>
