<svg width="240" height="120" viewBox="0 0 240 120" fill="none" xmlns="http://www.w3.org/2000/svg">
<path d="M20 74.5178H26.4099V55.4104H42.0917V49.0005H20V74.5178Z" fill="#123053"/>
<path d="M59.7591 74.5178H66.169V55.5327H75.6377V49.1228H59.7591V74.5178Z" fill="#123053"/>
<path d="M116.378 55.5328H123.133V49.1229H116.378V40H109.965V49.1229H103.483V55.5328H109.965V74.5179H123.461V68.1081H116.378V55.5328Z" fill="#123053"/>
<path d="M164.341 40.0059H157.932V46.4157H164.341V40.0059Z" fill="#123053"/>
<path d="M164.341 49.8682H157.932V74.5179H164.341V49.8682Z" fill="#123053"/>
<path d="M211.271 61.8443L218.933 49.8861H211.241L205.651 58.6393H202.049V40H195.64V74.5179H202.049V65.0522H205.651L212.308 74.5179H220L211.271 61.8443Z" fill="#123053"/>
<path d="M53.382 49.1228H46.9722V74.5178H53.382V49.1228Z" fill="#123053"/>
<path d="M171.175 49.8682V74.5179H177.397H190.726V68.2958H177.397V56.0902H190.726V49.8682H177.397H171.175Z" fill="#123053"/>
<path d="M142.142 49.1228C139.182 49.1228 136.716 50.208 135.041 51.9342V49.1228H128.631V80.9277H135.041V71.6587C136.716 73.4475 139.182 74.5178 142.142 74.5178C149.894 74.5178 153.188 69.0441 153.188 61.7965C153.188 54.5488 149.885 49.1228 142.142 49.1228ZM146.778 68.254H135.041V55.64H146.778V68.254Z" fill="#123053"/>
<path d="M32.8406 67.9023H39.6411V61.6504H26.4099L32.8406 67.9023Z" fill="#123053"/>
<path d="M79.746 61.8352H86.1559V55.5654H99.0531V49.1526H79.746V61.8352Z" fill="#123053"/>
<path d="M92.6433 68.0752H79.746V74.488H99.0531V61.8054H92.6433V68.0752Z" fill="#123053"/>
</svg>
