<svg width="240" height="120" viewBox="0 0 240 120" fill="none" xmlns="http://www.w3.org/2000/svg">
<path d="M72.7143 80.2841H32.0149V55.4504H19.5981V39.5845H85.1311V55.4504H72.7143V80.2841ZM44.4316 43.0336H23.0472V52.0013H35.464V76.835H44.4316V43.0336ZM56.8484 43.0336H47.8807V76.835H69.2652V67.8673H56.8484V43.0336ZM81.682 43.0336H60.2975V64.4181H69.2652V52.0013H81.682V43.0336Z" fill="#123053"/>
<path d="M105.74 57.1926V41.9589H109.953L110.4 39.2246H97.9005V41.9589H102.141V57.1926H105.74ZM125.513 57.1926L125.959 54.4583H118.817V49.3804H124.173L124.62 46.6462H118.817V41.9589H125.066L125.513 39.2246H115.245V57.1926H125.513ZM132.674 57.1926L133.455 54.0677H138.031L138.923 57.1926H142.467L137.361 39.2246H133.818L134.041 40.0895L129.075 57.1926H132.674ZM137.249 51.3335H134.153L135.603 45.5859L137.249 51.3335ZM152.669 57.5832C154.455 57.5832 155.961 57.2763 156.966 56.6904L157.552 53.3423C156.464 54.2909 154.845 54.7094 153.395 54.7094C150.437 54.7094 149.237 52.1147 149.237 48.2086C149.237 43.9119 151.163 41.7077 153.674 41.7077C155.18 41.7077 156.296 42.2658 157.133 42.9912V39.7268C156.352 39.113 154.873 38.834 153.395 38.834C148.428 38.834 145.527 43.2144 145.527 48.2086C145.527 53.6771 147.759 57.5832 152.669 57.5832ZM165.159 57.1926V49.3804H169.651V57.1926H173.195V39.2246H169.651V46.6462H165.159V39.2246H161.588V57.1926H165.159ZM188.754 57.1926L189.2 54.4583H182.058V49.3804H187.415L187.861 46.6462H182.058V41.9589H188.307L188.754 39.2246H178.486V57.1926H188.754ZM197.059 57.1926V50.5522H198.286L202.025 57.1926H205.987L201.523 49.3804C201.969 48.9898 204.648 47.4274 204.648 44.3025C204.648 40.3964 201.969 38.834 197.952 38.834C197.059 38.834 195.273 38.834 193.488 39.2246V57.1926H197.059ZM199.291 47.818H197.059V41.5682H197.505C199.737 41.5682 201.077 42.3495 201.077 44.3025C201.077 46.2556 200.184 47.4274 199.291 47.818ZM214.208 57.5832C218.198 57.5832 220.598 55.5744 220.598 52.2263C220.598 49.6036 219.454 47.9854 217.222 47.0089L215.631 46.3114C214.404 45.7812 213.316 45.2232 213.316 43.9119C213.316 42.3216 214.543 41.7077 216.161 41.7077C217.64 41.7077 218.979 42.0147 220.012 42.6285V39.5594C218.951 39.0293 217.305 38.834 215.827 38.834C212.618 38.834 209.744 40.7312 209.744 43.9119C209.744 46.6741 211 48.097 213.26 49.0735L214.627 49.6594C216.106 50.3011 216.887 50.8313 216.887 52.4216C216.887 54.0119 215.38 54.7094 213.762 54.7094C211.697 54.7094 210.191 53.9561 209.298 53.2865V56.5509C210.191 57.1647 211.976 57.5832 214.208 57.5832Z" fill="#123053"/>
<path opacity="0.5" d="M109.702 80.4431L110.149 77.7088H103.285V62.4751H99.714V80.4431H109.702ZM125.513 80.4431L125.959 77.7088H118.817V72.6309H124.173L124.62 69.8966H118.817V65.2093H125.066L125.513 62.4751H115.245V80.4431H125.513ZM132.674 80.4431L133.455 77.3182H138.031L138.924 80.4431H142.467L137.361 62.4751H133.818L134.041 63.34L129.075 80.4431H132.674ZM137.249 74.584H134.153L135.603 68.8364L137.249 74.584ZM150.967 80.8337C155.878 80.8337 157.663 77.3182 157.663 71.8497C157.663 65.6 155.403 62.0845 150.074 62.0845C149.628 62.0845 147.842 62.0845 146.057 62.4751V80.2757C147.368 80.6105 148.735 80.8337 150.967 80.8337ZM151.218 77.932C150.772 77.932 150.074 77.932 149.628 77.8483V64.8187H150.074C153.199 64.8187 154.092 67.1624 154.092 71.8497C154.092 75.8674 153.032 77.932 151.218 77.932Z" fill="#123053"/>
<path d="M169.292 80.4431V65.2093H173.505L173.951 62.4751H161.452V65.2093H165.693V80.4431H169.292ZM189.064 80.4431L189.51 77.7088H182.368V72.6309H187.725L188.171 69.8966H182.368V65.2093H188.617L189.064 62.4751H178.796V80.4431H189.064ZM200.41 80.8337C202.196 80.8337 203.702 80.5268 204.707 79.9409L205.293 76.5928C204.205 77.5414 202.586 77.9599 201.135 77.9599C198.178 77.9599 196.978 75.3652 196.978 71.4591C196.978 67.1624 198.903 64.9582 201.414 64.9582C202.921 64.9582 204.037 65.5163 204.874 66.2417V62.9773C204.093 62.3635 202.614 62.0845 201.135 62.0845C196.169 62.0845 193.268 66.4649 193.268 71.4591C193.268 76.9276 195.5 80.8337 200.41 80.8337ZM212.9 80.4431V72.6309H217.392V80.4431H220.936V62.4751H217.392V69.8966H212.9V62.4751H209.329V80.4431H212.9Z" fill="#123053"/>
</svg>
