<svg width="157" height="40" viewBox="0 0 157 40" fill="none" xmlns="http://www.w3.org/2000/svg">
<g clip-path="url(#clip0_164_44)">
<path d="M-6.10352e-05 30.6283H5.01159V15.6889H17.2727V10.6773H-6.10352e-05V30.6283Z" fill="#123053"/>
<path d="M31.0862 30.6284H36.0979V15.7845H43.5012V10.7729H31.0862V30.6284Z" fill="#123053"/>
<path d="M75.3543 15.7845H80.6363V10.7729H75.3543V3.64H70.3403V10.7729H65.2727V15.7845H70.3403V30.6283H80.8928V25.6167H75.3543V15.7845Z" fill="#123053"/>
<path d="M112.855 3.64465H107.844V8.65631H112.855V3.64465Z" fill="#123053"/>
<path d="M112.855 11.3556H107.844V30.6283H112.855V11.3556Z" fill="#123053"/>
<path d="M149.548 20.7193L155.538 11.3696H149.524L145.154 18.2134H142.338V3.64H137.326V30.6283H142.338V23.2274H145.154L150.359 30.6283H156.373L149.548 20.7193Z" fill="#123053"/>
<path d="M26.1002 10.7729H21.0886V30.6284H26.1002V10.7729Z" fill="#123053"/>
<path d="M118.198 11.3556V30.6283H123.063H133.485V25.7635H123.063V16.2204H133.485V11.3556H123.063H118.198Z" fill="#123053"/>
<path d="M95.4988 10.7729C93.1841 10.7729 91.2564 11.6214 89.9463 12.971V10.7729H84.9347V35.64H89.9463V28.3929C91.2564 29.7915 93.1841 30.6283 95.4988 30.6283C101.559 30.6283 104.135 26.3486 104.135 20.682C104.135 15.0153 101.552 10.7729 95.4988 10.7729ZM99.1235 25.7309H89.9463V15.8684H99.1235V25.7309Z" fill="#123053"/>
<path d="M10.0396 25.4558H15.3566V20.5677H5.01166L10.0396 25.4558Z" fill="#123053"/>
<path d="M46.7133 20.7123H51.7249V15.8102H61.8088V10.7962H46.7133V20.7123Z" fill="#123053"/>
<path d="M56.7972 25.591H46.7133V30.605H61.8088V20.6889H56.7972V25.591Z" fill="#123053"/>
</g>
<defs>
<clipPath id="clip0_164_44">
<rect width="157" height="40" fill="white"/>
</clipPath>
</defs>
</svg>
