<svg width="240" height="120" viewBox="0 0 240 120" fill="none" xmlns="http://www.w3.org/2000/svg">
<path fill-rule="evenodd" clip-rule="evenodd" d="M36.0961 18.2558C35.2312 18.6316 34.3936 19.1844 33.561 19.9292C32.8771 20.5411 31.9241 21.3112 31.4433 21.6408C29.4444 23.0111 28.8072 23.4903 28.5586 23.8101C28.2631 24.19 26.3875 24.7552 24.7997 24.9426C24.2227 25.0108 23.672 25.1203 23.5758 25.1858C23.4797 25.2516 22.7716 25.4472 22.0024 25.6208C21.2331 25.7942 20.1512 26.1221 19.5984 26.349C18.35 26.8616 18.2844 26.5962 19.432 25.674C20.0451 25.1811 20.3591 25.0388 20.6675 25.1141C20.899 25.1706 21.4761 25.0612 21.9788 24.8657C22.4725 24.6736 23.3486 24.3809 23.9255 24.2155C26.256 23.5471 27.0199 22.459 25.0035 22.6798C22.4491 22.9593 20.8952 23.8017 17.4557 26.7717C16.6203 27.4929 15.7271 28.2311 15.4705 28.4122C14.9661 28.768 13.743 30.3628 13.2854 31.2612C13.1296 31.567 12.8604 31.8621 12.6868 31.9172C12.4644 31.9878 12.3037 32.34 12.1431 33.1097C11.5341 36.0254 10.988 36.5555 10.988 34.2308V32.6286L10.585 32.5714C9.73966 32.4517 9.41325 33.1996 10.026 33.8519C10.2993 34.143 10.3984 34.5631 10.4818 35.7864L10.5885 37.3491L9.62287 39.5946C9.09173 40.8296 8.37509 42.297 8.0305 42.8554C7.68591 43.4136 7.40355 43.9768 7.40338 44.1065C7.4025 44.4228 5.84195 47.3799 5.83549 47.0776C5.82377 46.5311 6.79601 43.6986 7.52471 42.1569C8.56758 39.9502 8.56601 39.9548 8.80046 38.7477C9.07582 37.3314 8.8592 36.7069 8.15603 36.8901C7.10581 37.1639 5.88007 40.4953 6.05018 42.6138C6.10962 43.3538 6.0514 44.074 5.88479 44.6609C5.25574 46.8776 4.46952 50.1968 4.35623 51.1143C4.17598 52.5745 3.99346 52.4874 3.56022 50.7345C3.18206 49.2035 2.9588 48.8806 2.42119 49.0869C1.91541 49.281 2.23273 51.3603 3.3513 55.1819C3.86356 56.9318 4.03332 58.5637 3.67212 58.264C3.52403 58.1411 3.37875 57.7907 3.3492 57.4855C3.30252 57.0038 3.2221 56.9231 2.74201 56.8766C1.83953 56.789 1.71942 57.9497 2.60809 58.1728C3.26126 58.3366 4.00028 59.7162 4.51446 61.7313C4.77128 62.7373 5.01028 63.6072 5.04577 63.6648C5.08126 63.7221 5.31554 65.0232 5.56642 66.5561C5.8173 68.089 6.05875 69.5006 6.10315 69.693C6.36103 70.8142 4.84873 67.0574 4.48421 65.6718C3.8744 63.3532 3.07454 62.1801 2.76596 63.152C2.59358 63.6953 2.79743 64.5235 3.54764 66.326C3.91863 67.2173 4.50047 68.7461 4.84052 69.7232C5.18074 70.7003 5.62114 71.8179 5.81958 72.2067C6.29302 73.1349 6.28463 73.152 5.5645 72.7272C4.86587 72.3151 4.42005 71.7628 4.53788 71.4556C4.85048 70.6409 3.80464 69.6956 3.13346 70.1863L2.81719 70.4176L3.10916 70.9822C3.26965 71.2927 3.51494 71.5904 3.65411 71.6437C4.02178 71.7848 3.96461 72.228 3.57893 72.228C3.3985 72.228 3.15287 72.11 3.03311 71.9658C2.52085 71.3486 1.95457 71.9027 2.30703 72.6763C2.51893 73.1415 2.8595 73.2135 3.36196 72.8997C3.80848 72.6209 4.25693 72.8335 4.25693 73.324C4.25693 74.0499 5.18284 74.5007 5.41746 73.8889C5.56362 73.5083 5.93287 73.5672 6.29844 74.0293C6.4738 74.2508 6.7607 74.4865 6.93588 74.5533C7.11123 74.6199 7.45985 75.1498 7.71056 75.7308C8.00882 76.4222 8.24589 76.7563 8.39695 76.6983C8.52388 76.6497 8.62773 76.6794 8.62773 76.7646C8.62773 76.8497 8.54923 76.9455 8.45324 76.9777C8.35709 77.0097 8.6772 77.7046 9.16428 78.522C9.65137 79.3393 10.0954 80.2441 10.1512 80.5325C10.2843 81.2226 11.1235 82.891 11.8756 83.9608C12.2238 84.4565 12.3828 84.8159 12.2536 84.8159C12.0518 84.8159 11.7149 84.5677 9.67374 82.9148C8.38733 81.8731 7.26474 81.4668 6.89706 81.9099C6.68936 82.1602 7.04794 82.5496 8.44642 83.5921C8.76899 83.8325 9.13264 84.1276 9.25485 84.2477C9.37705 84.368 9.54577 84.4662 9.62986 84.4662C9.71396 84.4662 10.1211 84.7152 10.535 85.0196C10.9775 85.345 11.5175 85.5808 11.8464 85.5922C12.5282 85.6159 13.5999 86.4651 16.0577 88.9292C17.0195 89.8936 18.0117 90.8605 18.2627 91.0784C18.74 91.4927 22.1263 93.033 22.5596 93.033C22.6971 93.033 22.7611 93.1117 22.7017 93.2078C22.5611 93.4353 21.2688 93.4353 21.1282 93.2078C20.9525 92.9236 20.4186 93.0077 20.0892 93.3717C19.9206 93.5579 19.8344 93.7939 19.8976 93.8962C20.043 94.1317 21.159 94.1404 21.303 93.9072C21.4683 93.6399 21.9149 93.6993 21.9149 93.9885C21.9149 94.1292 21.7529 94.3313 21.5546 94.4373C21.0973 94.6822 21.1557 95.3932 21.6335 95.3932C21.873 95.3932 22.0263 95.1815 22.1912 94.6233C22.54 93.4419 23.0552 93.2947 24.7285 93.8986C25.2485 94.0862 26.3426 94.4832 27.1599 94.7812C27.9772 95.0789 29.0393 95.3644 29.5201 95.4158C30.0009 95.467 30.9057 95.6074 31.5307 95.7277L32.6671 95.9466L31.9678 96.0672C29.4278 96.5053 28.9084 96.5671 28.639 96.4637C28.2335 96.3081 26.4588 96.6428 25.4931 97.0568C24.7332 97.3825 24.3747 98.0654 24.9308 98.1276C25.667 98.21 26.7821 98.0108 28.4711 97.4958C31.7781 96.4873 34.1885 96.2046 36.7757 96.5216C37.4968 96.6101 38.7789 96.734 39.6245 96.7971C40.8433 96.8882 41.1237 96.9583 40.9769 97.1351C40.7629 97.393 38.6658 98.4528 38.3694 98.4528C37.6283 98.4528 35.7267 99.7946 35.7267 100.317C35.7267 101.063 38.8034 99.6264 40.5758 98.0538L41.8409 96.9312L43.2857 96.82C44.0803 96.7589 45.2223 96.6573 45.8232 96.5943C46.5928 96.5137 46.9159 96.5389 46.9159 96.6797C46.9159 96.7894 46.7979 96.8793 46.6537 96.8793C46.5094 96.8793 46.3914 96.9454 46.3914 97.026C46.3914 97.1068 46.1935 97.2631 45.9517 97.3732C45.5031 97.5776 45.0211 98.3647 45.2218 98.5654C45.3922 98.7357 47.4266 98.1155 48.128 97.6793C49.1424 97.0489 49.1887 97.027 49.1887 97.179C49.1887 97.2589 48.9228 97.4676 48.5976 97.6426C48.2724 97.8176 47.8385 98.1883 47.6329 98.4663C47.1441 99.1275 46.3334 99.5347 45.6381 99.4679C45.1468 99.4208 45.0737 99.4703 45.026 99.8834C44.9699 100.369 45.5155 100.855 45.8706 100.636C45.9646 100.578 46.0417 100.653 46.0417 100.803C46.0417 100.953 45.9321 101.075 45.7982 101.075C45.4547 101.075 45.3094 101.561 45.5297 101.973C45.8596 102.589 46.4694 102.327 46.5339 101.542C46.569 101.114 46.664 100.9 46.7961 100.951C47.3705 101.169 47.7901 100.748 47.7901 99.9527C47.7901 99.3112 47.871 99.1112 48.2354 98.8544C48.4801 98.6817 49.0335 98.258 49.465 97.9133C50.326 97.2251 51.3563 96.9139 53.2973 96.7557C53.9704 96.7008 54.5604 96.5982 54.6085 96.5275C54.7202 96.3636 57.7667 95.4336 57.8663 95.5331C57.9074 95.5742 57.4558 95.9529 56.8628 96.3747C56.2696 96.7964 55.5002 97.3868 55.1528 97.6869C54.5527 98.2047 52.8063 99.0523 51.4481 99.4847C50.7897 99.6943 49.5384 100.723 49.5384 101.055C49.5384 101.839 52.7976 100.358 54.4639 98.8175C55.1056 98.2241 55.8923 97.5601 56.2122 97.3421C56.5322 97.1239 57.2864 96.6085 57.8882 96.1966C58.4901 95.7847 59.0844 95.3023 59.2089 95.1245C59.4505 94.7796 61.4203 94.189 62.913 94.0142C63.3938 93.9577 64.4166 93.715 65.1858 93.475C65.9551 93.2348 66.7623 93.037 66.9798 93.0356C67.1971 93.0342 67.7312 92.8655 68.1665 92.661C69.4972 92.0356 69.4558 92.4583 68.0905 93.4391C67.4912 93.8696 67.1817 93.9974 67.0522 93.8678C66.9226 93.7383 66.5908 93.7874 65.9394 94.0327C65.4287 94.2248 64.539 94.5233 63.962 94.696C62.7034 95.0726 61.6018 95.7321 61.6018 96.109C61.6018 96.7961 66.025 95.6462 67.3808 94.6065C67.6943 94.3661 68.6269 93.5902 69.4531 92.8825C70.2792 92.1746 71.388 91.2509 71.9169 90.83C72.4457 90.409 73.2325 89.5423 73.6652 88.9042C74.0979 88.2659 74.6584 87.5216 74.9107 87.2499C75.163 86.9784 75.4222 86.5359 75.4868 86.2668C75.5513 85.9978 75.6682 85.5021 75.7467 85.1656C76.2877 82.8473 76.8985 82.5831 76.7184 84.7451C76.5843 86.3534 76.6919 86.5452 77.5993 86.3175C78.1386 86.182 78.1828 85.6067 77.6938 85.086C77.4393 84.8152 77.3209 84.3552 77.2323 83.2907C77.1074 81.7945 77.145 81.6175 77.9725 79.8003C78.1998 79.3014 78.3856 78.8382 78.3856 78.7711C78.3856 78.5015 79.8179 75.7247 79.9569 75.7247C80.039 75.7247 80.1621 75.4703 80.2303 75.1594C80.4013 74.3814 81.7496 71.7427 81.8391 72.0111C81.9291 72.2813 80.7016 76.0651 80.4076 76.424C80.2894 76.5682 80.0132 77.1189 79.7936 77.6478C79.5742 78.1767 79.3264 78.6943 79.243 78.7982C79.0152 79.0821 78.8308 81.9488 79.0323 82.0735C80.1693 82.7761 82.2965 77.9926 81.7158 76.0387C81.5491 75.4773 81.6029 75.105 82.12 73.2413C82.9533 70.2397 83.4552 68.1027 83.4584 67.5448C83.4636 66.6292 83.7608 66.5138 83.9694 67.3464C84.4576 69.294 84.5633 69.6113 84.7866 69.7966C85.9127 70.7313 85.8207 68.9122 84.5074 64.2732C83.9063 62.1505 83.6941 60.3791 84.079 60.6985C84.217 60.8131 84.3299 61.0788 84.3299 61.289C84.3299 61.9934 84.7492 62.3666 85.2723 62.1283C85.9658 61.8124 85.7163 60.6891 84.9525 60.6891C84.0932 60.6891 82.8449 56.7428 81.9795 51.2894C81.8228 50.3025 81.6498 49.3782 81.5949 49.2352C81.5401 49.0923 81.5347 48.9754 81.583 48.9754C81.73 48.9754 82.94 52.1178 83.39 53.6686C83.8911 55.3949 84.2504 56.1435 84.578 56.1435C85.2291 56.1435 85.1607 54.9873 84.402 53.1713C84.0605 52.354 83.3834 50.5838 82.8972 49.2376C82.411 47.8914 81.905 46.6347 81.7728 46.445C81.3863 45.8903 81.4917 45.816 82.1307 46.1931C82.9554 46.6797 83.1285 46.929 83.3051 47.8844C83.4921 48.896 83.8156 49.1936 84.4226 48.9121C84.9941 48.647 84.9658 48.2145 84.3334 47.5528C83.8192 47.0148 83.7818 46.7026 84.2315 46.7026C84.3583 46.7026 84.5598 46.8206 84.6796 46.9648C85.2422 47.6428 85.9331 47.0026 85.4443 46.2564C85.1352 45.7847 84.8417 45.7242 84.3507 46.0309C83.9042 46.3097 83.4558 46.0971 83.4558 45.6065C83.4558 44.7857 82.5828 44.4733 82.2143 45.1621L82.0094 45.5448L81.538 45.0172C81.2786 44.727 80.9375 44.4401 80.7798 44.3796C80.6221 44.3191 80.2838 43.8007 80.0282 43.2276C79.7154 42.5267 79.485 42.2157 79.3241 42.2774C79.1927 42.3279 79.085 42.2886 79.085 42.1902C79.085 42.0917 79.1587 41.9851 79.249 41.9529C79.3392 41.9209 78.9858 41.1473 78.4636 40.2338C77.9414 39.3203 77.5136 38.433 77.5129 38.2619C77.511 37.8412 76.5595 35.9688 75.8198 34.9299L75.2175 34.0844L75.6214 34.2063C75.8436 34.2732 76.2614 34.5442 76.5499 34.8082C77.9318 36.0735 79.8277 37.2616 80.4646 37.2616C81.3115 37.2616 80.9892 36.5541 79.7843 35.7681C79.4477 35.5485 78.972 35.185 78.7271 34.9603C77.9278 34.2269 75.9822 33.1861 75.6493 33.3139C75.3352 33.4344 73.3174 31.7162 71.0427 29.3911C69.3304 27.6408 68.7325 27.2497 66.3714 26.3353C65.6773 26.0665 65.1509 25.7794 65.2016 25.6972C65.3559 25.4474 66.4399 25.5306 66.6719 25.8102C67.0394 26.2528 68.0412 25.6547 67.8345 25.1161C67.7195 24.8161 66.7567 24.7447 66.5845 25.0234C66.4535 25.2355 65.7977 25.258 65.7977 25.0505C65.7977 24.9692 65.9551 24.7603 66.1474 24.5863C66.5653 24.2082 66.6041 23.6548 66.2231 23.5087C65.8584 23.3686 65.6703 23.5915 65.5638 24.2895C65.3783 25.5051 64.6669 25.6638 62.7024 24.9281C60.1673 23.9786 59.0153 23.6415 57.6681 23.4546C55.1257 23.1018 54.6164 22.8721 56.2402 22.8104C56.6409 22.795 57.3228 22.6919 57.7555 22.5808C58.1882 22.4698 58.7812 22.4237 59.0732 22.4784C60.3577 22.7186 63.0004 21.8406 63.0004 21.1736C63.0004 20.6115 61.535 20.7149 59.3417 21.4315C56.5061 22.3579 53.5644 22.7443 51.4692 22.4653C50.5515 22.3431 49.3887 22.2392 48.885 22.2345L47.9696 22.2261L47.7049 21.5929C47.4046 20.8738 47.3603 20.4077 47.6072 20.5603C47.9186 20.7526 48.6642 20.4495 48.6642 20.1306C48.6642 19.5952 48.184 19.3354 47.6012 19.5554C47.028 19.7718 46.8864 19.4015 47.2932 18.7503C47.5649 18.3151 47.3635 17.8553 46.9012 17.8553H46.526L46.6474 18.827L46.7687 19.7987L46.4047 19.5713C46.1334 19.4019 45.9627 19.393 45.7353 19.5365C45.3211 19.7979 45.3508 20.1659 45.8045 20.3921C47.4768 21.2257 47.1292 22.0235 45.0424 22.1415C44.2939 22.1836 42.9829 22.2686 42.1288 22.33C41.0055 22.4107 40.6095 22.3876 40.6968 22.2466C40.7632 22.139 40.9129 22.0513 41.0295 22.0513C41.4038 22.0513 42.5451 20.9885 42.5451 20.6399C42.5451 20.233 42.5023 20.2307 41.3388 20.5762C40.4865 20.8294 39.7733 21.1691 38.8187 21.7766C38.5689 21.9357 37.6766 22.0514 36.2424 22.1109C35.0357 22.1607 33.8556 22.2782 33.6199 22.3719C32.6884 22.742 30.1093 23.4714 29.9362 23.4137C29.8352 23.3802 30.5067 22.8092 31.4284 22.1448C32.3501 21.4806 33.1042 20.8731 33.1042 20.7949C33.1042 20.7166 33.1832 20.6526 33.2799 20.6526C33.3766 20.6526 33.8677 20.4538 34.3714 20.2108C34.8749 19.9678 35.5793 19.6903 35.9366 19.5942C36.7124 19.3853 38.0621 18.3966 38.1427 17.9782C38.2301 17.5243 37.5755 17.6132 36.0961 18.2558ZM61.6018 21.4189C61.6018 21.4558 61.4075 21.5231 61.1699 21.5686C60.9325 21.614 60.7797 21.5838 60.8306 21.5016C60.9201 21.3567 61.6018 21.2838 61.6018 21.4189ZM40.5213 23.0251C41.1937 23.1765 41.6842 23.4053 41.9199 23.6774C42.7514 24.6374 44.9753 25.6509 45.2555 25.1975C45.4412 24.8968 44.8601 24.3627 43.4193 23.5099L42.108 22.7338L46.0417 22.828C48.2053 22.8798 50.1328 22.9233 50.3251 22.9247C51.0741 22.93 52.1857 23.3758 52.7896 23.9131C54.0952 25.0745 56.5227 25.8734 56.6633 25.1879C56.7 25.0091 56.3261 24.6853 55.5766 24.247C54.2477 23.4699 54.2653 23.4907 55.0019 23.5777C59.8043 24.1452 63.5809 26.0254 64.9213 28.5159C65.664 29.8958 66.4077 30.618 67.0859 30.618C67.7732 30.618 67.1611 29.3197 65.6123 27.4924C64.9245 26.681 66.4679 27.2831 68.1061 28.4653C68.6155 28.8328 69.1596 29.2119 69.3155 29.3077C71.05 30.3729 72.2987 31.7408 72.5206 32.8193C72.6651 33.5222 72.2942 33.8856 71.737 33.5874C71.2244 33.3131 70.4764 33.5127 70.5567 33.9024C70.6075 34.15 70.792 34.1942 71.6172 34.1568C73.1279 34.0883 72.9358 34.8673 71.305 35.4222C70.7096 35.6249 70.5249 36.205 70.9446 36.5534C71.3268 36.8705 71.742 36.6504 71.742 36.1307C71.742 35.5799 71.8246 35.5794 72.4732 36.1252C73.1 36.6527 73.3388 36.6698 73.7486 36.2172L74.061 35.8719L73.7717 35.4305C73.6126 35.1876 73.4054 34.9888 73.3115 34.9888C73.2176 34.9888 73.1407 34.6295 73.1407 34.1904V33.3917L73.5341 33.5127C73.7505 33.5792 73.9344 33.6435 73.9428 33.6556C75.1985 35.4513 76.1128 37.0433 76.1128 37.4339C76.1128 37.6162 76.192 37.8145 76.2889 37.8743C76.6805 38.1164 77.112 39.2726 77.6944 41.6403C77.78 41.9886 77.7819 43.0703 77.6989 44.1082C77.5358 46.1471 77.6055 46.8575 77.9834 47.0024C78.405 47.1641 78.5451 46.8389 78.6294 45.503C78.6738 44.7983 78.7475 44.1843 78.7934 44.1387C79.0149 43.917 79.9645 45.7639 80.4712 47.4019C80.7835 48.4115 81.1167 49.4736 81.2114 49.7621C81.4466 50.4768 81.7772 53.5595 81.7489 54.7723C81.7178 56.1019 80.9235 57.9014 80.4868 57.6315C80.2791 57.5032 79.586 58.2535 79.6434 58.5446C79.7867 59.2721 80.8228 59.1803 80.8399 58.4387C80.8434 58.282 81.1177 57.8394 81.4492 57.4547L82.0519 56.7554L82.0531 57.9792C82.0547 59.7069 81.7426 62.2206 81.4473 62.8588C81.3097 63.1558 81.0043 63.9104 80.7684 64.5354C80.5326 65.1604 80.0523 66.3621 79.7011 67.2058C79.0598 68.7464 78.953 69.693 79.4205 69.693C80.1249 69.693 82.1994 63.9476 82.2494 61.8584L82.2671 61.1262L82.4386 61.8255C83.1904 64.8893 81.941 71.0311 79.8782 74.4134C79.6436 74.798 79.178 75.6241 78.8435 76.2491C77.9517 77.9156 77.5575 78.3992 76.2002 79.4916C74.3453 80.9846 73.4938 81.9576 73.4916 82.5868C73.4896 83.0665 73.8453 82.9508 74.9729 82.1041C76.494 80.9623 76.5964 81.0687 75.8266 82.9917C75.0392 84.9586 73.143 85.0028 72.5291 83.0685C72.3639 82.5482 71.6307 82.5994 71.5275 83.1384C71.4158 83.7232 71.6812 84.1166 72.1879 84.1166C72.4233 84.1166 72.6162 84.2005 72.6162 84.3031C72.6162 84.4171 72.4632 84.4412 72.2228 84.3648C69.7016 83.5638 68.7022 83.5071 68.6271 84.1613C68.5543 84.7932 69.0105 84.9724 69.6935 84.5802L70.2088 84.2846L71.2376 84.5732C72.4088 84.9019 72.6424 85.2598 71.5672 85.0782L70.8679 84.96V85.3853C70.8679 85.9516 71.4347 86.455 71.9043 86.306C72.1036 86.2427 72.2665 86.0417 72.2665 85.8593C72.2665 85.4112 72.6697 85.2294 73.9996 85.0778L75.1208 84.9498L74.4696 85.7444C73.5 86.9277 69.7318 89.1867 68.7276 89.1867C68.1847 89.1867 67.6188 89.8147 67.8791 90.1282C68.3709 90.7209 69.8322 90.3189 72.0728 88.9746C73.4292 88.1608 73.6145 88.2405 72.6443 89.2203C72.2443 89.6243 71.9169 90.0058 71.9169 90.0679C71.9169 90.1299 71.5432 90.3687 71.0864 90.5985C70.6296 90.8282 69.8626 91.2632 69.3818 91.5649C68.901 91.8667 68.0749 92.2375 67.5461 92.3889C65.1647 93.0708 64.3566 93.2708 62.4109 93.6598C61.2693 93.8881 59.6958 94.3086 58.9143 94.5943C54.822 96.0898 53.1487 96.1763 51.683 94.968C51.2112 94.5792 50.8508 94.4317 50.3727 94.4317H49.7132V94.9357C49.7132 95.2572 49.8241 95.48 50.0192 95.5504C50.1874 95.6113 50.5047 95.7667 50.7243 95.8957L51.1232 96.1305L50.1166 96.2489C48.5922 96.4281 46.4292 95.931 45.898 95.2794C45.6746 95.0055 45.4228 94.7813 45.3386 94.7813C45.2541 94.7813 44.8354 94.5453 44.4079 94.2568C43.5911 93.7056 42.5451 93.5432 42.5451 93.9675C42.5451 94.2962 42.9668 94.6395 44.3808 95.4619L45.6047 96.1739L43.157 96.1976C41.8108 96.2108 40.6634 96.2163 40.6073 96.2104C40.5511 96.2043 39.9218 96.1594 39.2086 96.1104C36.1651 95.9018 35.8651 95.8403 35.2485 95.2978C34.66 94.7798 33.6586 94.0843 33.4899 94.0761C33.422 94.0727 33.0517 93.9182 32.6671 93.7323C31.7999 93.3134 31.2527 93.2932 31.1064 93.6746C30.9831 93.9956 31.0212 94.0297 32.3912 94.8238C33.6757 95.5682 33.3774 95.5899 30.5431 94.9586C26.2961 94.0124 24.0049 92.6695 22.7914 90.4147C21.8293 88.6274 20.3415 87.6263 20.3415 88.7664C20.3415 89.0559 21.9347 91.3433 22.4368 91.7746C22.6624 91.9685 22.637 91.9845 22.2646 91.8835C21.4648 91.6665 18.1797 89.6887 17.6316 89.094C17.5354 88.9898 17.1588 88.6863 16.7945 88.4197C15.1346 87.2046 14.6342 84.8234 16.1598 85.3993C16.7401 85.6184 17.2398 85.4359 17.1574 85.035C17.1048 84.7792 16.9289 84.736 16.0955 84.7738C14.726 84.8358 14.9379 83.9869 16.3911 83.5881C16.8912 83.451 17.1471 82.9592 16.9123 82.5868C16.5581 82.0252 16.1768 82.2321 15.8897 83.1415L15.7836 83.4776L15.5185 83.0991C15.1182 82.5275 14.637 82.3212 14.2223 82.5431C13.7363 82.8032 13.7854 83.4533 14.3267 83.9237C14.718 84.264 14.7641 84.4073 14.6608 84.9607C14.5273 85.6757 14.3888 85.8882 14.2713 85.5589C14.2283 85.4388 14.1014 85.338 13.9893 85.3352C13.7491 85.3289 12.2849 83.113 11.8556 82.106C11.6917 81.7214 11.4868 81.2887 11.4004 81.1444C11.011 80.4946 10.6504 79.547 10.2694 78.1723L9.85749 76.6862L10.0363 74.7493C10.2332 72.6188 10.0925 71.8067 9.54507 71.9112C9.29751 71.9586 9.21866 72.2275 9.12879 73.3314C9.06795 74.0804 8.97547 74.7358 8.92337 74.7879C8.42055 75.2907 6.47187 69.7826 6.24844 67.2269C5.88968 63.1238 6.12693 61.6033 7.15564 61.4141C7.94868 61.2682 8.37072 60.4295 7.86319 60.0081C7.54744 59.7462 7.09637 59.9312 6.95354 60.3812C6.80912 60.8363 5.96067 62.0724 5.78671 62.0811C5.37236 62.1021 5.92832 56.532 6.41855 55.7506C6.55439 55.534 6.76035 55.042 6.87591 54.6574C6.99165 54.2728 7.30757 53.486 7.57786 52.9091C8.57091 50.79 8.85885 49.3698 8.33069 49.196C7.78399 49.0161 5.99179 53.6824 5.56152 56.4057L5.34054 57.8044L5.28756 56.2309C5.16658 52.6418 5.34666 50.2592 5.82902 49.0628C6.72538 46.8398 7.324 45.523 7.86319 44.5885C8.21879 43.9724 8.74906 42.9961 9.04155 42.4192C9.38247 41.7468 10.0063 40.9623 10.7794 40.2338C13.8781 37.3136 14.2223 36.9366 14.2223 36.4649C14.2223 35.8925 14.0486 35.9443 12.6288 36.9403C11.3964 37.8047 11.3048 37.7613 11.702 36.5011C12.4195 34.2253 14.3187 33.7874 15.15 35.706C15.4866 36.4831 15.8888 36.5836 16.1722 35.9616C16.4406 35.3726 16.263 35.0322 15.5855 34.8369C14.5991 34.5524 15.6338 34.632 16.7574 34.9269C17.3344 35.0785 18.1015 35.2413 18.462 35.2888L19.1176 35.3752V34.8528C19.1176 34.2075 18.6136 34.0199 17.9277 34.4101C17.5018 34.6525 17.3602 34.6498 16.4492 34.3834C15.3845 34.0718 15.2292 33.6757 16.2465 33.8666C16.7957 33.9696 16.8448 33.9435 16.8448 33.5493C16.8448 32.5681 15.6224 32.2468 15.4808 33.1907C15.3976 33.7456 12.8237 34.3677 12.8237 33.833C12.8237 33.0181 17.7977 29.7619 19.0785 29.7383C19.8593 29.7239 20.2294 29.0091 19.6238 28.6851C18.9372 28.3176 17.7611 28.7152 15.5747 30.0538C15.0203 30.3934 14.5241 30.6283 14.4718 30.5762C14.282 30.3864 15.9965 28.7363 16.8877 28.2513C17.3912 27.9774 18.0676 27.5735 18.391 27.3541C19.2213 26.7906 22.8319 25.7142 25.3598 25.2764C26.2057 25.1299 27.7905 24.6975 28.8818 24.3153C29.9731 23.9333 31.4679 23.5038 32.2036 23.3609C32.9393 23.2183 33.9404 23.0132 34.4282 22.9055C35.5599 22.6555 37.1253 23.4261 37.1253 24.2332C37.1253 24.5993 37.4231 24.7138 37.821 24.5008C38.4299 24.175 38.25 23.6868 37.3577 23.2436L36.5409 22.838L37.314 22.7447C38.2371 22.6329 39.1238 22.7106 40.5213 23.0251ZM43.7689 24.3241C44.1055 24.5084 44.3022 24.6591 44.206 24.6591C44.1099 24.6591 43.7558 24.5084 43.4193 24.3241C43.0827 24.1398 42.886 23.9891 42.9822 23.9891C43.0783 23.9891 43.4324 24.1398 43.7689 24.3241ZM66.4971 29.5897C66.4971 29.6858 66.4184 29.7159 66.3222 29.6565C66.2261 29.597 66.1474 29.4697 66.1474 29.3736C66.1474 29.2774 66.2261 29.2473 66.3222 29.3068C66.4184 29.3662 66.4971 29.4935 66.4971 29.5897ZM18.768 34.814C18.768 34.9102 18.6893 34.9888 18.5931 34.9888C18.497 34.9888 18.4183 34.9102 18.4183 34.814C18.4183 34.7178 18.497 34.6392 18.5931 34.6392C18.6893 34.6392 18.768 34.7178 18.768 34.814ZM6.82398 40.4415C6.76821 40.5808 6.72678 40.5394 6.71839 40.3357C6.71087 40.1514 6.75213 40.0483 6.81017 40.1063C6.86822 40.1644 6.87451 40.3153 6.82398 40.4415ZM78.9769 41.5541C79.0365 41.7097 79.0072 41.7798 78.9082 41.7186C78.8131 41.6599 78.7353 41.5379 78.7353 41.4473C78.7353 41.1959 78.8607 41.2513 78.9769 41.5541ZM79.7693 43.2933C79.7747 43.3895 79.7027 43.3502 79.6095 43.2059C79.5163 43.0617 79.4442 42.8257 79.4497 42.6814C79.4598 42.4045 79.7511 42.9622 79.7693 43.2933ZM8.32806 76.0715C8.37877 76.2654 8.34887 76.424 8.26163 76.424C8.17456 76.424 8.10323 76.3518 8.10323 76.2635C8.10323 76.1752 8.05061 75.9656 7.98609 75.7977C7.91249 75.6058 7.93714 75.5346 8.05235 75.6058C8.15323 75.6682 8.27736 75.8778 8.32806 76.0715ZM8.91917 77.5896C8.85501 77.6536 8.80256 77.6011 8.80256 77.473C8.80256 77.3448 8.85501 77.2924 8.91917 77.3564C8.98316 77.4205 8.98316 77.5254 8.91917 77.5896ZM81.0401 78.7347C80.9148 78.8601 80.8333 78.8704 80.8333 78.761C80.8333 78.6615 80.8857 78.5277 80.9499 78.4637C81.0139 78.3996 81.1071 78.3879 81.1567 78.4375C81.2064 78.4872 81.1539 78.6209 81.0401 78.7347ZM69.2944 84.1166C69.2944 84.2127 69.2157 84.2914 69.1196 84.2914C69.0234 84.2914 68.9447 84.2127 68.9447 84.1166C68.9447 84.0204 69.0234 83.9418 69.1196 83.9418C69.2157 83.9418 69.2944 84.0204 69.2944 84.1166ZM21.5653 89.449C21.6908 89.6002 21.7078 89.7112 21.6053 89.7112C21.5078 89.7112 21.3826 89.5932 21.3272 89.449C21.2719 89.3047 21.2539 89.1867 21.2871 89.1867C21.3203 89.1867 21.4455 89.3047 21.5653 89.449ZM44.2934 94.6065C44.63 94.7908 44.8559 94.9448 44.7955 94.9488C44.6146 94.9609 43.4193 94.4338 43.4193 94.342C43.4193 94.1893 43.6705 94.2654 44.2934 94.6065ZM52.3357 96.0052C52.4799 96.0983 52.5193 96.1746 52.4231 96.1746C52.327 96.1746 52.1303 96.0983 51.986 96.0052C51.8418 95.912 51.8025 95.8357 51.8986 95.8357C51.9948 95.8357 52.1915 95.912 52.3357 96.0052ZM26.9851 97.4038C26.9851 97.5 26.7686 97.5708 26.5043 97.5612L26.0235 97.5438L26.4606 97.4038C26.701 97.3269 26.9174 97.2561 26.9414 97.2465C26.9653 97.2368 26.9851 97.3076 26.9851 97.4038Z" fill="#123053"/>
<path d="M120.185 57.2956H119.596C119.545 57.0907 119.451 56.8488 119.314 56.57C119.184 56.2854 119.036 56.0179 118.871 55.7675C118.7 55.5057 118.512 55.2781 118.307 55.0846C118.108 54.8854 117.914 54.7716 117.727 54.7431C117.55 54.7203 117.328 54.7033 117.061 54.6919C116.793 54.6805 116.546 54.6748 116.318 54.6748H115.823V64.364C115.823 64.5518 115.863 64.7254 115.942 64.8847C116.022 65.0384 116.162 65.1579 116.361 65.2433C116.463 65.2831 116.677 65.3372 117.001 65.4055C117.331 65.4738 117.587 65.5107 117.769 65.5164V66.1225H112.05V65.5164C112.209 65.5051 112.451 65.4823 112.775 65.4481C113.105 65.414 113.333 65.3713 113.458 65.3201C113.646 65.2461 113.783 65.1408 113.868 65.0042C113.959 64.862 114.005 64.6741 114.005 64.4408V54.6748H113.509C113.333 54.6748 113.114 54.6805 112.852 54.6919C112.59 54.6976 112.34 54.7147 112.101 54.7431C111.913 54.7659 111.717 54.8797 111.512 55.0846C111.313 55.2838 111.128 55.5114 110.957 55.7675C110.786 56.0236 110.635 56.2968 110.505 56.587C110.374 56.8716 110.283 57.1078 110.231 57.2956H109.634V54.009H120.185V57.2956Z" fill="#123053"/>
<path d="M128.423 64.142C128.07 64.8136 127.598 65.3486 127.006 65.7469C126.414 66.1453 125.734 66.3445 124.966 66.3445C124.288 66.3445 123.694 66.225 123.182 65.986C122.675 65.7469 122.257 65.4225 121.927 65.0128C121.597 64.603 121.349 64.125 121.184 63.5786C121.025 63.0323 120.945 62.4546 120.945 61.8457C120.945 61.2993 121.03 60.7643 121.201 60.2408C121.377 59.7115 121.634 59.2363 121.969 58.8151C122.294 58.411 122.695 58.0867 123.173 57.8419C123.657 57.5915 124.197 57.4663 124.795 57.4663C125.41 57.4663 125.936 57.5631 126.374 57.7566C126.812 57.9501 127.168 58.2147 127.441 58.5505C127.703 58.8692 127.897 59.2448 128.022 59.6773C128.153 60.1099 128.218 60.5794 128.218 61.0859V61.6493H122.644C122.644 62.2013 122.695 62.7022 122.797 63.1518C122.906 63.6014 123.073 63.9969 123.301 64.3384C123.523 64.6685 123.813 64.9303 124.172 65.1238C124.53 65.3116 124.957 65.4055 125.452 65.4055C125.959 65.4055 126.394 65.2888 126.758 65.0555C127.128 64.8164 127.484 64.3896 127.826 63.7749L128.423 64.142ZM126.536 60.9322C126.536 60.6135 126.508 60.2721 126.451 59.9078C126.4 59.5436 126.315 59.2391 126.195 58.9944C126.064 58.7326 125.885 58.5192 125.657 58.3541C125.43 58.1891 125.136 58.1066 124.778 58.1066C124.18 58.1066 123.682 58.357 123.284 58.8578C122.891 59.3529 122.678 60.0444 122.644 60.9322H126.536Z" fill="#123053"/>
<path d="M133.289 66.3445C132.071 66.3445 131.118 65.9404 130.429 65.1323C129.741 64.3241 129.396 63.24 129.396 61.8798C129.396 61.2879 129.487 60.7359 129.669 60.2237C129.857 59.7058 130.128 59.2363 130.48 58.8151C130.816 58.411 131.237 58.0867 131.744 57.8419C132.25 57.5915 132.802 57.4663 133.4 57.4663C134.225 57.4663 134.897 57.6655 135.415 58.0639C135.933 58.4566 136.192 58.9944 136.192 59.6773C136.192 59.9619 136.123 60.2151 135.987 60.4371C135.85 60.6534 135.625 60.7615 135.312 60.7615C134.976 60.7615 134.715 60.6761 134.527 60.5054C134.345 60.3347 134.254 60.144 134.254 59.9334C134.254 59.6773 134.288 59.4155 134.356 59.1481C134.424 58.8749 134.464 58.6757 134.476 58.5505C134.373 58.3741 134.22 58.2574 134.015 58.2005C133.815 58.1379 133.599 58.1066 133.366 58.1066C133.093 58.1066 132.831 58.1663 132.58 58.2858C132.336 58.3997 132.097 58.6131 131.863 58.9261C131.653 59.2107 131.482 59.5948 131.351 60.0786C131.22 60.5623 131.155 61.14 131.155 61.8115C131.155 62.8701 131.388 63.7351 131.855 64.4067C132.327 65.0725 132.945 65.4055 133.707 65.4055C134.259 65.4055 134.72 65.2717 135.09 65.0042C135.466 64.7368 135.813 64.3355 136.132 63.8006L136.678 64.1591C136.302 64.8307 135.807 65.3628 135.193 65.7555C134.578 66.1482 133.944 66.3445 133.289 66.3445Z" fill="#123053"/>
<path d="M146.478 66.1225H142.346V65.5591C142.477 65.5477 142.622 65.5364 142.782 65.525C142.941 65.5136 143.072 65.4908 143.175 65.4567C143.334 65.4055 143.451 65.3172 143.525 65.192C143.604 65.0611 143.644 64.8933 143.644 64.6884V60.3603C143.644 59.7627 143.502 59.3017 143.217 58.9773C142.938 58.6529 142.597 58.4907 142.193 58.4907C141.897 58.4907 141.621 58.5391 141.365 58.6358C141.114 58.7269 140.89 58.8407 140.69 58.9773C140.497 59.1196 140.349 59.2619 140.246 59.4042C140.144 59.5464 140.064 59.6659 140.007 59.7627V64.603C140.007 64.7965 140.044 64.9559 140.118 65.0811C140.198 65.2063 140.318 65.303 140.477 65.3713C140.602 65.4282 140.73 65.4709 140.861 65.4994C140.998 65.5278 141.146 65.5477 141.305 65.5591V66.1225H137.173V65.5591C137.304 65.5477 137.441 65.5364 137.583 65.525C137.725 65.5079 137.845 65.4851 137.942 65.4567C138.101 65.4055 138.22 65.3172 138.3 65.192C138.38 65.0611 138.42 64.8933 138.42 64.6884V54.8882C138.42 54.6947 138.374 54.5012 138.283 54.3077C138.198 54.1142 138.084 53.9691 137.942 53.8724C137.839 53.7984 137.657 53.7472 137.395 53.7187C137.139 53.6846 136.931 53.6618 136.772 53.6504V53.1041L139.888 52.9077L140.007 53.0358V58.909H140.042C140.229 58.7212 140.4 58.5562 140.554 58.4139C140.707 58.2659 140.909 58.1123 141.16 57.9529C141.376 57.8163 141.629 57.7025 141.92 57.6114C142.216 57.5204 142.546 57.4749 142.91 57.4749C143.661 57.4749 144.239 57.7139 144.643 58.1919C145.047 58.6643 145.249 59.3472 145.249 60.2408V64.6201C145.249 64.8193 145.283 64.9815 145.351 65.1067C145.425 65.2262 145.545 65.3201 145.71 65.3884C145.841 65.4396 145.957 65.4794 146.06 65.5079C146.168 65.5307 146.308 65.5477 146.478 65.5591V66.1225Z" fill="#123053"/>
<path d="M161.221 56.9968C161.221 57.6285 161.096 58.1891 160.846 58.6785C160.601 59.1623 160.259 59.5635 159.821 59.8822C159.389 60.2009 158.913 60.4342 158.395 60.5822C157.878 60.7302 157.328 60.8042 156.748 60.8042H155.391V64.475C155.391 64.6741 155.422 64.8506 155.484 65.0042C155.553 65.1522 155.689 65.266 155.894 65.3457C155.997 65.3855 156.176 65.4225 156.432 65.4567C156.694 65.4908 156.933 65.5107 157.149 65.5164V66.1225H151.95V65.5164C152.087 65.5051 152.283 65.4851 152.539 65.4567C152.801 65.4282 152.983 65.3912 153.086 65.3457C153.256 65.2717 153.379 65.1636 153.453 65.0213C153.532 64.879 153.572 64.6969 153.572 64.475V55.7334C153.572 55.5342 153.544 55.3549 153.487 55.1956C153.43 55.0362 153.296 54.9167 153.086 54.837C152.869 54.763 152.653 54.7118 152.437 54.6834C152.226 54.6492 152.044 54.6264 151.891 54.6151V54.009H157.422C158.549 54.009 159.463 54.2821 160.163 54.8285C160.868 55.3691 161.221 56.0919 161.221 56.9968ZM158.626 59.0627C158.819 58.7895 158.948 58.5078 159.01 58.2175C159.073 57.9216 159.104 57.657 159.104 57.4236C159.104 57.0992 159.064 56.7692 158.985 56.4334C158.911 56.0976 158.78 55.8045 158.592 55.5541C158.393 55.2866 158.131 55.0789 157.806 54.9309C157.482 54.7829 157.078 54.709 156.594 54.709H155.391V60.0615H156.261C156.876 60.0615 157.374 59.9676 157.755 59.7798C158.142 59.5863 158.432 59.3472 158.626 59.0627Z" fill="#123053"/>
<path d="M171.542 66.1225H167.41V65.5591C167.541 65.5477 167.686 65.5364 167.846 65.525C168.005 65.5136 168.136 65.4908 168.238 65.4567C168.398 65.4055 168.514 65.3172 168.588 65.192C168.668 65.0611 168.708 64.8933 168.708 64.6884V60.3603C168.708 59.7627 168.566 59.3017 168.281 58.9773C168.002 58.6529 167.661 58.4907 167.257 58.4907C166.961 58.4907 166.685 58.5391 166.429 58.6358C166.178 58.7269 165.953 58.8407 165.754 58.9773C165.561 59.1196 165.413 59.2619 165.31 59.4042C165.208 59.5464 165.128 59.6659 165.071 59.7627V64.603C165.071 64.7965 165.108 64.9559 165.182 65.0811C165.262 65.2063 165.381 65.303 165.541 65.3713C165.666 65.4282 165.794 65.4709 165.925 65.4994C166.061 65.5278 166.209 65.5477 166.369 65.5591V66.1225H162.237V65.5591C162.368 65.5477 162.504 65.5364 162.647 65.525C162.789 65.5079 162.909 65.4851 163.005 65.4567C163.165 65.4055 163.284 65.3172 163.364 65.192C163.444 65.0611 163.483 64.8933 163.483 64.6884V54.8882C163.483 54.6947 163.438 54.5012 163.347 54.3077C163.261 54.1142 163.148 53.9691 163.005 53.8724C162.903 53.7984 162.721 53.7472 162.459 53.7187C162.203 53.6846 161.995 53.6618 161.836 53.6504V53.1041L164.952 52.9077L165.071 53.0358V58.909H165.105C165.293 58.7212 165.464 58.5562 165.618 58.4139C165.771 58.2659 165.973 58.1123 166.224 57.9529C166.44 57.8163 166.693 57.7025 166.983 57.6114C167.279 57.5204 167.609 57.4749 167.974 57.4749C168.725 57.4749 169.303 57.7139 169.707 58.1919C170.111 58.6643 170.313 59.3472 170.313 60.2408V64.6201C170.313 64.8193 170.347 64.9815 170.415 65.1067C170.489 65.2262 170.609 65.3201 170.774 65.3884C170.905 65.4396 171.021 65.4794 171.124 65.5079C171.232 65.5307 171.371 65.5477 171.542 65.5591V66.1225Z" fill="#123053"/>
<path d="M176.664 66.1225H172.592V65.5591C172.723 65.5477 172.857 65.5364 172.993 65.525C173.136 65.5136 173.258 65.4908 173.36 65.4567C173.52 65.4055 173.636 65.3172 173.71 65.192C173.79 65.0611 173.83 64.8933 173.83 64.6884V59.4895C173.83 59.3074 173.787 59.1424 173.702 58.9944C173.622 58.8407 173.508 58.7127 173.36 58.6102C173.252 58.5419 173.096 58.485 172.891 58.4395C172.686 58.3883 172.498 58.357 172.327 58.3456V57.7907L175.298 57.6029L175.418 57.7224V64.5859C175.418 64.7851 175.455 64.9502 175.529 65.0811C175.608 65.212 175.731 65.3087 175.896 65.3713C176.021 65.4225 176.143 65.4652 176.263 65.4994C176.382 65.5278 176.516 65.5477 176.664 65.5591V66.1225ZM175.588 54.2821C175.588 54.6065 175.48 54.8911 175.264 55.1358C175.053 55.3748 174.792 55.4943 174.479 55.4943C174.188 55.4943 173.935 55.3805 173.719 55.1529C173.508 54.9195 173.403 54.6549 173.403 54.359C173.403 54.0459 173.508 53.7728 173.719 53.5394C173.935 53.3061 174.188 53.1894 174.479 53.1894C174.803 53.1894 175.068 53.3004 175.273 53.5224C175.483 53.7386 175.588 53.9919 175.588 54.2821Z" fill="#123053"/>
<path d="M181.641 66.1225H177.535V65.5591C177.666 65.5477 177.805 65.5364 177.953 65.525C178.101 65.5079 178.223 65.4851 178.32 65.4567C178.48 65.4055 178.599 65.3172 178.679 65.192C178.758 65.0611 178.798 64.8933 178.798 64.6884V54.9395C178.798 54.7346 178.753 54.5439 178.662 54.3675C178.576 54.1854 178.462 54.0431 178.32 53.9407C178.218 53.8724 178.03 53.8098 177.757 53.7528C177.484 53.6959 177.264 53.6618 177.099 53.6504V53.1041L180.267 52.9077L180.386 53.0358V64.5859C180.386 64.7851 180.423 64.9502 180.497 65.0811C180.571 65.2063 180.691 65.303 180.856 65.3713C180.981 65.4282 181.103 65.4709 181.223 65.4994C181.348 65.5278 181.487 65.5477 181.641 65.5591V66.1225Z" fill="#123053"/>
<path d="M190.903 61.8286C190.903 62.4205 190.809 63.0038 190.622 63.5786C190.434 64.1477 190.166 64.6315 189.819 65.0298C189.426 65.4851 188.971 65.8238 188.453 66.0457C187.935 66.2677 187.355 66.3786 186.712 66.3786C186.177 66.3786 185.667 66.2791 185.184 66.0799C184.7 65.875 184.27 65.579 183.895 65.192C183.525 64.8107 183.229 64.3469 183.007 63.8006C182.791 63.2485 182.682 62.631 182.682 61.9481C182.682 60.6334 183.064 59.5578 183.826 58.7212C184.595 57.8846 185.599 57.4663 186.84 57.4663C188.018 57.4663 188.988 57.8647 189.751 58.6615C190.519 59.4525 190.903 60.5082 190.903 61.8286ZM189.136 61.8457C189.136 61.4188 189.094 60.9692 189.008 60.4969C188.923 60.0188 188.795 59.6147 188.624 59.2846C188.442 58.9318 188.203 58.6501 187.907 58.4395C187.611 58.2232 187.25 58.1151 186.823 58.1151C186.385 58.1151 186.009 58.2232 185.696 58.4395C185.389 58.6558 185.138 58.9517 184.945 59.3273C184.763 59.6745 184.634 60.07 184.561 60.5139C184.487 60.9578 184.45 61.3875 184.45 61.803C184.45 62.3493 184.492 62.8558 184.578 63.3225C184.669 63.7835 184.811 64.1961 185.004 64.5603C185.198 64.9246 185.44 65.212 185.73 65.4225C186.026 65.6274 186.39 65.7299 186.823 65.7299C187.534 65.7299 188.098 65.3855 188.513 64.6969C188.928 64.0083 189.136 63.0579 189.136 61.8457Z" fill="#123053"/>
<path d="M206.543 66.1225H202.436V65.5591C202.567 65.5477 202.698 65.5364 202.829 65.525C202.966 65.5136 203.085 65.4908 203.188 65.4567C203.347 65.4055 203.464 65.3172 203.538 65.192C203.617 65.0611 203.657 64.8933 203.657 64.6884V60.3432C203.657 59.7513 203.521 59.296 203.247 58.9773C202.98 58.6529 202.644 58.4907 202.24 58.4907C201.961 58.4907 201.699 58.5334 201.455 58.6188C201.21 58.7041 200.985 58.8237 200.78 58.9773C200.615 59.1025 200.476 59.2391 200.362 59.3871C200.254 59.5294 200.171 59.6489 200.114 59.7456V64.603C200.114 64.8022 200.149 64.9672 200.217 65.0981C200.285 65.2233 200.402 65.3201 200.567 65.3884C200.698 65.4396 200.814 65.4794 200.917 65.5079C201.025 65.5307 201.164 65.5477 201.335 65.5591V66.1225H197.314V65.5591C197.445 65.5477 197.57 65.5364 197.69 65.525C197.815 65.5136 197.929 65.4908 198.031 65.4567C198.191 65.4055 198.307 65.3172 198.381 65.192C198.461 65.0611 198.501 64.8933 198.501 64.6884V60.3432C198.501 59.7513 198.364 59.296 198.091 58.9773C197.824 58.6529 197.488 58.4907 197.084 58.4907C196.805 58.4907 196.543 58.5363 196.298 58.6273C196.054 58.7127 195.829 58.8322 195.624 58.9859C195.459 59.1111 195.32 59.2533 195.206 59.4127C195.092 59.5664 195.007 59.683 194.95 59.7627V64.5859C194.95 64.7794 194.99 64.9416 195.069 65.0725C195.149 65.2034 195.268 65.303 195.428 65.3713C195.547 65.4282 195.67 65.4709 195.795 65.4994C195.92 65.5278 196.059 65.5477 196.213 65.5591V66.1225H192.124V65.5591C192.255 65.5477 192.389 65.5364 192.525 65.525C192.668 65.5136 192.79 65.4908 192.892 65.4567C193.052 65.4055 193.168 65.3172 193.242 65.192C193.322 65.0611 193.362 64.8933 193.362 64.6884V59.4554C193.362 59.2733 193.319 59.1111 193.234 58.9688C193.154 58.8208 193.04 58.6956 192.892 58.5932C192.784 58.5249 192.65 58.4708 192.491 58.431C192.332 58.3854 192.167 58.357 191.996 58.3456V57.7907L194.813 57.6029L194.933 57.7224V58.9261H194.992C195.135 58.7838 195.308 58.6159 195.513 58.4224C195.718 58.2289 195.909 58.0724 196.085 57.9529C196.284 57.8163 196.532 57.7025 196.828 57.6114C197.129 57.5204 197.454 57.4749 197.801 57.4749C198.347 57.4749 198.817 57.6228 199.21 57.9188C199.602 58.209 199.884 58.5619 200.055 58.9773C200.26 58.7781 200.439 58.6045 200.592 58.4566C200.752 58.3029 200.96 58.1407 201.216 57.97C201.432 57.822 201.685 57.7025 201.975 57.6114C202.271 57.5204 202.599 57.4749 202.957 57.4749C203.669 57.4749 204.232 57.7082 204.647 58.1749C205.063 58.6415 205.271 59.3586 205.271 60.3261V64.603C205.271 64.8022 205.305 64.9672 205.373 65.0981C205.441 65.2233 205.558 65.3201 205.723 65.3884C205.854 65.4396 205.982 65.4794 206.107 65.5079C206.238 65.5307 206.383 65.5477 206.543 65.5591V66.1225Z" fill="#123053"/>
<path d="M215.498 65.9689C215.23 66.0656 214.994 66.1425 214.789 66.1994C214.59 66.262 214.362 66.2933 214.106 66.2933C213.662 66.2933 213.306 66.1908 213.039 65.986C212.777 65.7754 212.609 65.4709 212.535 65.0725H212.484C212.114 65.4823 211.716 65.7953 211.289 66.0116C210.868 66.2278 210.358 66.336 209.761 66.336C209.129 66.336 208.608 66.1425 208.199 65.7555C207.795 65.3685 207.593 64.862 207.593 64.2359C207.593 63.9115 207.638 63.6213 207.729 63.3652C207.82 63.1091 207.957 62.8786 208.139 62.6737C208.281 62.503 208.469 62.3522 208.702 62.2213C208.936 62.0847 209.155 61.9765 209.36 61.8969C209.616 61.8001 210.134 61.6209 210.913 61.3591C211.699 61.0973 212.228 60.8924 212.501 60.7444V59.8993C212.501 59.8253 212.484 59.683 212.45 59.4724C212.421 59.2619 212.356 59.0627 212.254 58.8749C212.14 58.6643 211.978 58.4822 211.767 58.3285C211.562 58.1692 211.269 58.0895 210.888 58.0895C210.626 58.0895 210.381 58.135 210.154 58.2261C209.932 58.3115 209.775 58.4025 209.684 58.4993C209.684 58.6131 209.71 58.781 209.761 59.0029C209.818 59.2249 209.846 59.4298 209.846 59.6176C209.846 59.8168 209.755 59.9989 209.573 60.1639C209.397 60.329 209.149 60.4115 208.83 60.4115C208.546 60.4115 208.335 60.3119 208.199 60.1127C208.068 59.9078 208.002 59.6802 208.002 59.4298C208.002 59.168 208.093 58.9176 208.275 58.6785C208.463 58.4395 208.705 58.2261 209.001 58.0383C209.257 57.8789 209.567 57.7452 209.932 57.6371C210.296 57.5232 210.652 57.4663 210.999 57.4663C211.477 57.4663 211.892 57.5005 212.245 57.5688C212.604 57.6314 212.928 57.7708 213.218 57.9871C213.509 58.1976 213.728 58.485 213.876 58.8493C214.029 59.2078 214.106 59.6716 214.106 60.2408C214.106 61.0546 214.098 61.7774 214.08 62.4091C214.063 63.0351 214.055 63.7209 214.055 64.4664C214.055 64.6884 214.092 64.8648 214.166 64.9957C214.246 65.1266 214.365 65.2376 214.524 65.3286C214.61 65.3799 214.743 65.4083 214.926 65.414C215.113 65.4197 215.304 65.4225 215.498 65.4225V65.9689ZM212.518 61.4615C212.034 61.6038 211.611 61.7432 211.246 61.8798C210.882 62.0164 210.543 62.1871 210.23 62.392C209.946 62.5855 209.721 62.816 209.556 63.0835C209.391 63.3453 209.308 63.6583 209.308 64.0225C209.308 64.4949 209.431 64.842 209.676 65.064C209.926 65.2859 210.242 65.3969 210.623 65.3969C211.027 65.3969 211.383 65.3002 211.69 65.1067C211.998 64.9075 212.256 64.6741 212.467 64.4067L212.518 61.4615Z" fill="#123053"/>
<path d="M221.533 65.7555C221.163 65.9091 220.813 66.0372 220.483 66.1396C220.153 66.2478 219.749 66.3018 219.271 66.3018C218.565 66.3018 218.067 66.1254 217.777 65.7725C217.492 65.414 217.35 64.9103 217.35 64.2615V58.559H215.83V57.7395H217.384V55.1187H218.938V57.7395H221.354V58.559H218.955V63.2627C218.955 63.6156 218.966 63.9115 218.989 64.1506C219.018 64.3839 219.08 64.5888 219.177 64.7652C219.268 64.9303 219.405 65.0555 219.587 65.1408C219.769 65.2262 220.013 65.2689 220.321 65.2689C220.463 65.2689 220.671 65.2575 220.944 65.2347C221.223 65.2063 221.419 65.1721 221.533 65.1323V65.7555Z" fill="#123053"/>
<path d="M231.521 66.1225H227.389V65.5591C227.52 65.5477 227.665 65.5364 227.825 65.525C227.984 65.5136 228.115 65.4908 228.217 65.4567C228.377 65.4055 228.493 65.3172 228.567 65.192C228.647 65.0611 228.687 64.8933 228.687 64.6884V60.3603C228.687 59.7627 228.544 59.3017 228.26 58.9773C227.981 58.6529 227.64 58.4907 227.236 58.4907C226.94 58.4907 226.664 58.5391 226.407 58.6358C226.157 58.7269 225.932 58.8407 225.733 58.9773C225.54 59.1196 225.392 59.2619 225.289 59.4042C225.187 59.5464 225.107 59.6659 225.05 59.7627V64.603C225.05 64.7965 225.087 64.9559 225.161 65.0811C225.241 65.2063 225.36 65.303 225.52 65.3713C225.645 65.4282 225.773 65.4709 225.904 65.4994C226.04 65.5278 226.188 65.5477 226.348 65.5591V66.1225H222.216V65.5591C222.347 65.5477 222.483 65.5364 222.626 65.525C222.768 65.5079 222.888 65.4851 222.984 65.4567C223.144 65.4055 223.263 65.3172 223.343 65.192C223.422 65.0611 223.462 64.8933 223.462 64.6884V54.8882C223.462 54.6947 223.417 54.5012 223.326 54.3077C223.24 54.1142 223.127 53.9691 222.984 53.8724C222.882 53.7984 222.7 53.7472 222.438 53.7187C222.182 53.6846 221.974 53.6618 221.815 53.6504V53.1041L224.931 52.9077L225.05 53.0358V58.909H225.084C225.272 58.7212 225.443 58.5562 225.596 58.4139C225.75 58.2659 225.952 58.1123 226.203 57.9529C226.419 57.8163 226.672 57.7025 226.962 57.6114C227.258 57.5204 227.588 57.4749 227.953 57.4749C228.704 57.4749 229.282 57.7139 229.686 58.1919C230.09 58.6643 230.292 59.3472 230.292 60.2408V64.6201C230.292 64.8193 230.326 64.9815 230.394 65.1067C230.468 65.2262 230.588 65.3201 230.753 65.3884C230.884 65.4396 231 65.4794 231.103 65.5079C231.211 65.5307 231.35 65.5477 231.521 65.5591V66.1225Z" fill="#123053"/>
<path d="M238.111 61.9993C238.345 62.2042 238.524 62.4404 238.649 62.7079C238.774 62.9753 238.837 63.3026 238.837 63.6896C238.837 64.4693 238.544 65.1067 237.958 65.6018C237.377 66.0969 236.623 66.3445 235.695 66.3445C235.206 66.3445 234.754 66.2563 234.338 66.0799C233.928 65.9034 233.635 65.7412 233.459 65.5933L233.288 66.1482H232.648L232.562 63.2201H233.151C233.197 63.442 233.294 63.701 233.442 63.9969C233.59 64.2928 233.769 64.5603 233.98 64.7994C234.201 65.0498 234.466 65.2603 234.773 65.4311C235.086 65.6018 235.436 65.6872 235.823 65.6872C236.37 65.6872 236.791 65.5648 237.087 65.3201C237.383 65.0697 237.531 64.714 237.531 64.253C237.531 64.014 237.482 63.8091 237.386 63.6384C237.295 63.4619 237.158 63.3083 236.976 63.1774C236.788 63.0465 236.558 62.9298 236.284 62.8274C236.011 62.7192 235.707 62.614 235.371 62.5115C235.104 62.4318 234.805 62.3237 234.475 62.1871C234.15 62.0448 233.871 61.8798 233.638 61.692C233.388 61.4928 233.183 61.2481 233.023 60.9578C232.864 60.6676 232.784 60.3261 232.784 59.9334C232.784 59.2448 233.041 58.6615 233.553 58.1834C234.065 57.7053 234.751 57.4663 235.61 57.4663C235.94 57.4663 236.276 57.509 236.617 57.5944C236.965 57.6797 237.246 57.7822 237.463 57.9017L237.659 57.4578H238.274L238.402 60.1639H237.813C237.693 59.5607 237.434 59.0712 237.036 58.6956C236.643 58.3143 236.162 58.1236 235.593 58.1236C235.126 58.1236 234.759 58.2403 234.492 58.4737C234.224 58.707 234.091 58.9887 234.091 59.3188C234.091 59.5749 234.133 59.7883 234.219 59.959C234.31 60.1298 234.443 60.2749 234.62 60.3944C234.791 60.5082 235.004 60.6164 235.26 60.7188C235.522 60.8156 235.843 60.9265 236.225 61.0517C236.6 61.1713 236.953 61.3107 237.283 61.47C237.619 61.6294 237.895 61.8058 238.111 61.9993Z" fill="#123053"/>
</svg>
